<?xml version="1.0" encoding="utf-8"?>
<!-- Generator: Adobe Illustrator 27.4.1, SVG Export Plug-In . SVG Version: 6.00 Build 0)  -->
<svg version="1.1" id="Layer_1" xmlns="http://www.w3.org/2000/svg" xmlns:xlink="http://www.w3.org/1999/xlink" x="0px" y="0px"
	 viewBox="0 0 500 500" style="enable-background:new 0 0 500 500;" xml:space="preserve">
<style type="text/css">
	.st0{fill:#126090;}
	.st1{fill:#017373;}
	.st2{fill:#116090;}
</style>
<g id="Aseel_Logo_00000011744828567371187410000010190926302483161505_">
	<g id="Symbol_00000003815532583893122650000011535244761799682493_">
		<polygon class="st2" points="87.81,260.09 87.81,252.25 97.62,262.06 97.62,269.9 		"/>
		<polygon class="st2" points="97.04,250.87 89.19,250.87 99,260.68 106.85,260.68 		"/>
		<polygon class="st2" points="86.07,239.9 86.07,247.75 76.26,237.94 76.26,230.09 		"/>
		<polygon class="st2" points="76.85,249.13 84.69,249.13 74.88,239.31 67.03,239.31 		"/>
		<polygon class="st2" points="76.85,250.87 84.7,250.87 74.89,260.68 67.04,260.68 		"/>
		<polygon class="st2" points="86.07,260.09 86.07,252.24 76.26,262.05 76.26,269.9 		"/>
		<polygon class="st2" points="97.02,249.14 89.17,249.14 98.99,239.33 106.83,239.33 		"/>
		<polygon class="st2" points="87.8,239.92 87.8,247.77 97.61,237.96 97.61,230.11 		"/>
		
			<rect x="85.97" y="249.03" transform="matrix(-0.7071 -0.7071 0.7071 -0.7071 -28.3576 488.2539)" class="st2" width="1.94" height="1.94"/>
	</g>
	<g id="Aseel_Logo_00000176045014579333049410000001580956423257000634_">
		<g id="Logotype_00000086657817218824543530000013948571051317244823_">
			<g>
				<path class="st0" d="M127.86,234.55l-9.9,28.7h5.66l2.08-6.16h11.1l2.04,6.16h5.7l-9.9-28.7H127.86z M127.21,252.46l4.05-12.1
					l4.05,12.1H127.21z"/>
				<path class="st0" d="M154.76,245.95c1.05,0,2,0.29,2.85,0.85c0.85,0.57,1.45,1.33,1.81,2.27l3.85-1.81
					c-0.64-1.72-1.72-3.06-3.24-4c-1.52-0.96-3.26-1.43-5.24-1.43c-1.52,0-2.86,0.27-4.03,0.81c-1.17,0.54-2.08,1.29-2.74,2.25
					c-0.65,0.96-0.98,2.09-0.98,3.37c0,1.44,0.45,2.69,1.37,3.74c0.91,1.06,2.26,1.84,4.03,2.35l3.43,0.96
					c0.44,0.13,0.84,0.29,1.21,0.48c0.37,0.2,0.67,0.43,0.89,0.69c0.22,0.27,0.33,0.62,0.33,1.03c0,0.67-0.27,1.21-0.81,1.62
					c-0.54,0.41-1.27,0.62-2.2,0.62c-1.18,0-2.25-0.33-3.22-1c-0.96-0.67-1.71-1.6-2.25-2.78l-3.77,1.81
					c0.62,1.82,1.75,3.27,3.41,4.33c1.66,1.07,3.6,1.6,5.84,1.6c1.6,0,2.98-0.26,4.16-0.81c1.18-0.54,2.11-1.29,2.78-2.26
					c0.67-0.96,1-2.07,1-3.33c0-1.49-0.47-2.75-1.41-3.78c-0.94-1.03-2.27-1.8-3.99-2.31l-3.35-1.01c-0.49-0.15-0.92-0.32-1.29-0.5
					c-0.37-0.18-0.66-0.41-0.87-0.69c-0.21-0.29-0.31-0.62-0.31-1c0-0.62,0.24-1.12,0.73-1.5
					C153.24,246.15,153.91,245.95,154.76,245.95z"/>
				<path class="st0" d="M184.19,244.88c-0.87-0.95-1.93-1.7-3.18-2.24c-1.25-0.54-2.69-0.81-4.33-0.81c-1.95,0-3.72,0.48-5.3,1.43
					c-1.58,0.95-2.83,2.24-3.74,3.87c-0.91,1.63-1.37,3.5-1.37,5.6c0,2.03,0.45,3.88,1.35,5.55c0.9,1.66,2.16,2.99,3.77,3.96
					c1.62,0.98,3.51,1.46,5.67,1.46c1.44,0,2.75-0.22,3.95-0.66c1.2-0.44,2.23-1.04,3.1-1.81c0.87-0.77,1.52-1.65,1.93-2.66l-4.08-2
					c-0.46,0.83-1.1,1.48-1.91,1.96c-0.81,0.49-1.79,0.74-2.95,0.74c-1.16,0-2.18-0.27-3.06-0.81c-0.89-0.54-1.55-1.3-2.01-2.29
					c-0.26-0.57-0.23-1.31-0.3-1.98h14.88c0.1-0.29,0.17-0.62,0.21-1c0.04-0.39,0.06-0.76,0.06-1.12c0-1.41-0.23-2.73-0.7-3.95
					C185.73,246.91,185.06,245.83,184.19,244.88z M173.87,246.78c0.82-0.53,1.76-0.79,2.81-0.79c1.11,0,2.05,0.27,2.83,0.81
					c0.78,0.54,1.35,1.27,1.69,2.2c0.15,0.39,0.03,0.91,0.07,1.35h-9.45c0.08-0.4,0.02-0.91,0.16-1.26
					C172.42,248.08,173.04,247.31,173.87,246.78z"/>
				<path class="st0" d="M207.77,244.88c-0.87-0.95-1.93-1.7-3.18-2.24c-1.25-0.54-2.69-0.81-4.33-0.81c-1.95,0-3.72,0.48-5.3,1.43
					c-1.58,0.95-2.83,2.24-3.74,3.87c-0.91,1.63-1.37,3.5-1.37,5.6c0,2.03,0.45,3.88,1.35,5.55c0.9,1.66,2.16,2.99,3.77,3.96
					c1.62,0.98,3.51,1.46,5.67,1.46c1.44,0,2.75-0.22,3.95-0.66c1.2-0.44,2.23-1.04,3.1-1.81c0.87-0.77,1.52-1.65,1.93-2.66l-4.08-2
					c-0.46,0.83-1.1,1.48-1.91,1.96c-0.81,0.49-1.79,0.74-2.95,0.74s-2.18-0.27-3.06-0.81c-0.89-0.54-1.55-1.3-2.01-2.29
					c-0.26-0.57-0.23-1.31-0.3-1.98h14.88c0.1-0.29,0.17-0.62,0.21-1c0.04-0.39,0.06-0.76,0.06-1.12c0-1.41-0.23-2.73-0.7-3.95
					C209.31,246.91,208.64,245.83,207.77,244.88z M197.45,246.78c0.82-0.53,1.76-0.79,2.81-0.79c1.11,0,2.05,0.27,2.83,0.81
					c0.78,0.54,1.35,1.27,1.69,2.2c0.15,0.39,0.03,0.91,0.07,1.35h-9.45c0.08-0.4,0.02-0.91,0.16-1.26
					C196,248.08,196.62,247.31,197.45,246.78z"/>
				<rect x="214.28" y="234.09" class="st0" width="5.05" height="29.17"/>
			</g>
			<path class="st0" d="M236.76,269.06v-40.32h1.34v40.32H236.76z"/>
			<g>
				<path class="st0" d="M274.21,248.65c-0.59-0.54-1.36-0.9-2.12-1.26c0.98-0.56,1.81-1.24,2.39-2.15c0.73-1.14,1.1-2.46,1.1-3.95
					c0-1.44-0.33-2.69-0.98-3.78c-0.66-1.08-1.58-1.92-2.77-2.52c-1.2-0.6-2.6-0.9-4.22-0.9h-12.06v28.7h12.1
					c2.8,0,5.02-0.75,6.65-2.26c1.63-1.5,2.45-3.54,2.45-6.1c0-1.13-0.22-2.19-0.66-3.18C275.64,250.26,275.02,249.39,274.21,248.65
					z M258.62,236.98h8.75c1.54,0,2.78,0.38,3.72,1.14c0.94,0.75,1.41,1.85,1.41,3.29c0,1.42-0.47,2.57-1.41,3.47
					c-0.94,0.9-2.18,1.35-3.72,1.35h-8.75V236.98z M272.01,258.45c-1.09,0.96-2.55,1.44-4.38,1.44h-9.02v-10.9h9.02
					c1.82,0,3.28,0.5,4.38,1.48c1.09,0.99,1.64,2.32,1.64,3.99C273.65,256.16,273.1,257.49,272.01,258.45z"/>
				<path class="st0" d="M295.07,254.43c0,1.23-0.23,2.29-0.69,3.17c-0.46,0.89-1.11,1.57-1.93,2.05c-0.82,0.48-1.76,0.71-2.81,0.71
					c-1.05,0-1.98-0.23-2.79-0.69c-0.81-0.46-1.44-1.11-1.89-1.94c-0.45-0.84-0.67-1.81-0.67-2.91v-12.67h-2.89v13.02
					c0,1.6,0.34,3,1.02,4.22c0.68,1.22,1.61,2.17,2.8,2.85c1.18,0.68,2.49,1.02,3.93,1.02c1.54,0,2.9-0.38,4.09-1.15
					c0.79-0.52,1.37-1.21,1.85-1.98v2.67h2.89v-20.65h-2.89V254.43z"/>
				<path class="st0" d="M311.23,259.18l-6.76-17.04h-3.12l8.26,20.67l-0.75,1.76c-0.64,1.48-1.29,2.49-1.96,3.02
					c-0.67,0.53-1.63,0.79-2.89,0.79c-0.41,0-0.82-0.03-1.21-0.09c-0.4-0.07-0.73-0.11-0.98-0.14v2.7c0.41,0.16,0.83,0.26,1.25,0.33
					c0.43,0.06,0.84,0.09,1.25,0.09c1.36,0,2.52-0.27,3.47-0.83c0.95-0.55,1.74-1.28,2.37-2.18c0.63-0.9,1.15-1.85,1.56-2.85
					l9.44-23.27h-3.2L311.23,259.18z"/>
				<path class="st0" d="M344.62,250.65h9.94v0.2c0,1.85-0.44,3.48-1.31,4.91c-0.87,1.42-2.06,2.54-3.56,3.37
					c-1.5,0.82-3.19,1.23-5.06,1.23c-2.11,0-3.98-0.49-5.62-1.48c-1.64-0.98-2.93-2.38-3.85-4.18c-0.93-1.8-1.39-3.88-1.39-6.25
					c0-2.38,0.46-4.47,1.39-6.26c0.92-1.78,2.21-3.18,3.85-4.18c1.64-1,3.52-1.5,5.62-1.5c2.1,0,3.9,0.5,5.39,1.5
					c1.49,1,2.6,2.38,3.31,4.12l2.77-1.35c-0.46-1.21-1.23-2.36-2.29-3.45c-1.07-1.09-2.38-1.98-3.93-2.68
					c-1.55-0.69-3.31-1.04-5.26-1.04c-2.03,0-3.89,0.37-5.59,1.1c-1.7,0.73-3.17,1.77-4.41,3.1c-1.25,1.34-2.21,2.9-2.91,4.7
					c-0.69,1.8-1.04,3.78-1.04,5.93c0,2.16,0.35,4.14,1.04,5.94c0.7,1.8,1.66,3.36,2.91,4.68c1.25,1.32,2.72,2.35,4.41,3.09
					c1.69,0.73,3.56,1.09,5.59,1.09c1.82,0,3.53-0.31,5.11-0.94c1.58-0.63,2.96-1.52,4.14-2.68c1.18-1.15,2.11-2.52,2.78-4.1
					c0.67-1.58,1-3.31,1-5.19v-2.38h-13.02V250.65z"/>
				<path class="st0" d="M377.77,243.06c-1.58-0.93-3.37-1.39-5.37-1.39c-2.01,0-3.8,0.48-5.38,1.41c-1.58,0.94-2.83,2.22-3.75,3.84
					c-0.93,1.62-1.39,3.46-1.39,5.51c0,2.08,0.47,3.93,1.41,5.57c0.94,1.63,2.2,2.91,3.8,3.85c1.59,0.93,3.36,1.4,5.32,1.4
					c1.93,0,3.68-0.46,5.26-1.39c1.58-0.92,2.84-2.2,3.8-3.83c0.95-1.63,1.43-3.5,1.43-5.6c0-2.09-0.46-3.94-1.37-5.55
					C380.6,245.25,379.35,243.98,377.77,243.06z M378.81,256.47c-0.65,1.21-1.54,2.16-2.66,2.85c-1.12,0.69-2.37,1.04-3.76,1.04
					c-1.39,0-2.64-0.35-3.76-1.04c-1.12-0.69-2.01-1.64-2.67-2.85c-0.67-1.21-1-2.55-1-4.04c0-1.49,0.34-2.83,1-4.01
					c0.67-1.18,1.56-2.11,2.67-2.81c1.12-0.69,2.37-1.04,3.76-1.04c1.38,0,2.64,0.35,3.76,1.04c1.12,0.7,2.01,1.63,2.66,2.81
					c0.65,1.18,0.98,2.52,0.98,4.01C379.79,253.91,379.47,255.26,378.81,256.47z"/>
				<path class="st0" d="M403.01,243.06c-1.58-0.93-3.37-1.39-5.37-1.39c-2.01,0-3.8,0.48-5.38,1.41c-1.58,0.94-2.83,2.22-3.75,3.84
					c-0.93,1.62-1.39,3.46-1.39,5.51c0,2.08,0.47,3.93,1.41,5.57c0.94,1.63,2.2,2.91,3.8,3.85c1.59,0.93,3.36,1.4,5.32,1.4
					c1.93,0,3.68-0.46,5.26-1.39c1.58-0.92,2.84-2.2,3.8-3.83c0.95-1.63,1.43-3.5,1.43-5.6c0-2.09-0.45-3.94-1.37-5.55
					C405.83,245.25,404.59,243.98,403.01,243.06z M404.05,256.47c-0.65,1.21-1.54,2.16-2.66,2.85c-1.12,0.69-2.37,1.04-3.76,1.04
					c-1.39,0-2.64-0.35-3.76-1.04c-1.12-0.69-2.01-1.64-2.67-2.85c-0.67-1.21-1-2.55-1-4.04c0-1.49,0.34-2.83,1-4.01
					c0.67-1.18,1.56-2.11,2.67-2.81c1.12-0.69,2.37-1.04,3.76-1.04c1.38,0,2.64,0.35,3.76,1.04c1.12,0.7,2.01,1.63,2.66,2.81
					c0.65,1.18,0.98,2.52,0.98,4.01C405.03,253.91,404.71,255.26,404.05,256.47z"/>
				<path class="st0" d="M430.08,245.51c-0.75-1.06-1.62-2.02-2.81-2.69c-1.39-0.77-2.96-1.16-4.74-1.16c-1.95,0-3.7,0.48-5.22,1.41
					c-1.53,0.94-2.74,2.22-3.62,3.84c-0.88,1.62-1.33,3.46-1.33,5.55c0,2.05,0.44,3.9,1.33,5.53c0.89,1.63,2.1,2.91,3.64,3.85
					c1.54,0.93,3.28,1.4,5.2,1.4c1.77,0,3.37-0.4,4.79-1.21c1.18-0.67,2.06-1.63,2.76-2.77v3.52h2.89v-29.17h-2.89V245.51z
					 M429.09,256.49c-0.65,1.2-1.54,2.14-2.66,2.83c-1.12,0.69-2.37,1.04-3.76,1.04c-1.39,0-2.63-0.35-3.72-1.04
					c-1.09-0.69-1.95-1.63-2.58-2.83c-0.63-1.19-0.94-2.54-0.94-4.03c0-1.52,0.32-2.87,0.94-4.05c0.63-1.18,1.5-2.11,2.6-2.81
					c1.11-0.69,2.34-1.04,3.7-1.04c1.38,0,2.64,0.35,3.76,1.04c1.12,0.7,2,1.64,2.66,2.84c0.66,1.2,0.99,2.54,0.99,4.03
					C430.08,253.95,429.75,255.29,429.09,256.49z"/>
			</g>
		</g>
	</g>
</g>
</svg>
