<?xml version="1.0" encoding="utf-8"?>
<!-- Generator: Adobe Illustrator 27.4.1, SVG Export Plug-In . SVG Version: 6.00 Build 0)  -->
<svg version="1.1" id="Layer_1" xmlns="http://www.w3.org/2000/svg" xmlns:xlink="http://www.w3.org/1999/xlink" x="0px" y="0px"
	 viewBox="0 0 500 500" style="enable-background:new 0 0 500 500;" xml:space="preserve">
<style type="text/css">
	.st0{fill:#126090;}
	.st1{fill:#017373;}
	.st2{fill:#116090;}
</style>
<g id="Aseel_Logo_00000174569775381270485220000012659509161205356440_">
	<g id="Symbol_00000112597246113302009430000003700352725803962537_">
		<polygon class="st2" points="251.05,236.62 251.05,227.14 262.9,238.99 262.9,248.47 		"/>
		<polygon class="st2" points="262.19,225.48 252.71,225.48 264.56,237.33 274.04,237.33 		"/>
		<polygon class="st2" points="248.95,212.24 248.95,221.72 237.1,209.87 237.1,200.39 		"/>
		<polygon class="st2" points="237.81,223.38 247.29,223.38 235.44,211.53 225.96,211.53 		"/>
		<polygon class="st2" points="237.82,225.48 247.29,225.48 235.45,237.33 225.97,237.33 		"/>
		<polygon class="st2" points="248.95,236.62 248.95,227.14 237.11,238.99 237.11,248.46 		"/>
		<polygon class="st2" points="262.18,223.39 252.7,223.39 264.54,211.55 274.02,211.55 		"/>
		<polygon class="st2" points="251.04,212.26 251.04,221.74 262.89,209.89 262.89,200.41 		"/>
		
			<rect x="248.83" y="223.26" transform="matrix(-0.7071 -0.7071 0.7071 -0.7071 268.0822 559.9075)" class="st2" width="2.35" height="2.35"/>
	</g>
	<g id="Aseel_Logo_00000170994421123291721140000008908316888218224550_">
		<g id="Logotype_00000067916619510121053620000000511235235749693850_">
			<g>
				<path class="st2" d="M65.32,271.38l-7.61,22.07h4.35l1.6-4.74h8.53l1.57,4.74h4.38l-7.61-22.07H65.32z M64.82,285.15l3.11-9.31
					l3.11,9.31H64.82z"/>
				<path class="st2" d="M86,280.15c0.81,0,1.54,0.22,2.19,0.65c0.65,0.44,1.11,1.02,1.39,1.75l2.96-1.39
					c-0.49-1.32-1.32-2.35-2.49-3.08c-1.17-0.74-2.51-1.1-4.03-1.1c-1.17,0-2.2,0.21-3.1,0.62c-0.9,0.41-1.6,0.99-2.1,1.73
					c-0.5,0.74-0.75,1.61-0.75,2.59c0,1.11,0.35,2.06,1.05,2.87c0.7,0.81,1.74,1.41,3.1,1.81l2.64,0.74
					c0.34,0.1,0.64,0.23,0.93,0.37c0.29,0.15,0.52,0.33,0.68,0.53c0.17,0.21,0.25,0.48,0.25,0.79c0,0.51-0.21,0.93-0.62,1.24
					c-0.41,0.32-0.98,0.47-1.69,0.47c-0.91,0-1.73-0.26-2.47-0.77c-0.74-0.51-1.32-1.23-1.73-2.13l-2.9,1.39
					c0.47,1.4,1.35,2.51,2.62,3.33c1.27,0.82,2.77,1.23,4.49,1.23c1.23,0,2.29-0.2,3.2-0.62c0.91-0.42,1.62-1,2.14-1.74
					c0.51-0.74,0.77-1.59,0.77-2.56c0-1.15-0.36-2.12-1.08-2.91c-0.72-0.79-1.74-1.38-3.07-1.78l-2.58-0.78
					c-0.37-0.12-0.71-0.24-0.99-0.38c-0.29-0.14-0.51-0.32-0.67-0.53c-0.16-0.22-0.24-0.47-0.24-0.77c0-0.47,0.19-0.86,0.56-1.16
					C84.83,280.3,85.35,280.15,86,280.15z"/>
				<path class="st2" d="M108.63,279.32c-0.67-0.73-1.49-1.31-2.44-1.72c-0.96-0.42-2.07-0.62-3.33-0.62c-1.5,0-2.86,0.37-4.07,1.1
					c-1.22,0.73-2.17,1.72-2.87,2.97c-0.7,1.25-1.05,2.69-1.05,4.31c0,1.56,0.35,2.99,1.04,4.27c0.69,1.28,1.66,2.3,2.9,3.05
					c1.24,0.75,2.7,1.12,4.36,1.12c1.11,0,2.12-0.17,3.04-0.5c0.92-0.34,1.71-0.8,2.38-1.39c0.67-0.6,1.17-1.27,1.48-2.05
					l-3.14-1.54c-0.36,0.64-0.85,1.14-1.47,1.51c-0.62,0.38-1.38,0.57-2.27,0.57c-0.89,0-1.68-0.21-2.36-0.63
					c-0.68-0.42-1.19-1-1.54-1.76c-0.2-0.44-0.17-1-0.23-1.52h11.45c0.08-0.22,0.13-0.47,0.16-0.77c0.03-0.3,0.05-0.58,0.05-0.86
					c0-1.08-0.18-2.1-0.54-3.04C109.82,280.88,109.31,280.05,108.63,279.32z M100.69,280.78c0.63-0.41,1.35-0.61,2.16-0.61
					c0.85,0,1.57,0.21,2.18,0.62c0.6,0.41,1.04,0.98,1.3,1.69c0.12,0.3,0.02,0.7,0.06,1.04h-7.26c0.06-0.3,0.01-0.7,0.13-0.97
					C99.58,281.78,100.06,281.19,100.69,280.78z"/>
				<path class="st2" d="M126.77,279.32c-0.67-0.73-1.49-1.31-2.44-1.72c-0.96-0.42-2.07-0.62-3.33-0.62c-1.5,0-2.86,0.37-4.07,1.1
					c-1.22,0.73-2.17,1.72-2.87,2.97c-0.7,1.25-1.05,2.69-1.05,4.31c0,1.56,0.35,2.99,1.04,4.27c0.69,1.28,1.66,2.3,2.9,3.05
					c1.24,0.75,2.7,1.12,4.36,1.12c1.11,0,2.12-0.17,3.03-0.5c0.92-0.34,1.71-0.8,2.38-1.39c0.67-0.6,1.17-1.27,1.48-2.05
					l-3.14-1.54c-0.36,0.64-0.84,1.14-1.47,1.51c-0.62,0.38-1.38,0.57-2.27,0.57s-1.68-0.21-2.36-0.63c-0.68-0.42-1.19-1-1.54-1.76
					c-0.2-0.44-0.17-1-0.23-1.52h11.45c0.08-0.22,0.13-0.47,0.16-0.77c0.03-0.3,0.05-0.58,0.05-0.86c0-1.08-0.18-2.1-0.54-3.04
					C127.95,280.88,127.44,280.05,126.77,279.32z M118.83,280.78c0.63-0.41,1.35-0.61,2.16-0.61c0.85,0,1.57,0.21,2.18,0.62
					c0.6,0.41,1.04,0.98,1.3,1.69c0.12,0.3,0.02,0.7,0.06,1.04h-7.26c0.06-0.3,0.01-0.7,0.13-0.97
					C117.72,281.78,118.19,281.19,118.83,280.78z"/>
				<rect x="131.77" y="271.02" class="st2" width="3.88" height="22.43"/>
			</g>
			<path class="st2" d="M149.06,297.92v-31.01h1.03v31.01H149.06z"/>
			<g>
				<path class="st2" d="M177.85,282.22c-0.45-0.42-1.05-0.69-1.63-0.97c0.75-0.43,1.39-0.95,1.84-1.65
					c0.56-0.88,0.84-1.89,0.84-3.04c0-1.11-0.25-2.07-0.75-2.9c-0.5-0.83-1.22-1.48-2.13-1.94c-0.92-0.46-2-0.69-3.25-0.69h-9.27
					v22.07h9.3c2.15,0,3.86-0.58,5.11-1.74c1.25-1.15,1.88-2.72,1.88-4.69c0-0.87-0.17-1.69-0.5-2.44
					C178.96,283.46,178.48,282.79,177.85,282.22z M165.87,273.24h6.73c1.18,0,2.14,0.29,2.86,0.87c0.72,0.58,1.08,1.42,1.08,2.53
					c0,1.09-0.36,1.98-1.08,2.67c-0.72,0.69-1.67,1.04-2.86,1.04h-6.73V273.24z M176.17,289.76c-0.84,0.74-1.96,1.11-3.36,1.11
					h-6.93v-8.39h6.93c1.4,0,2.52,0.38,3.36,1.14c0.84,0.76,1.26,1.78,1.26,3.07C177.43,287.99,177.01,289.02,176.17,289.76z"/>
				<path class="st2" d="M193.9,286.66c0,0.95-0.18,1.76-0.53,2.44c-0.36,0.68-0.85,1.21-1.48,1.57c-0.63,0.37-1.35,0.54-2.16,0.54
					s-1.52-0.17-2.15-0.53c-0.62-0.35-1.11-0.85-1.45-1.49c-0.34-0.64-0.52-1.39-0.52-2.24v-9.74h-2.22v10.01
					c0,1.23,0.26,2.31,0.78,3.25c0.52,0.94,1.24,1.67,2.15,2.19c0.91,0.52,1.92,0.78,3.02,0.78c1.19,0,2.23-0.3,3.14-0.89
					c0.61-0.4,1.05-0.93,1.42-1.52v2.05h2.22v-15.88h-2.22V286.66z"/>
				<path class="st2" d="M206.33,290.32l-5.2-13.11h-2.4l6.35,15.89l-0.58,1.35c-0.49,1.14-1,1.91-1.51,2.32
					c-0.51,0.41-1.25,0.61-2.22,0.61c-0.32,0-0.63-0.02-0.93-0.07c-0.31-0.05-0.56-0.09-0.76-0.1v2.07c0.32,0.12,0.64,0.2,0.96,0.25
					c0.33,0.05,0.65,0.07,0.96,0.07c1.05,0,1.94-0.21,2.67-0.64c0.73-0.42,1.34-0.98,1.82-1.67c0.49-0.69,0.89-1.42,1.2-2.19
					l7.26-17.89h-2.46L206.33,290.32z"/>
				<path class="st2" d="M232,283.76h7.64v0.15c0,1.42-0.34,2.68-1.01,3.78c-0.67,1.09-1.58,1.96-2.74,2.59
					c-1.15,0.63-2.45,0.94-3.89,0.94c-1.62,0-3.06-0.38-4.33-1.14c-1.26-0.76-2.25-1.83-2.96-3.21c-0.71-1.38-1.07-2.99-1.07-4.8
					c0-1.83,0.36-3.44,1.07-4.81c0.71-1.37,1.7-2.44,2.96-3.21c1.26-0.77,2.7-1.16,4.33-1.16c1.62,0,3,0.39,4.15,1.16
					c1.15,0.77,2,1.83,2.55,3.17l2.13-1.04c-0.36-0.93-0.94-1.81-1.76-2.65c-0.82-0.84-1.83-1.52-3.02-2.06
					c-1.19-0.53-2.54-0.8-4.04-0.8c-1.56,0-2.99,0.28-4.3,0.84c-1.3,0.56-2.44,1.36-3.39,2.39c-0.96,1.03-1.7,2.23-2.24,3.62
					c-0.53,1.38-0.8,2.9-0.8,4.56c0,1.66,0.27,3.18,0.8,4.57c0.54,1.38,1.28,2.58,2.24,3.6c0.96,1.02,2.09,1.81,3.39,2.37
					c1.3,0.56,2.73,0.84,4.3,0.84c1.4,0,2.71-0.24,3.93-0.72c1.21-0.49,2.27-1.17,3.18-2.06c0.91-0.88,1.62-1.94,2.14-3.15
					c0.51-1.22,0.77-2.55,0.77-3.99v-1.83H232V283.76z"/>
				<path class="st2" d="M257.49,277.92c-1.22-0.71-2.59-1.07-4.13-1.07c-1.54,0-2.92,0.37-4.13,1.08
					c-1.22,0.72-2.18,1.71-2.89,2.95c-0.71,1.24-1.07,2.66-1.07,4.24c0,1.6,0.36,3.03,1.08,4.28c0.72,1.25,1.69,2.24,2.92,2.96
					c1.22,0.72,2.59,1.08,4.09,1.08c1.48,0,2.83-0.35,4.04-1.07c1.22-0.71,2.19-1.69,2.92-2.94c0.73-1.26,1.1-2.69,1.1-4.31
					c0-1.6-0.35-3.03-1.05-4.27C259.66,279.61,258.71,278.63,257.49,277.92z M258.29,288.23c-0.5,0.93-1.19,1.66-2.05,2.19
					c-0.86,0.53-1.82,0.8-2.89,0.8c-1.07,0-2.03-0.27-2.89-0.8c-0.86-0.53-1.55-1.26-2.06-2.19c-0.52-0.93-0.77-1.96-0.77-3.11
					c0-1.15,0.26-2.18,0.77-3.08c0.51-0.91,1.2-1.63,2.06-2.16c0.86-0.53,1.82-0.8,2.89-0.8c1.06,0,2.03,0.27,2.89,0.8
					c0.86,0.54,1.54,1.26,2.05,2.16c0.5,0.91,0.76,1.94,0.76,3.08C259.05,286.27,258.8,287.3,258.29,288.23z"/>
				<path class="st2" d="M276.9,277.92c-1.22-0.71-2.59-1.07-4.13-1.07c-1.54,0-2.92,0.37-4.13,1.08c-1.22,0.72-2.18,1.71-2.89,2.95
					c-0.71,1.24-1.07,2.66-1.07,4.24c0,1.6,0.36,3.03,1.08,4.28c0.72,1.25,1.69,2.24,2.92,2.96c1.22,0.72,2.59,1.08,4.09,1.08
					c1.48,0,2.83-0.35,4.04-1.07c1.22-0.71,2.19-1.69,2.92-2.94c0.73-1.26,1.1-2.69,1.1-4.31c0-1.6-0.35-3.03-1.05-4.27
					C279.07,279.61,278.11,278.63,276.9,277.92z M277.7,288.23c-0.5,0.93-1.19,1.66-2.05,2.19c-0.86,0.53-1.82,0.8-2.89,0.8
					c-1.07,0-2.03-0.27-2.89-0.8c-0.86-0.53-1.55-1.26-2.06-2.19c-0.52-0.93-0.77-1.96-0.77-3.11c0-1.15,0.26-2.18,0.77-3.08
					c0.51-0.91,1.2-1.63,2.06-2.16c0.86-0.53,1.82-0.8,2.89-0.8c1.06,0,2.03,0.27,2.89,0.8c0.86,0.54,1.54,1.26,2.05,2.16
					c0.5,0.91,0.76,1.94,0.76,3.08C278.46,286.27,278.2,287.3,277.7,288.23z"/>
				<path class="st2" d="M297.71,279.81c-0.58-0.82-1.25-1.56-2.16-2.06c-1.07-0.6-2.28-0.89-3.64-0.89c-1.5,0-2.84,0.37-4.02,1.08
					c-1.17,0.72-2.1,1.71-2.79,2.95c-0.68,1.24-1.02,2.66-1.02,4.26c0,1.58,0.34,3,1.02,4.25c0.68,1.25,1.62,2.24,2.8,2.96
					c1.19,0.72,2.52,1.08,4,1.08c1.36,0,2.59-0.31,3.69-0.93c0.91-0.51,1.59-1.25,2.12-2.13v2.71h2.22v-22.43h-2.22V279.81z
					 M296.96,288.25c-0.5,0.92-1.18,1.64-2.04,2.18c-0.86,0.53-1.82,0.8-2.89,0.8c-1.07,0-2.02-0.27-2.86-0.8
					c-0.84-0.53-1.5-1.26-1.98-2.18c-0.48-0.92-0.73-1.95-0.73-3.1c0-1.17,0.24-2.2,0.73-3.11c0.48-0.91,1.15-1.63,2-2.16
					c0.85-0.53,1.8-0.8,2.85-0.8c1.06,0,2.03,0.27,2.89,0.8c0.86,0.54,1.54,1.26,2.04,2.18c0.51,0.92,0.76,1.95,0.76,3.1
					S297.46,287.33,296.96,288.25z"/>
				<path class="st2" d="M305.18,293.09h1.13c0,0.81-0.14,1.44-0.41,1.9c-0.28,0.45-0.71,0.76-1.3,0.91v1.04
					c0.99-0.24,1.73-0.75,2.22-1.53c0.49-0.78,0.74-1.81,0.74-3.1v-2.49h-2.37V293.09z"/>
				<path class="st2" d="M330.83,272.37c-1.62-0.9-3.52-1.35-5.72-1.35h-7.26v22.07h7.26c2.19,0,4.1-0.45,5.72-1.37
					c1.62-0.9,2.88-2.19,3.76-3.85c0.89-1.66,1.33-3.61,1.33-5.84c0-2.25-0.45-4.2-1.33-5.85
					C333.71,274.54,332.45,273.27,330.83,272.37z M332.42,286.72c-0.68,1.32-1.64,2.35-2.89,3.07c-1.24,0.72-2.72,1.08-4.42,1.08
					h-4.89v-17.63h4.89c1.68,0,3.14,0.36,4.38,1.08c1.25,0.72,2.21,1.74,2.9,3.06s1.04,2.87,1.04,4.66
					C333.44,283.84,333.1,285.4,332.42,286.72z"/>
				<path class="st2" d="M351.09,277.92c-1.22-0.71-2.59-1.07-4.13-1.07c-1.54,0-2.92,0.37-4.13,1.08
					c-1.22,0.72-2.18,1.71-2.89,2.95c-0.71,1.24-1.07,2.66-1.07,4.24c0,1.6,0.36,3.03,1.08,4.28c0.72,1.25,1.69,2.24,2.92,2.96
					c1.22,0.72,2.59,1.08,4.09,1.08c1.48,0,2.83-0.35,4.04-1.07c1.22-0.71,2.19-1.69,2.92-2.94c0.73-1.26,1.1-2.69,1.1-4.31
					c0-1.6-0.35-3.03-1.05-4.27C353.26,279.61,352.3,278.63,351.09,277.92z M351.89,288.23c-0.5,0.93-1.19,1.66-2.05,2.19
					c-0.86,0.53-1.82,0.8-2.89,0.8c-1.07,0-2.03-0.27-2.89-0.8c-0.86-0.53-1.55-1.26-2.06-2.19c-0.52-0.93-0.77-1.96-0.77-3.11
					c0-1.15,0.26-2.18,0.77-3.08c0.51-0.91,1.2-1.63,2.06-2.16c0.86-0.53,1.82-0.8,2.89-0.8c1.06,0,2.03,0.27,2.89,0.8
					c0.86,0.54,1.54,1.26,2.05,2.16c0.5,0.91,0.76,1.94,0.76,3.08C352.64,286.27,352.39,287.3,351.89,288.23z"/>
				<path class="st2" d="M374.36,283.76H382v0.15c0,1.42-0.34,2.68-1.01,3.78c-0.67,1.09-1.58,1.96-2.74,2.59
					c-1.15,0.63-2.45,0.94-3.89,0.94c-1.62,0-3.06-0.38-4.33-1.14c-1.26-0.76-2.25-1.83-2.96-3.21c-0.71-1.38-1.07-2.99-1.07-4.8
					c0-1.83,0.36-3.44,1.07-4.81c0.71-1.37,1.7-2.44,2.96-3.21c1.26-0.77,2.7-1.16,4.33-1.16c1.62,0,3,0.39,4.15,1.16
					c1.15,0.77,2,1.83,2.55,3.17l2.13-1.04c-0.36-0.93-0.94-1.81-1.76-2.65c-0.82-0.84-1.83-1.52-3.02-2.06
					c-1.19-0.53-2.54-0.8-4.04-0.8c-1.56,0-2.99,0.28-4.3,0.84c-1.3,0.56-2.44,1.36-3.39,2.39c-0.96,1.03-1.7,2.23-2.24,3.62
					c-0.53,1.38-0.8,2.9-0.8,4.56c0,1.66,0.27,3.18,0.8,4.57c0.54,1.38,1.28,2.58,2.24,3.6c0.96,1.02,2.09,1.81,3.39,2.37
					c1.3,0.56,2.73,0.84,4.3,0.84c1.4,0,2.71-0.24,3.93-0.72c1.21-0.49,2.27-1.17,3.18-2.06c0.91-0.88,1.62-1.94,2.14-3.15
					c0.51-1.22,0.77-2.55,0.77-3.99v-1.83h-10.01V283.76z"/>
				<path class="st2" d="M399.85,277.92c-1.22-0.71-2.59-1.07-4.13-1.07c-1.54,0-2.92,0.37-4.13,1.08
					c-1.22,0.72-2.18,1.71-2.89,2.95c-0.71,1.24-1.07,2.66-1.07,4.24c0,1.6,0.36,3.03,1.08,4.28c0.72,1.25,1.69,2.24,2.92,2.96
					c1.22,0.72,2.59,1.08,4.09,1.08c1.48,0,2.83-0.35,4.04-1.07c1.22-0.71,2.19-1.69,2.92-2.94c0.73-1.26,1.1-2.69,1.1-4.31
					c0-1.6-0.35-3.03-1.05-4.27C402.02,279.61,401.07,278.63,399.85,277.92z M400.65,288.23c-0.5,0.93-1.19,1.66-2.05,2.19
					c-0.86,0.53-1.82,0.8-2.89,0.8c-1.07,0-2.03-0.27-2.89-0.8c-0.86-0.53-1.55-1.26-2.06-2.19c-0.52-0.93-0.77-1.96-0.77-3.11
					c0-1.15,0.26-2.18,0.77-3.08c0.51-0.91,1.2-1.63,2.06-2.16c0.86-0.53,1.82-0.8,2.89-0.8c1.06,0,2.03,0.27,2.89,0.8
					c0.86,0.54,1.54,1.26,2.05,2.16c0.5,0.91,0.76,1.94,0.76,3.08C401.41,286.27,401.16,287.3,400.65,288.23z"/>
				<path class="st2" d="M419.26,277.92c-1.22-0.71-2.59-1.07-4.13-1.07c-1.54,0-2.92,0.37-4.13,1.08
					c-1.22,0.72-2.18,1.71-2.89,2.95c-0.71,1.24-1.07,2.66-1.07,4.24c0,1.6,0.36,3.03,1.08,4.28c0.72,1.25,1.69,2.24,2.92,2.96
					c1.22,0.72,2.59,1.08,4.09,1.08c1.48,0,2.83-0.35,4.04-1.07c1.22-0.71,2.19-1.69,2.92-2.94c0.73-1.26,1.1-2.69,1.1-4.31
					c0-1.6-0.35-3.03-1.05-4.27C421.43,279.61,420.47,278.63,419.26,277.92z M420.06,288.23c-0.5,0.93-1.19,1.66-2.05,2.19
					c-0.86,0.53-1.82,0.8-2.89,0.8c-1.07,0-2.03-0.27-2.89-0.8c-0.86-0.53-1.55-1.26-2.06-2.19c-0.52-0.93-0.77-1.96-0.77-3.11
					c0-1.15,0.26-2.18,0.77-3.08c0.51-0.91,1.2-1.63,2.06-2.16c0.86-0.53,1.82-0.8,2.89-0.8c1.06,0,2.03,0.27,2.89,0.8
					c0.86,0.54,1.54,1.26,2.05,2.16c0.5,0.91,0.76,1.94,0.76,3.08C420.81,286.27,420.56,287.3,420.06,288.23z"/>
				<path class="st2" d="M440.07,270.66v9.15c-0.58-0.82-1.25-1.56-2.16-2.06c-1.07-0.6-2.28-0.89-3.64-0.89
					c-1.5,0-2.84,0.37-4.02,1.08c-1.17,0.72-2.1,1.71-2.79,2.95c-0.68,1.24-1.02,2.66-1.02,4.26c0,1.58,0.34,3,1.02,4.25
					c0.68,1.25,1.62,2.24,2.8,2.96c1.19,0.72,2.52,1.08,4,1.08c1.36,0,2.59-0.31,3.69-0.93c0.91-0.51,1.59-1.25,2.12-2.13v2.71h2.22
					v-22.43H440.07z M439.31,288.25c-0.5,0.92-1.18,1.64-2.04,2.18c-0.86,0.53-1.82,0.8-2.89,0.8c-1.07,0-2.02-0.27-2.86-0.8
					c-0.84-0.53-1.5-1.26-1.98-2.18c-0.48-0.92-0.73-1.95-0.73-3.1c0-1.17,0.24-2.2,0.73-3.11c0.48-0.91,1.15-1.63,2-2.16
					c0.85-0.53,1.8-0.8,2.85-0.8c1.06,0,2.03,0.27,2.89,0.8c0.86,0.54,1.54,1.26,2.04,2.18c0.51,0.92,0.76,1.95,0.76,3.1
					S439.82,287.33,439.31,288.25z"/>
			</g>
		</g>
	</g>
</g>
</svg>
