<?xml version="1.0" encoding="utf-8"?>
<!-- Generator: Adobe Illustrator 27.4.1, SVG Export Plug-In . SVG Version: 6.00 Build 0)  -->
<svg version="1.1" id="Layer_1" xmlns="http://www.w3.org/2000/svg" xmlns:xlink="http://www.w3.org/1999/xlink" x="0px" y="0px"
	 viewBox="0 0 500 500" style="enable-background:new 0 0 500 500;" xml:space="preserve">
<style type="text/css">
	.st0{fill:#126090;}
	.st1{fill:#017373;}
	.st2{fill:#116090;}
</style>
<g id="Aseel_Logo_00000065066591950765976240000008125362463060813502_">
	<g id="Aseel_Logo_00000139261445175356326200000009328480312515615373_">
		<g id="Logotype_00000044872323439892619350000009351701438984127128_">
			<g>
				<path class="st1" d="M125.01,275.84l-8.85,25.66h5.06l1.86-5.51H133l1.83,5.51h5.1l-8.85-25.66H125.01z M124.42,291.85
					l3.62-10.82l3.62,10.82H124.42z"/>
				<path class="st1" d="M149.05,286.03c0.94,0,1.79,0.26,2.55,0.76c0.76,0.51,1.3,1.19,1.62,2.03l3.44-1.62
					c-0.57-1.53-1.54-2.73-2.89-3.58c-1.36-0.86-2.92-1.28-4.69-1.28c-1.36,0-2.55,0.24-3.6,0.73c-1.05,0.48-1.86,1.15-2.45,2.01
					c-0.59,0.86-0.88,1.87-0.88,3.02c0,1.29,0.41,2.4,1.22,3.34c0.82,0.94,2.02,1.64,3.6,2.1l3.06,0.86
					c0.39,0.11,0.75,0.26,1.08,0.43c0.33,0.18,0.6,0.38,0.79,0.62c0.2,0.24,0.29,0.55,0.29,0.92c0,0.6-0.24,1.08-0.72,1.45
					c-0.48,0.37-1.14,0.55-1.96,0.55c-1.06,0-2.01-0.3-2.88-0.89s-1.53-1.43-2.02-2.48l-3.37,1.62c0.55,1.63,1.57,2.92,3.05,3.87
					c1.48,0.96,3.22,1.43,5.22,1.43c1.43,0,2.66-0.24,3.72-0.72c1.06-0.48,1.88-1.16,2.48-2.02c0.6-0.86,0.89-1.85,0.89-2.97
					c0-1.33-0.42-2.46-1.26-3.38c-0.84-0.92-2.03-1.61-3.57-2.06l-3-0.9c-0.43-0.13-0.82-0.28-1.15-0.44
					c-0.33-0.16-0.59-0.37-0.77-0.62c-0.19-0.26-0.28-0.55-0.28-0.89c0-0.55,0.22-1,0.65-1.34
					C147.7,286.21,148.3,286.03,149.05,286.03z"/>
				<path class="st1" d="M175.37,285.07c-0.78-0.85-1.73-1.52-2.84-2c-1.11-0.48-2.41-0.73-3.88-0.73c-1.75,0-3.32,0.42-4.74,1.28
					c-1.41,0.85-2.53,2-3.34,3.46c-0.82,1.46-1.22,3.13-1.22,5.01c0,1.82,0.4,3.47,1.21,4.97c0.8,1.49,1.93,2.67,3.37,3.54
					c1.45,0.87,3.14,1.31,5.07,1.31c1.29,0,2.46-0.2,3.53-0.59c1.07-0.39,1.99-0.93,2.77-1.62c0.78-0.69,1.36-1.48,1.72-2.38
					l-3.65-1.79c-0.41,0.74-0.98,1.33-1.71,1.76c-0.72,0.44-1.6,0.66-2.63,0.66c-1.03,0-1.95-0.24-2.74-0.73
					c-0.79-0.48-1.39-1.16-1.79-2.05c-0.23-0.51-0.2-1.17-0.27-1.77h13.31c0.09-0.25,0.16-0.55,0.19-0.89
					c0.04-0.35,0.05-0.68,0.05-1c0-1.26-0.21-2.44-0.62-3.53C176.75,286.89,176.15,285.92,175.37,285.07z M166.14,286.77
					c0.73-0.47,1.57-0.71,2.51-0.71c0.99,0,1.83,0.24,2.53,0.72c0.7,0.48,1.2,1.14,1.51,1.96c0.13,0.35,0.03,0.81,0.07,1.21h-8.44
					c0.07-0.35,0.02-0.81,0.15-1.12C164.85,287.94,165.4,287.24,166.14,286.77z"/>
				<path class="st1" d="M196.45,285.07c-0.78-0.85-1.73-1.52-2.84-2c-1.11-0.48-2.41-0.73-3.88-0.73c-1.75,0-3.32,0.42-4.74,1.28
					c-1.41,0.85-2.53,2-3.34,3.46c-0.82,1.46-1.22,3.13-1.22,5.01c0,1.82,0.4,3.47,1.21,4.97c0.8,1.49,1.93,2.67,3.37,3.54
					c1.45,0.87,3.14,1.31,5.07,1.31c1.28,0,2.46-0.2,3.53-0.59c1.07-0.39,1.99-0.93,2.77-1.62c0.78-0.69,1.36-1.48,1.72-2.38
					l-3.65-1.79c-0.41,0.74-0.98,1.33-1.71,1.76c-0.72,0.44-1.6,0.66-2.63,0.66s-1.95-0.24-2.74-0.73
					c-0.79-0.48-1.39-1.16-1.79-2.05c-0.23-0.51-0.2-1.17-0.27-1.77h13.31c0.09-0.25,0.15-0.55,0.19-0.89
					c0.04-0.35,0.05-0.68,0.05-1c0-1.26-0.21-2.44-0.62-3.53C197.83,286.89,197.23,285.92,196.45,285.07z M187.22,286.77
					c0.73-0.47,1.57-0.71,2.51-0.71c0.99,0,1.83,0.24,2.53,0.72c0.7,0.48,1.2,1.14,1.51,1.96c0.13,0.35,0.03,0.81,0.07,1.21h-8.44
					c0.07-0.35,0.02-0.81,0.15-1.12C185.93,287.94,186.49,287.24,187.22,286.77z"/>
				<rect x="202.28" y="275.42" class="st1" width="4.51" height="26.08"/>
			</g>
			<path class="st1" d="M222.37,306.69v-36.05h1.2v36.05H222.37z"/>
			<path class="st1" d="M254.25,276.99c-1.88-1.05-4.1-1.57-6.65-1.57h-8.44v25.66h8.44c2.55,0,4.76-0.52,6.65-1.59
				c1.88-1.05,3.34-2.54,4.38-4.47c1.03-1.93,1.55-4.19,1.55-6.79c0-2.62-0.52-4.88-1.55-6.8
				C257.59,279.51,256.13,278.03,254.25,276.99z M256.09,293.68c-0.79,1.54-1.91,2.73-3.36,3.56c-1.45,0.84-3.16,1.26-5.13,1.26
				h-5.68v-20.49h5.68c1.95,0,3.65,0.42,5.1,1.25c1.45,0.84,2.57,2.02,3.38,3.55c0.8,1.53,1.2,3.34,1.2,5.42
				C257.28,290.33,256.89,292.14,256.09,293.68z"/>
			<path class="st1" d="M277.8,283.45c-1.41-0.83-3.01-1.25-4.8-1.25c-1.79,0-3.39,0.42-4.81,1.26c-1.41,0.84-2.53,1.98-3.36,3.43
				c-0.83,1.45-1.24,3.09-1.24,4.93c0,1.86,0.42,3.52,1.26,4.98c0.84,1.45,1.97,2.6,3.39,3.44c1.42,0.84,3.01,1.25,4.75,1.25
				c1.72,0,3.29-0.41,4.7-1.24c1.41-0.83,2.54-1.97,3.39-3.42c0.85-1.46,1.27-3.13,1.27-5.01c0-1.87-0.41-3.52-1.22-4.97
				C280.32,285.41,279.21,284.27,277.8,283.45z M278.73,295.43c-0.59,1.08-1.38,1.93-2.38,2.55c-1,0.62-2.12,0.93-3.36,0.93
				c-1.24,0-2.36-0.31-3.36-0.93c-1-0.62-1.8-1.47-2.39-2.55c-0.6-1.08-0.9-2.28-0.9-3.61c0-1.33,0.3-2.53,0.9-3.59
				c0.6-1.06,1.39-1.89,2.39-2.52c1-0.62,2.12-0.93,3.36-0.93c1.24,0,2.36,0.31,3.36,0.93c1,0.63,1.79,1.46,2.38,2.52
				c0.59,1.06,0.88,2.25,0.88,3.59C279.61,293.15,279.31,294.35,278.73,295.43z"/>
			<path class="st1" d="M304.86,290.23h8.89v0.18c0,1.66-0.39,3.11-1.17,4.39c-0.78,1.27-1.84,2.27-3.19,3.02
				c-1.34,0.73-2.85,1.1-4.53,1.1c-1.88,0-3.56-0.44-5.03-1.33c-1.47-0.88-2.62-2.13-3.45-3.73c-0.83-1.61-1.24-3.47-1.24-5.59
				c0-2.13,0.41-4,1.24-5.6c0.82-1.59,1.97-2.84,3.45-3.73c1.47-0.89,3.14-1.34,5.03-1.34c1.88,0,3.49,0.45,4.82,1.34
				c1.33,0.89,2.32,2.13,2.96,3.69l2.48-1.21c-0.41-1.08-1.1-2.11-2.05-3.08c-0.95-0.98-2.13-1.77-3.52-2.4
				c-1.39-0.62-2.96-0.93-4.7-0.93c-1.82,0-3.48,0.33-5,0.98c-1.52,0.65-2.83,1.58-3.95,2.77c-1.11,1.2-1.98,2.6-2.6,4.2
				c-0.62,1.61-0.93,3.38-0.93,5.3c0,1.93,0.31,3.7,0.93,5.31c0.62,1.61,1.49,3,2.6,4.18s2.43,2.1,3.95,2.76
				c1.51,0.65,3.18,0.98,5,0.98c1.63,0,3.15-0.28,4.56-0.84c1.41-0.56,2.64-1.36,3.7-2.4c1.06-1.03,1.88-2.25,2.48-3.67
				c0.6-1.41,0.89-2.96,0.89-4.64v-2.13h-11.64V290.23z"/>
			<path class="st1" d="M334.5,283.45c-1.41-0.83-3.01-1.25-4.8-1.25c-1.79,0-3.39,0.42-4.81,1.26c-1.41,0.84-2.53,1.98-3.36,3.43
				s-1.24,3.09-1.24,4.93c0,1.86,0.42,3.52,1.26,4.98c0.84,1.45,1.97,2.6,3.39,3.44c1.42,0.84,3.01,1.25,4.75,1.25
				c1.72,0,3.29-0.41,4.7-1.24c1.41-0.83,2.54-1.97,3.39-3.42c0.85-1.46,1.27-3.13,1.27-5.01c0-1.87-0.41-3.52-1.22-4.97
				C337.02,285.41,335.91,284.27,334.5,283.45z M335.43,295.43c-0.59,1.08-1.38,1.93-2.38,2.55c-1,0.62-2.12,0.93-3.36,0.93
				c-1.24,0-2.36-0.31-3.36-0.93c-1-0.62-1.8-1.47-2.39-2.55c-0.6-1.08-0.9-2.28-0.9-3.61c0-1.33,0.3-2.53,0.9-3.59
				c0.6-1.06,1.39-1.89,2.39-2.52c1-0.62,2.12-0.93,3.36-0.93c1.24,0,2.36,0.31,3.36,0.93c1,0.63,1.79,1.46,2.38,2.52
				c0.59,1.06,0.88,2.25,0.88,3.59C336.31,293.15,336.01,294.35,335.43,295.43z"/>
			<path class="st1" d="M357.06,283.45c-1.41-0.83-3.01-1.25-4.8-1.25c-1.79,0-3.39,0.42-4.81,1.26c-1.41,0.84-2.53,1.98-3.36,3.43
				s-1.24,3.09-1.24,4.93c0,1.86,0.42,3.52,1.26,4.98c0.84,1.45,1.97,2.6,3.39,3.44c1.42,0.84,3.01,1.25,4.75,1.25
				c1.72,0,3.29-0.41,4.7-1.24c1.41-0.83,2.54-1.97,3.39-3.42c0.85-1.46,1.27-3.13,1.27-5.01c0-1.87-0.41-3.52-1.22-4.97
				C359.58,285.41,358.47,284.27,357.06,283.45z M357.99,295.43c-0.59,1.08-1.38,1.93-2.38,2.55c-1,0.62-2.12,0.93-3.36,0.93
				c-1.24,0-2.36-0.31-3.36-0.93c-1-0.62-1.8-1.47-2.39-2.55c-0.6-1.08-0.9-2.28-0.9-3.61c0-1.33,0.3-2.53,0.9-3.59
				c0.6-1.06,1.39-1.89,2.39-2.52c1-0.62,2.12-0.93,3.36-0.93c1.24,0,2.36,0.31,3.36,0.93c1,0.63,1.79,1.46,2.38,2.52
				c0.59,1.06,0.88,2.25,0.88,3.59C358.87,293.15,358.57,294.35,357.99,295.43z"/>
			<path class="st1" d="M381.26,275.01v10.63c-0.67-0.95-1.45-1.81-2.52-2.4c-1.24-0.69-2.65-1.04-4.24-1.04
				c-1.75,0-3.3,0.42-4.67,1.26c-1.37,0.84-2.45,1.98-3.24,3.43c-0.79,1.45-1.19,3.09-1.19,4.96c0,1.84,0.4,3.49,1.19,4.95
				c0.79,1.45,1.88,2.6,3.26,3.44c1.38,0.84,2.93,1.25,4.65,1.25c1.58,0,3.01-0.36,4.29-1.08c1.06-0.6,1.84-1.46,2.47-2.47v3.15
				h2.58v-26.08H381.26z M380.38,295.45c-0.59,1.07-1.38,1.91-2.37,2.53c-1,0.62-2.12,0.93-3.36,0.93c-1.24,0-2.35-0.31-3.33-0.93
				c-0.98-0.62-1.75-1.46-2.31-2.53c-0.56-1.07-0.84-2.27-0.84-3.6c0-1.36,0.28-2.56,0.84-3.62c0.56-1.06,1.34-1.89,2.32-2.52
				c0.99-0.62,2.09-0.93,3.31-0.93c1.24,0,2.36,0.31,3.36,0.93c1,0.63,1.79,1.47,2.37,2.54c0.59,1.07,0.88,2.27,0.88,3.6
				S380.97,294.38,380.38,295.45z"/>
		</g>
	</g>
	<g id="Symbol_00000094592537154172436520000017856344832334168743_">
		<polygon class="st1" points="251.23,235.43 251.23,224.41 265,238.18 265,249.2 		"/>
		<polygon class="st1" points="264.17,222.48 253.15,222.48 266.93,236.25 277.95,236.25 		"/>
		<polygon class="st1" points="248.77,207.08 248.77,218.1 235,204.33 235,193.31 		"/>
		<polygon class="st1" points="235.83,220.03 246.85,220.03 233.07,206.25 222.05,206.25 		"/>
		<polygon class="st1" points="235.84,222.47 246.85,222.47 233.08,236.25 222.06,236.25 		"/>
		<polygon class="st1" points="248.78,235.42 248.78,224.4 235.01,238.18 235.01,249.2 		"/>
		<polygon class="st1" points="264.16,220.05 253.14,220.05 266.91,206.28 277.93,206.28 		"/>
		<polygon class="st1" points="251.21,207.1 251.21,218.12 264.98,204.35 264.98,193.33 		"/>
		
			<rect x="248.64" y="219.89" transform="matrix(-0.7071 -0.7071 0.7071 -0.7071 270.3286 554.4855)" class="st1" width="2.73" height="2.73"/>
	</g>
</g>
</svg>
