<?xml version="1.0" encoding="utf-8"?>
<!-- Generator: Adobe Illustrator 27.4.1, SVG Export Plug-In . SVG Version: 6.00 Build 0)  -->
<svg version="1.1" id="Layer_1" xmlns="http://www.w3.org/2000/svg" xmlns:xlink="http://www.w3.org/1999/xlink" x="0px" y="0px"
	 viewBox="0 0 500 500" style="enable-background:new 0 0 500 500;" xml:space="preserve">
<style type="text/css">
	.st0{fill:#126090;}
	.st1{fill:#017373;}
	.st2{fill:#116090;}
</style>
<g id="Symbol_00000182501145458830846300000011132376519888498819_">
	<polygon class="st0" points="229.57,251.71 245.44,251.71 225.6,271.56 209.72,271.56 	"/>
	<polygon class="st0" points="248.29,270.43 248.29,254.56 228.44,274.4 228.44,290.28 	"/>
	<polygon class="st0" points="270.43,248.29 254.56,248.29 274.4,228.44 290.28,228.44 	"/>
	<polygon class="st0" points="251.71,229.57 251.71,245.44 271.56,225.6 271.56,209.72 	"/>
	<polygon class="st0" points="248.29,229.57 248.29,245.44 228.44,225.6 228.44,209.72 	"/>
	<polygon class="st0" points="229.57,248.29 245.44,248.29 225.6,228.44 209.72,228.44 	"/>
	<polygon class="st0" points="251.71,270.43 251.71,254.56 271.56,274.4 271.56,290.28 	"/>
	<polygon class="st0" points="270.43,251.71 254.56,251.71 274.4,271.56 290.28,271.56 	"/>
	
		<rect x="247.99" y="247.99" transform="matrix(0.7071 -0.7071 0.7071 0.7071 -103.5534 250)" class="st0" width="4.03" height="4.03"/>
</g>
</svg>
