<?xml version="1.0" encoding="utf-8"?>
<!-- Generator: Adobe Illustrator 28.0.0, SVG Export Plug-In . SVG Version: 6.00 Build 0)  -->
<svg version="1.1" id="Layer_1" xmlns="http://www.w3.org/2000/svg" xmlns:xlink="http://www.w3.org/1999/xlink" x="0px" y="0px"
	 viewBox="0 0 253 80.6" style="enable-background:new 0 0 253 80.6;" xml:space="preserve">
<style type="text/css">
	.st0{fill:#017373;}
</style>
<g id="Aseel_Logo_00000049204280331669366950000014705555470602675372_">
	<g id="Symbol_00000116204404924540317270000016243961347141234864_">
		<polygon class="st0" points="19.8,42 35.7,42 15.9,61.8 0,61.8 		"/>
		<polygon class="st0" points="38.6,60.7 38.6,44.8 18.7,64.7 18.7,80.6 		"/>
		<polygon class="st0" points="60.7,38.6 44.8,38.6 64.7,18.7 80.6,18.7 		"/>
		<polygon class="st0" points="42,19.8 42,35.7 61.8,15.9 61.8,0 		"/>
		<polygon class="st0" points="38.6,19.8 38.6,35.7 18.7,15.9 18.7,0 		"/>
		<polygon class="st0" points="19.8,38.6 35.7,38.6 15.9,18.7 0,18.7 		"/>
		<polygon class="st0" points="42,60.7 42,44.8 61.8,64.7 61.8,80.6 		"/>
		<polygon class="st0" points="60.7,42 44.8,42 64.7,61.8 80.6,61.8 		"/>
		<rect x="38.3" y="38.3" transform="matrix(0.7071 -0.7071 0.7071 0.7071 -16.6856 40.2827)" class="st0" width="4" height="4"/>
	</g>
	<g id="Logotype_00000065793312120342659730000008660955103880165012_">
		<g id="Aseel_00000087414659024909452190000003423605564248483475_">
			<path class="st0" d="M107,5.1L91.1,50.9h9l3.3-9.8h17.7l3.3,9.8h9.1L117.8,5.1H107z M105.9,33.7l6.5-19.3l6.5,19.3H105.9z"/>
			<path class="st0" d="M149.9,22.6c1.7,0,3.2,0.4,4.6,1.4c1.4,0.9,2.3,2.1,2.9,3.6l6.2-2.9c-1-2.7-2.7-4.9-5.2-6.4
				c-2.4-1.5-5.2-2.3-8.4-2.3c-2.4,0-4.6,0.4-6.4,1.3c-1.9,0.9-3.3,2.1-4.4,3.6c-1,1.5-1.6,3.3-1.6,5.4c0,2.3,0.7,4.3,2.2,6
				c1.5,1.7,3.6,2.9,6.4,3.8l5.5,1.5c0.7,0.2,1.3,0.5,1.9,0.8c0.6,0.3,1.1,0.7,1.4,1.1c0.3,0.4,0.5,1,0.5,1.6c0,1.1-0.4,1.9-1.3,2.6
				c-0.9,0.7-2,1-3.5,1c-1.9,0-3.6-0.5-5.1-1.6s-2.7-2.5-3.6-4.4l-6,2.9c1,2.9,2.8,5.2,5.4,6.9c2.6,1.7,5.7,2.6,9.3,2.6
				c2.5,0,4.8-0.4,6.6-1.3c1.9-0.9,3.4-2.1,4.4-3.6c1.1-1.5,1.6-3.3,1.6-5.3c0-2.4-0.7-4.4-2.2-6c-1.5-1.6-3.6-2.9-6.4-3.7l-5.4-1.6
				c-0.8-0.2-1.5-0.5-2.1-0.8c-0.6-0.3-1.1-0.7-1.4-1.1c-0.3-0.4-0.5-1-0.5-1.6c0-1,0.4-1.8,1.2-2.4
				C147.5,22.9,148.5,22.6,149.9,22.6z"/>
			<path class="st0" d="M196.9,20.9c-1.4-1.5-3.1-2.7-5.1-3.6c-2-0.9-4.3-1.3-6.9-1.3c-3.1,0-5.9,0.8-8.5,2.3
				c-2.5,1.5-4.5,3.6-6,6.2s-2.2,5.6-2.2,8.9c0,3.2,0.7,6.2,2.2,8.9s3.4,4.8,6,6.3c2.6,1.6,5.6,2.3,9,2.3c2.3,0,4.4-0.3,6.3-1
				c1.9-0.7,3.6-1.7,5-2.9c1.4-1.2,2.4-2.6,3.1-4.2l-6.5-3.2c-0.7,1.3-1.8,2.4-3,3.1c-1.3,0.8-2.9,1.2-4.7,1.2s-3.5-0.4-4.9-1.3
				c-1.4-0.9-2.5-2.1-3.2-3.7c-0.4-1-0.7-2-0.8-3.2h24.1c0.2-0.5,0.3-1,0.3-1.6c0.1-0.6,0.1-1.2,0.1-1.8c0-2.3-0.4-4.4-1.1-6.3
				C199.3,24.1,198.3,22.4,196.9,20.9z M180.4,23.9c1.3-0.8,2.8-1.3,4.5-1.3c1.8,0,3.3,0.4,4.5,1.3c1.3,0.9,2.2,2,2.7,3.5
				c0.3,0.7,0.4,1.4,0.5,2.2h-15.7c0.1-0.7,0.3-1.4,0.5-2C178.1,26,179.1,24.8,180.4,23.9z"/>
			<path class="st0" d="M234.5,20.9c-1.4-1.5-3.1-2.7-5.1-3.6c-2-0.9-4.3-1.3-6.9-1.3c-3.1,0-5.9,0.8-8.5,2.3
				c-2.5,1.5-4.5,3.6-6,6.2s-2.2,5.6-2.2,8.9c0,3.2,0.7,6.2,2.2,8.9c1.4,2.7,3.4,4.8,6,6.3c2.6,1.6,5.6,2.3,9,2.3
				c2.3,0,4.4-0.3,6.3-1c1.9-0.7,3.6-1.7,5-2.9c1.4-1.2,2.4-2.6,3.1-4.2l-6.5-3.2c-0.7,1.3-1.8,2.4-3,3.1c-1.3,0.8-2.9,1.2-4.7,1.2
				c-1.8,0-3.5-0.4-4.9-1.3c-1.4-0.9-2.5-2.1-3.2-3.7c-0.4-1-0.7-2-0.8-3.2h24.1c0.2-0.5,0.3-1,0.3-1.6c0.1-0.6,0.1-1.2,0.1-1.8
				c0-2.3-0.4-4.4-1.1-6.3C237,24.1,235.9,22.4,234.5,20.9z M218,23.9c1.3-0.8,2.8-1.3,4.5-1.3c1.8,0,3.3,0.4,4.5,1.3
				c1.3,0.9,2.2,2,2.7,3.5c0.3,0.7,0.4,1.4,0.5,2.2h-15.7c0.1-0.7,0.3-1.4,0.5-2C215.7,26,216.7,24.8,218,23.9z"/>
			<rect x="244.9" y="5.1" class="st0" width="8.1" height="45.8"/>
		</g>
		<g id="Slogan_00000034782999324921038240000015101731559659391406_">
			<path class="st0" d="M91.1,75.2V62.4h5.4c0.7,0,1.3,0.1,1.9,0.4c0.5,0.3,0.9,0.6,1.2,1.1s0.4,1,0.4,1.7c0,0.7-0.2,1.3-0.5,1.8
				c-0.3,0.5-0.8,0.9-1.4,1.2l0-0.4c0.5,0.2,0.9,0.4,1.3,0.8c0.4,0.3,0.6,0.7,0.8,1.2c0.2,0.4,0.3,0.9,0.3,1.4
				c0,1.1-0.4,2.1-1.1,2.7c-0.7,0.7-1.7,1-3,1H91.1z M92.5,67.8h3.9c0.7,0,1.2-0.2,1.7-0.6c0.4-0.4,0.6-0.9,0.6-1.5
				c0-0.6-0.2-1.1-0.6-1.5c-0.4-0.3-1-0.5-1.7-0.5h-3.9V67.8z M92.5,73.9h4c0.8,0,1.5-0.2,2-0.6c0.5-0.4,0.7-1,0.7-1.8
				c0-0.7-0.2-1.3-0.7-1.8c-0.5-0.4-1.1-0.7-2-0.7h-4V73.9z"/>
			<path class="st0" d="M106.1,75.4c-0.6,0-1.2-0.2-1.8-0.5c-0.5-0.3-0.9-0.7-1.2-1.3c-0.3-0.5-0.5-1.2-0.5-1.9V66h1.3v5.7
				c0,0.5,0.1,0.9,0.3,1.3c0.2,0.4,0.5,0.7,0.8,0.9c0.4,0.2,0.8,0.3,1.2,0.3c0.5,0,0.9-0.1,1.3-0.3c0.4-0.2,0.7-0.5,0.9-0.9
				c0.2-0.4,0.3-0.9,0.3-1.4V66h1.3v9.2h-1.3v-1.8l0.3,0.1c-0.2,0.6-0.6,1.1-1.1,1.4C107.4,75.2,106.8,75.4,106.1,75.4z"/>
			<path class="st0" d="M112.9,79c-0.2,0-0.4,0-0.6,0c-0.2,0-0.4-0.1-0.6-0.1v-1.2c0.1,0,0.3,0,0.4,0.1c0.2,0,0.4,0,0.5,0
				c0.6,0,1-0.1,1.3-0.4c0.3-0.2,0.6-0.7,0.9-1.3l0.6-1.4l0,1.1l-3.9-9.8h1.4l3.2,8.1h-0.4L119,66h1.4l-4.2,10.4
				c-0.2,0.4-0.4,0.9-0.7,1.3c-0.3,0.4-0.6,0.7-1.1,1C114,78.9,113.5,79,112.9,79z"/>
			<path class="st0" d="M130.9,75.4c-0.9,0-1.7-0.2-2.5-0.5c-0.8-0.3-1.4-0.8-2-1.4c-0.6-0.6-1-1.3-1.3-2.1
				c-0.3-0.8-0.5-1.7-0.5-2.6s0.2-1.8,0.5-2.6c0.3-0.8,0.7-1.5,1.3-2.1c0.6-0.6,1.2-1.1,2-1.4c0.8-0.3,1.6-0.5,2.5-0.5
				c0.9,0,1.7,0.2,2.3,0.5c0.7,0.3,1.3,0.7,1.8,1.2c0.5,0.5,0.8,1,1,1.5l-1.2,0.6c-0.3-0.8-0.8-1.4-1.5-1.8
				c-0.7-0.4-1.5-0.7-2.4-0.7s-1.8,0.2-2.5,0.7c-0.7,0.4-1.3,1.1-1.7,1.9c-0.4,0.8-0.6,1.7-0.6,2.8c0,1.1,0.2,2,0.6,2.8
				c0.4,0.8,1,1.4,1.7,1.9c0.7,0.4,1.6,0.7,2.5,0.7c0.8,0,1.6-0.2,2.3-0.5c0.7-0.4,1.2-0.9,1.6-1.5c0.4-0.6,0.6-1.4,0.6-2.2v-0.7
				l0.6,0.6h-5.1v-1.2h5.8v1.1c0,0.8-0.2,1.6-0.4,2.3c-0.3,0.7-0.7,1.3-1.2,1.8c-0.5,0.5-1.1,0.9-1.9,1.2
				C132.5,75.3,131.7,75.4,130.9,75.4z"/>
			<path class="st0" d="M143.3,75.4c-0.9,0-1.7-0.2-2.4-0.6c-0.7-0.4-1.3-1-1.7-1.7c-0.4-0.7-0.6-1.6-0.6-2.5c0-0.9,0.2-1.7,0.6-2.5
				c0.4-0.7,1-1.3,1.7-1.7c0.7-0.4,1.5-0.6,2.4-0.6s1.7,0.2,2.4,0.6c0.7,0.4,1.3,1,1.7,1.7c0.4,0.7,0.6,1.5,0.6,2.5
				c0,0.9-0.2,1.8-0.6,2.5c-0.4,0.7-1,1.3-1.7,1.7C144.9,75.2,144.2,75.4,143.3,75.4z M143.3,74.1c0.6,0,1.2-0.2,1.7-0.5
				c0.5-0.3,0.9-0.7,1.2-1.3c0.3-0.5,0.4-1.1,0.4-1.8s-0.1-1.3-0.4-1.8c-0.3-0.5-0.7-0.9-1.2-1.3c-0.5-0.3-1.1-0.5-1.7-0.5
				s-1.2,0.2-1.7,0.5c-0.5,0.3-0.9,0.7-1.2,1.3c-0.3,0.5-0.4,1.1-0.4,1.8s0.1,1.3,0.4,1.8c0.3,0.5,0.7,1,1.2,1.3
				C142.1,74,142.7,74.1,143.3,74.1z"/>
			<path class="st0" d="M154.6,75.4c-0.9,0-1.7-0.2-2.4-0.6c-0.7-0.4-1.3-1-1.7-1.7c-0.4-0.7-0.6-1.6-0.6-2.5c0-0.9,0.2-1.7,0.6-2.5
				c0.4-0.7,1-1.3,1.7-1.7c0.7-0.4,1.5-0.6,2.4-0.6s1.7,0.2,2.4,0.6c0.7,0.4,1.3,1,1.7,1.7c0.4,0.7,0.6,1.5,0.6,2.5
				c0,0.9-0.2,1.8-0.6,2.5c-0.4,0.7-1,1.3-1.7,1.7C156.2,75.2,155.4,75.4,154.6,75.4z M154.6,74.1c0.6,0,1.2-0.2,1.7-0.5
				c0.5-0.3,0.9-0.7,1.2-1.3c0.3-0.5,0.4-1.1,0.4-1.8s-0.1-1.3-0.4-1.8c-0.3-0.5-0.7-0.9-1.2-1.3c-0.5-0.3-1.1-0.5-1.7-0.5
				c-0.6,0-1.2,0.2-1.7,0.5c-0.5,0.3-0.9,0.7-1.2,1.3c-0.3,0.5-0.4,1.1-0.4,1.8s0.1,1.3,0.4,1.8c0.3,0.5,0.7,1,1.2,1.3
				C153.4,74,154,74.1,154.6,74.1z"/>
			<path class="st0" d="M165.7,75.4c-0.9,0-1.6-0.2-2.3-0.6c-0.7-0.4-1.2-1-1.6-1.7c-0.4-0.7-0.6-1.6-0.6-2.5c0-0.9,0.2-1.8,0.6-2.5
				c0.4-0.7,0.9-1.3,1.6-1.7c0.7-0.4,1.5-0.6,2.3-0.6c0.8,0,1.5,0.2,2.1,0.5c0.6,0.3,1.1,0.8,1.5,1.4L169,68v-5.9h1.3v13H169v-2.1
				l0.2,0.2c-0.3,0.7-0.8,1.2-1.4,1.5C167.2,75.2,166.5,75.4,165.7,75.4z M165.7,74.1c0.6,0,1.2-0.2,1.7-0.5
				c0.5-0.3,0.9-0.7,1.2-1.3c0.3-0.5,0.4-1.1,0.4-1.8s-0.1-1.3-0.4-1.8c-0.3-0.5-0.7-1-1.2-1.3c-0.5-0.3-1.1-0.5-1.7-0.5
				c-0.6,0-1.2,0.2-1.7,0.5c-0.5,0.3-0.9,0.7-1.2,1.3c-0.3,0.5-0.4,1.1-0.4,1.8c0,0.7,0.1,1.3,0.4,1.8c0.3,0.5,0.7,1,1.2,1.3
				C164.6,74,165.1,74.1,165.7,74.1z"/>
			<path class="st0" d="M173,77.4v-0.6c0.3-0.1,0.6-0.3,0.8-0.5c0.2-0.3,0.2-0.6,0.2-1.1h-0.7v-1.9h1.4v1.4c0,0.7-0.1,1.3-0.4,1.8
				C174,77,173.6,77.3,173,77.4z"/>
			<path class="st0" d="M180.7,75.2V62.4h4.2c1.3,0,2.4,0.3,3.3,0.8c0.9,0.5,1.7,1.3,2.2,2.2c0.5,1,0.8,2.1,0.8,3.4
				c0,1.3-0.3,2.4-0.8,3.4c-0.5,1-1.2,1.7-2.2,2.2c-0.9,0.5-2,0.8-3.3,0.8H180.7z M182.1,73.9h2.8c1,0,1.8-0.2,2.6-0.6
				c0.7-0.4,1.3-1,1.7-1.8c0.4-0.8,0.6-1.7,0.6-2.7s-0.2-1.9-0.6-2.7c-0.4-0.8-1-1.4-1.7-1.8c-0.7-0.4-1.6-0.6-2.5-0.6h-2.8V73.9z"
				/>
			<path class="st0" d="M197.6,75.4c-0.9,0-1.7-0.2-2.4-0.6c-0.7-0.4-1.3-1-1.7-1.7c-0.4-0.7-0.6-1.6-0.6-2.5c0-0.9,0.2-1.7,0.6-2.5
				c0.4-0.7,1-1.3,1.7-1.7c0.7-0.4,1.5-0.6,2.4-0.6s1.7,0.2,2.4,0.6c0.7,0.4,1.3,1,1.7,1.7c0.4,0.7,0.6,1.5,0.6,2.5
				c0,0.9-0.2,1.8-0.6,2.5c-0.4,0.7-1,1.3-1.7,1.7C199.3,75.2,198.5,75.4,197.6,75.4z M197.6,74.1c0.6,0,1.2-0.2,1.7-0.5
				c0.5-0.3,0.9-0.7,1.2-1.3c0.3-0.5,0.4-1.1,0.4-1.8s-0.1-1.3-0.4-1.8c-0.3-0.5-0.7-0.9-1.2-1.3c-0.5-0.3-1.1-0.5-1.7-0.5
				c-0.6,0-1.2,0.2-1.7,0.5c-0.5,0.3-0.9,0.7-1.2,1.3c-0.3,0.5-0.4,1.1-0.4,1.8s0.1,1.3,0.4,1.8c0.3,0.5,0.7,1,1.2,1.3
				C196.5,74,197,74.1,197.6,74.1z"/>
			<path class="st0" d="M213.5,75.4c-0.9,0-1.7-0.2-2.5-0.5c-0.8-0.3-1.4-0.8-2-1.4c-0.6-0.6-1-1.3-1.3-2.1
				c-0.3-0.8-0.5-1.7-0.5-2.6s0.2-1.8,0.5-2.6c0.3-0.8,0.7-1.5,1.3-2.1c0.6-0.6,1.2-1.1,2-1.4c0.8-0.3,1.6-0.5,2.5-0.5
				c0.9,0,1.7,0.2,2.3,0.5c0.7,0.3,1.3,0.7,1.8,1.2c0.5,0.5,0.8,1,1,1.5l-1.2,0.6c-0.3-0.8-0.8-1.4-1.5-1.8
				c-0.7-0.4-1.5-0.7-2.4-0.7s-1.8,0.2-2.5,0.7c-0.7,0.4-1.3,1.1-1.7,1.9c-0.4,0.8-0.6,1.7-0.6,2.8c0,1.1,0.2,2,0.6,2.8
				c0.4,0.8,1,1.4,1.7,1.9c0.7,0.4,1.6,0.7,2.5,0.7c0.8,0,1.6-0.2,2.3-0.5c0.7-0.4,1.2-0.9,1.6-1.5c0.4-0.6,0.6-1.4,0.6-2.2v-0.7
				l0.6,0.6h-5.1v-1.2h5.8v1.1c0,0.8-0.2,1.6-0.4,2.3c-0.3,0.7-0.7,1.3-1.2,1.8c-0.5,0.5-1.1,0.9-1.9,1.2
				C215.1,75.3,214.4,75.4,213.5,75.4z"/>
			<path class="st0" d="M225.9,75.4c-0.9,0-1.7-0.2-2.4-0.6c-0.7-0.4-1.3-1-1.7-1.7c-0.4-0.7-0.6-1.6-0.6-2.5c0-0.9,0.2-1.7,0.6-2.5
				c0.4-0.7,1-1.3,1.7-1.7c0.7-0.4,1.5-0.6,2.4-0.6s1.7,0.2,2.4,0.6c0.7,0.4,1.3,1,1.7,1.7c0.4,0.7,0.6,1.5,0.6,2.5
				c0,0.9-0.2,1.8-0.6,2.5c-0.4,0.7-1,1.3-1.7,1.7C227.6,75.2,226.8,75.4,225.9,75.4z M225.9,74.1c0.6,0,1.2-0.2,1.7-0.5
				c0.5-0.3,0.9-0.7,1.2-1.3c0.3-0.5,0.4-1.1,0.4-1.8s-0.1-1.3-0.4-1.8c-0.3-0.5-0.7-0.9-1.2-1.3c-0.5-0.3-1.1-0.5-1.7-0.5
				c-0.6,0-1.2,0.2-1.7,0.5c-0.5,0.3-0.9,0.7-1.2,1.3c-0.3,0.5-0.4,1.1-0.4,1.8s0.1,1.3,0.4,1.8c0.3,0.5,0.7,1,1.2,1.3
				C224.8,74,225.3,74.1,225.9,74.1z"/>
			<path class="st0" d="M237.2,75.4c-0.9,0-1.7-0.2-2.4-0.6c-0.7-0.4-1.3-1-1.7-1.7c-0.4-0.7-0.6-1.6-0.6-2.5c0-0.9,0.2-1.7,0.6-2.5
				c0.4-0.7,1-1.3,1.7-1.7c0.7-0.4,1.5-0.6,2.4-0.6s1.7,0.2,2.4,0.6c0.7,0.4,1.3,1,1.7,1.7c0.4,0.7,0.6,1.5,0.6,2.5
				c0,0.9-0.2,1.8-0.6,2.5c-0.4,0.7-1,1.3-1.7,1.7C238.8,75.2,238.1,75.4,237.2,75.4z M237.2,74.1c0.6,0,1.2-0.2,1.7-0.5
				c0.5-0.3,0.9-0.7,1.2-1.3c0.3-0.5,0.4-1.1,0.4-1.8s-0.1-1.3-0.4-1.8c-0.3-0.5-0.7-0.9-1.2-1.3c-0.5-0.3-1.1-0.5-1.7-0.5
				c-0.6,0-1.2,0.2-1.7,0.5c-0.5,0.3-0.9,0.7-1.2,1.3c-0.3,0.5-0.4,1.1-0.4,1.8s0.1,1.3,0.4,1.8c0.3,0.5,0.7,1,1.2,1.3
				C236,74,236.6,74.1,237.2,74.1z"/>
			<path class="st0" d="M248.3,75.4c-0.9,0-1.6-0.2-2.3-0.6c-0.7-0.4-1.2-1-1.6-1.7c-0.4-0.7-0.6-1.6-0.6-2.5c0-0.9,0.2-1.8,0.6-2.5
				c0.4-0.7,0.9-1.3,1.6-1.7c0.7-0.4,1.5-0.6,2.3-0.6c0.8,0,1.5,0.2,2.1,0.5c0.6,0.3,1.1,0.8,1.5,1.4l-0.2,0.4v-5.9h1.3v13h-1.3
				v-2.1l0.2,0.2c-0.3,0.7-0.8,1.2-1.4,1.5C249.8,75.2,249.1,75.4,248.3,75.4z M248.4,74.1c0.6,0,1.2-0.2,1.7-0.5
				c0.5-0.3,0.9-0.7,1.2-1.3c0.3-0.5,0.4-1.1,0.4-1.8s-0.1-1.3-0.4-1.8c-0.3-0.5-0.7-1-1.2-1.3c-0.5-0.3-1.1-0.5-1.7-0.5
				c-0.6,0-1.2,0.2-1.7,0.5c-0.5,0.3-0.9,0.7-1.2,1.3c-0.3,0.5-0.4,1.1-0.4,1.8c0,0.7,0.1,1.3,0.4,1.8c0.3,0.5,0.7,1,1.2,1.3
				C247.2,74,247.8,74.1,248.4,74.1z"/>
		</g>
	</g>
</g>
</svg>
