<?xml version="1.0" encoding="utf-8"?>
<!-- Generator: Adobe Illustrator 27.4.1, SVG Export Plug-In . SVG Version: 6.00 Build 0)  -->
<svg version="1.1" id="Layer_1" xmlns="http://www.w3.org/2000/svg" xmlns:xlink="http://www.w3.org/1999/xlink" x="0px" y="0px"
	 viewBox="0 0 500 500" style="enable-background:new 0 0 500 500;" xml:space="preserve">
<style type="text/css">
	.st0{fill:#126090;}
	.st1{fill:#017373;}
	.st2{fill:#116090;}
</style>
<g id="Aseel_Logo_00000168093636355068846810000004403591852026269370_">
	<g id="Symbol_00000026162474415886954790000016098140241973428380_">
		<polygon class="st2" points="51.24,257.88 51.24,251.75 58.89,259.41 58.89,265.53 		"/>
		<polygon class="st2" points="58.43,250.68 52.31,250.68 59.96,258.33 66.09,258.33 		"/>
		<polygon class="st2" points="49.87,242.12 49.87,248.25 42.22,240.59 42.22,234.47 		"/>
		<polygon class="st2" points="42.68,249.32 48.8,249.32 41.15,241.66 35.02,241.66 		"/>
		<polygon class="st2" points="42.68,250.68 48.81,250.68 41.15,258.33 35.03,258.33 		"/>
		<polygon class="st2" points="49.88,257.87 49.88,251.75 42.22,259.4 42.22,265.53 		"/>
		<polygon class="st2" points="58.42,249.33 52.3,249.33 59.95,241.67 66.08,241.67 		"/>
		<polygon class="st2" points="51.23,242.13 51.23,248.26 58.88,240.6 58.88,234.48 		"/>
		
			<rect x="49.8" y="249.24" transform="matrix(-0.7071 -0.7071 0.7071 -0.7071 -90.4728 462.5249)" class="st2" width="1.52" height="1.52"/>
	</g>
	<g id="Aseel_Logo_00000019655136771913624990000005005139072739496371_">
		<g id="Logotype_00000029039398117425861450000016323374072055515583_">
			<g>
				<path class="st0" d="M82.48,237.95l-7.72,22.39h4.42l1.62-4.81h8.66l1.59,4.81h4.45l-7.72-22.39H82.48z M81.97,251.92l3.16-9.44
					l3.16,9.44H81.97z"/>
				<path class="st0" d="M103.47,246.84c0.82,0,1.56,0.22,2.23,0.66c0.66,0.44,1.13,1.03,1.41,1.77l3.01-1.41
					c-0.5-1.34-1.34-2.39-2.52-3.12c-1.18-0.75-2.54-1.12-4.09-1.12c-1.18,0-2.23,0.21-3.14,0.63c-0.91,0.42-1.62,1-2.13,1.76
					c-0.51,0.75-0.77,1.63-0.77,2.63c0,1.13,0.35,2.09,1.07,2.92c0.71,0.82,1.76,1.43,3.14,1.83l2.67,0.75
					c0.34,0.1,0.65,0.23,0.94,0.38c0.29,0.15,0.52,0.33,0.69,0.54c0.17,0.21,0.26,0.48,0.26,0.8c0,0.52-0.21,0.94-0.63,1.26
					c-0.42,0.32-0.99,0.48-1.71,0.48c-0.92,0-1.76-0.26-2.51-0.78c-0.75-0.52-1.34-1.24-1.76-2.17l-2.94,1.42
					c0.48,1.42,1.37,2.55,2.66,3.38c1.29,0.83,2.81,1.25,4.55,1.25c1.24,0,2.32-0.21,3.25-0.63c0.92-0.42,1.64-1.01,2.17-1.76
					c0.52-0.75,0.78-1.62,0.78-2.6c0-1.16-0.37-2.15-1.1-2.95c-0.73-0.8-1.77-1.4-3.11-1.8l-2.62-0.79
					c-0.38-0.12-0.72-0.25-1.01-0.39c-0.29-0.14-0.52-0.32-0.68-0.54c-0.16-0.22-0.24-0.48-0.24-0.78c0-0.48,0.19-0.88,0.57-1.17
					C102.28,247,102.81,246.84,103.47,246.84z"/>
				<path class="st0" d="M126.43,246c-0.68-0.74-1.51-1.33-2.48-1.74c-0.97-0.42-2.1-0.63-3.38-0.63c-1.52,0-2.9,0.37-4.13,1.12
					c-1.23,0.74-2.2,1.75-2.91,3.02c-0.71,1.27-1.07,2.73-1.07,4.37c0,1.59,0.35,3.03,1.05,4.33c0.7,1.3,1.68,2.33,2.94,3.09
					c1.26,0.76,2.74,1.14,4.42,1.14c1.12,0,2.15-0.17,3.08-0.51c0.93-0.34,1.74-0.81,2.42-1.41c0.68-0.6,1.18-1.29,1.5-2.08
					l-3.19-1.56c-0.36,0.65-0.86,1.16-1.49,1.53c-0.63,0.38-1.4,0.58-2.3,0.58s-1.7-0.21-2.39-0.63c-0.69-0.42-1.21-1.02-1.56-1.79
					c-0.2-0.45-0.18-1.02-0.24-1.54h11.61c0.08-0.22,0.14-0.48,0.16-0.78c0.03-0.31,0.05-0.59,0.05-0.87c0-1.1-0.18-2.13-0.54-3.08
					C127.64,247.59,127.11,246.74,126.43,246z M118.38,247.49c0.64-0.41,1.37-0.62,2.19-0.62c0.86,0,1.6,0.21,2.21,0.63
					c0.61,0.42,1.05,0.99,1.32,1.71c0.12,0.31,0.02,0.71,0.06,1.05h-7.37c0.07-0.31,0.01-0.71,0.13-0.98
					C117.25,248.5,117.73,247.9,118.38,247.49z"/>
				<path class="st0" d="M144.83,246c-0.68-0.74-1.51-1.33-2.48-1.74c-0.97-0.42-2.1-0.63-3.38-0.63c-1.52,0-2.9,0.37-4.13,1.12
					c-1.23,0.74-2.2,1.75-2.92,3.02c-0.71,1.27-1.07,2.73-1.07,4.37c0,1.59,0.35,3.03,1.05,4.33c0.7,1.3,1.68,2.33,2.94,3.09
					c1.26,0.76,2.74,1.14,4.42,1.14c1.12,0,2.15-0.17,3.08-0.51c0.93-0.34,1.74-0.81,2.42-1.41c0.68-0.6,1.18-1.29,1.5-2.08
					l-3.19-1.56c-0.36,0.65-0.86,1.16-1.49,1.53c-0.63,0.38-1.4,0.58-2.3,0.58c-0.9,0-1.7-0.21-2.39-0.63
					c-0.69-0.42-1.21-1.02-1.56-1.79c-0.2-0.45-0.18-1.02-0.24-1.54h11.61c0.08-0.22,0.13-0.48,0.16-0.78
					c0.03-0.31,0.05-0.59,0.05-0.87c0-1.1-0.18-2.13-0.54-3.08C146.03,247.59,145.51,246.74,144.83,246z M136.77,247.49
					c0.64-0.41,1.37-0.62,2.19-0.62c0.86,0,1.6,0.21,2.21,0.63c0.61,0.42,1.05,0.99,1.32,1.71c0.12,0.31,0.02,0.71,0.06,1.05h-7.37
					c0.06-0.31,0.01-0.71,0.13-0.98C135.65,248.5,136.13,247.9,136.77,247.49z"/>
				<rect x="149.91" y="237.58" class="st0" width="3.94" height="22.76"/>
			</g>
			<path class="st0" d="M167.45,264.87v-31.46h1.05v31.46H167.45z"/>
			<g>
				<path class="st0" d="M196.67,248.94c-0.46-0.42-1.06-0.7-1.66-0.98c0.76-0.43,1.42-0.97,1.87-1.68
					c0.57-0.89,0.86-1.92,0.86-3.08c0-1.12-0.26-2.1-0.77-2.95c-0.51-0.84-1.23-1.5-2.16-1.97c-0.93-0.47-2.03-0.7-3.29-0.7h-9.41
					v22.39h9.44c2.18,0,3.91-0.59,5.19-1.76c1.27-1.17,1.91-2.76,1.91-4.76c0-0.88-0.17-1.71-0.51-2.48
					C197.78,250.2,197.3,249.53,196.67,248.94z M184.51,239.84h6.83c1.2,0,2.17,0.29,2.9,0.89c0.73,0.59,1.1,1.44,1.1,2.57
					c0,1.1-0.37,2.01-1.1,2.71c-0.73,0.71-1.7,1.05-2.9,1.05h-6.83V239.84z M194.95,256.6c-0.85,0.75-1.99,1.13-3.41,1.13h-7.03
					v-8.51h7.03c1.42,0,2.56,0.39,3.41,1.16c0.85,0.77,1.28,1.81,1.28,3.11C196.23,254.8,195.81,255.84,194.95,256.6z"/>
				<path class="st0" d="M212.94,253.45c0,0.96-0.18,1.79-0.54,2.48c-0.36,0.69-0.86,1.23-1.5,1.6c-0.64,0.37-1.37,0.55-2.2,0.55
					s-1.55-0.18-2.18-0.54c-0.63-0.36-1.12-0.86-1.47-1.51c-0.35-0.65-0.53-1.41-0.53-2.27v-9.89h-2.25v10.16
					c0,1.25,0.26,2.34,0.8,3.29c0.53,0.95,1.26,1.69,2.18,2.23c0.92,0.53,1.94,0.79,3.06,0.79c1.2,0,2.26-0.3,3.19-0.9
					c0.62-0.41,1.07-0.94,1.44-1.54v2.08h2.25v-16.11h-2.25V253.45z"/>
				<path class="st0" d="M225.56,257.16l-5.28-13.3h-2.43l6.44,16.12l-0.58,1.37c-0.5,1.16-1.01,1.94-1.53,2.35
					c-0.52,0.41-1.27,0.62-2.25,0.62c-0.32,0-0.64-0.02-0.95-0.07c-0.31-0.05-0.57-0.09-0.77-0.11v2.1
					c0.32,0.12,0.65,0.21,0.97,0.26c0.33,0.05,0.66,0.07,0.98,0.07c1.06,0,1.96-0.21,2.71-0.65c0.74-0.43,1.36-1,1.85-1.7
					c0.49-0.7,0.9-1.45,1.22-2.22l7.37-18.15h-2.5L225.56,257.16z"/>
				<path class="st0" d="M251.6,250.51h7.76v0.15c0,1.45-0.34,2.72-1.02,3.83c-0.68,1.11-1.61,1.98-2.78,2.63
					c-1.17,0.64-2.49,0.96-3.95,0.96c-1.64,0-3.11-0.38-4.39-1.16c-1.28-0.77-2.29-1.86-3.01-3.26c-0.72-1.4-1.08-3.03-1.08-4.87
					c0-1.86,0.36-3.49,1.08-4.88c0.72-1.39,1.72-2.48,3.01-3.26c1.28-0.78,2.74-1.17,4.39-1.17c1.64,0,3.04,0.39,4.21,1.17
					c1.16,0.78,2.03,1.86,2.59,3.22l2.16-1.06c-0.36-0.94-0.96-1.84-1.79-2.69c-0.83-0.85-1.86-1.55-3.07-2.09
					c-1.21-0.54-2.58-0.81-4.1-0.81c-1.59,0-3.04,0.29-4.36,0.86c-1.32,0.57-2.47,1.38-3.44,2.42c-0.97,1.04-1.73,2.27-2.27,3.67
					c-0.54,1.4-0.81,2.95-0.81,4.63c0,1.68,0.27,3.23,0.81,4.63c0.54,1.4,1.3,2.62,2.27,3.65c0.97,1.03,2.12,1.83,3.44,2.41
					c1.32,0.57,2.77,0.85,4.36,0.85c1.42,0,2.75-0.24,3.98-0.74c1.23-0.49,2.31-1.19,3.23-2.09c0.92-0.9,1.64-1.97,2.17-3.2
					c0.52-1.23,0.78-2.58,0.78-4.05v-1.86H251.6V250.51z"/>
				<path class="st0" d="M277.47,244.59c-1.23-0.72-2.63-1.09-4.19-1.09c-1.56,0-2.96,0.37-4.2,1.1c-1.23,0.73-2.21,1.73-2.93,2.99
					c-0.72,1.26-1.08,2.7-1.08,4.3c0,1.62,0.37,3.07,1.1,4.34c0.73,1.27,1.72,2.27,2.96,3.01c1.24,0.73,2.62,1.09,4.15,1.09
					c1.5,0,2.87-0.36,4.1-1.08c1.23-0.72,2.22-1.72,2.96-2.99c0.74-1.27,1.11-2.73,1.11-4.37c0-1.63-0.36-3.07-1.07-4.33
					C279.67,246.3,278.7,245.3,277.47,244.59z M278.28,255.04c-0.51,0.94-1.2,1.68-2.08,2.23c-0.87,0.54-1.85,0.81-2.93,0.81
					c-1.08,0-2.06-0.27-2.93-0.81c-0.87-0.54-1.57-1.28-2.09-2.23c-0.52-0.94-0.78-1.99-0.78-3.15c0-1.16,0.26-2.21,0.78-3.13
					c0.52-0.92,1.22-1.65,2.09-2.2c0.87-0.54,1.85-0.81,2.93-0.81c1.08,0,2.06,0.27,2.93,0.81c0.87,0.55,1.56,1.27,2.08,2.2
					s0.77,1.97,0.77,3.13C279.05,253.05,278.79,254.1,278.28,255.04z"/>
				<path class="st0" d="M297.16,244.59c-1.23-0.72-2.63-1.09-4.19-1.09c-1.56,0-2.96,0.37-4.2,1.1c-1.23,0.73-2.21,1.73-2.93,2.99
					c-0.72,1.26-1.08,2.7-1.08,4.3c0,1.62,0.37,3.07,1.1,4.34c0.73,1.27,1.72,2.27,2.96,3.01c1.24,0.73,2.62,1.09,4.15,1.09
					c1.5,0,2.87-0.36,4.1-1.08c1.23-0.72,2.22-1.72,2.96-2.99c0.74-1.27,1.11-2.73,1.11-4.37c0-1.63-0.35-3.07-1.07-4.33
					C299.37,246.3,298.39,245.3,297.16,244.59z M297.97,255.04c-0.51,0.94-1.2,1.68-2.08,2.23c-0.87,0.54-1.85,0.81-2.93,0.81
					c-1.08,0-2.06-0.27-2.93-0.81c-0.87-0.54-1.57-1.28-2.09-2.23c-0.52-0.94-0.78-1.99-0.78-3.15c0-1.16,0.26-2.21,0.78-3.13
					c0.52-0.92,1.22-1.65,2.09-2.2c0.87-0.54,1.85-0.81,2.93-0.81c1.08,0,2.06,0.27,2.93,0.81c0.87,0.55,1.56,1.27,2.08,2.2
					s0.77,1.97,0.77,3.13C298.74,253.05,298.48,254.1,297.97,255.04z"/>
				<path class="st0" d="M318.28,246.5c-0.59-0.83-1.26-1.58-2.2-2.1c-1.08-0.6-2.31-0.9-3.7-0.9c-1.52,0-2.88,0.37-4.07,1.1
					c-1.19,0.73-2.13,1.73-2.83,2.99c-0.69,1.26-1.04,2.7-1.04,4.33c0,1.6,0.35,3.04,1.04,4.32c0.69,1.27,1.64,2.27,2.84,3.01
					c1.2,0.73,2.56,1.09,4.06,1.09c1.38,0,2.63-0.31,3.74-0.95c0.92-0.52,1.61-1.27,2.15-2.16v2.75h2.25v-22.76h-2.25V246.5z
					 M317.51,255.06c-0.51,0.93-1.2,1.67-2.07,2.21c-0.87,0.54-1.85,0.81-2.93,0.81c-1.08,0-2.05-0.27-2.9-0.81
					c-0.85-0.54-1.52-1.27-2.01-2.21c-0.49-0.93-0.74-1.98-0.74-3.14c0-1.19,0.25-2.24,0.74-3.16s1.17-1.65,2.03-2.2
					c0.86-0.54,1.83-0.81,2.89-0.81c1.08,0,2.06,0.27,2.93,0.81c0.87,0.55,1.56,1.28,2.07,2.21c0.51,0.93,0.77,1.98,0.77,3.14
					S318.02,254.13,317.51,255.06z"/>
				<path class="st0" d="M325.85,259.98H327c0,0.82-0.14,1.46-0.42,1.93c-0.28,0.46-0.72,0.77-1.32,0.93v1.06
					c1-0.24,1.75-0.76,2.25-1.55c0.5-0.79,0.75-1.84,0.75-3.14v-2.52h-2.4V259.98z"/>
				<path class="st0" d="M351.88,238.95c-1.64-0.92-3.58-1.37-5.8-1.37h-7.37v22.39h7.37c2.23,0,4.16-0.46,5.8-1.39
					c1.64-0.91,2.92-2.22,3.82-3.9c0.9-1.68,1.35-3.66,1.35-5.92c0-2.28-0.45-4.26-1.35-5.94
					C354.8,241.15,353.53,239.86,351.88,238.95z M353.49,253.51c-0.69,1.34-1.67,2.38-2.93,3.11c-1.26,0.73-2.76,1.1-4.48,1.1h-4.96
					v-17.88h4.96c1.7,0,3.19,0.36,4.45,1.09c1.27,0.73,2.25,1.77,2.95,3.1s1.05,2.91,1.05,4.73
					C354.53,250.59,354.19,252.17,353.49,253.51z"/>
				<path class="st0" d="M372.43,244.59c-1.23-0.72-2.63-1.09-4.19-1.09c-1.56,0-2.96,0.37-4.2,1.1c-1.23,0.73-2.21,1.73-2.93,2.99
					c-0.72,1.26-1.08,2.7-1.08,4.3c0,1.62,0.37,3.07,1.1,4.34c0.73,1.27,1.72,2.27,2.96,3.01c1.24,0.73,2.62,1.09,4.15,1.09
					c1.5,0,2.87-0.36,4.1-1.08c1.23-0.72,2.22-1.72,2.96-2.99c0.74-1.27,1.11-2.73,1.11-4.37c0-1.63-0.36-3.07-1.07-4.33
					C374.64,246.3,373.67,245.3,372.43,244.59z M373.25,255.04c-0.51,0.94-1.2,1.68-2.08,2.23c-0.87,0.54-1.85,0.81-2.93,0.81
					c-1.08,0-2.06-0.27-2.93-0.81c-0.87-0.54-1.57-1.28-2.09-2.23c-0.52-0.94-0.78-1.99-0.78-3.15c0-1.16,0.26-2.21,0.78-3.13
					c0.52-0.92,1.22-1.65,2.09-2.2c0.87-0.54,1.85-0.81,2.93-0.81c1.08,0,2.06,0.27,2.93,0.81c0.87,0.55,1.56,1.27,2.08,2.2
					s0.77,1.97,0.77,3.13C374.01,253.05,373.76,254.1,373.25,255.04z"/>
				<path class="st0" d="M396.05,250.51h7.76v0.15c0,1.45-0.34,2.72-1.02,3.83c-0.68,1.11-1.61,1.98-2.78,2.63
					c-1.17,0.64-2.49,0.96-3.95,0.96c-1.64,0-3.11-0.38-4.39-1.16c-1.28-0.77-2.29-1.86-3.01-3.26c-0.72-1.4-1.08-3.03-1.08-4.87
					c0-1.86,0.36-3.49,1.08-4.88c0.72-1.39,1.72-2.48,3.01-3.26c1.28-0.78,2.74-1.17,4.39-1.17c1.64,0,3.04,0.39,4.21,1.17
					c1.16,0.78,2.03,1.86,2.59,3.22l2.16-1.06c-0.36-0.94-0.96-1.84-1.79-2.69c-0.83-0.85-1.86-1.55-3.07-2.09
					c-1.21-0.54-2.58-0.81-4.1-0.81c-1.59,0-3.04,0.29-4.36,0.86c-1.32,0.57-2.47,1.38-3.44,2.42c-0.97,1.04-1.73,2.27-2.27,3.67
					c-0.54,1.4-0.81,2.95-0.81,4.63c0,1.68,0.27,3.23,0.81,4.63c0.54,1.4,1.3,2.62,2.27,3.65c0.97,1.03,2.12,1.83,3.44,2.41
					c1.32,0.57,2.77,0.85,4.36,0.85c1.42,0,2.75-0.24,3.98-0.74c1.23-0.49,2.31-1.19,3.23-2.09c0.92-0.9,1.64-1.97,2.17-3.2
					c0.52-1.23,0.78-2.58,0.78-4.05v-1.86h-10.16V250.51z"/>
				<path class="st0" d="M421.91,244.59c-1.23-0.72-2.63-1.09-4.19-1.09c-1.56,0-2.96,0.37-4.2,1.1c-1.23,0.73-2.21,1.73-2.93,2.99
					c-0.72,1.26-1.08,2.7-1.08,4.3c0,1.62,0.37,3.07,1.1,4.34c0.73,1.27,1.72,2.27,2.96,3.01c1.24,0.73,2.62,1.09,4.15,1.09
					c1.5,0,2.87-0.36,4.1-1.08c1.23-0.72,2.22-1.72,2.96-2.99c0.74-1.27,1.11-2.73,1.11-4.37c0-1.63-0.35-3.07-1.07-4.33
					C424.12,246.3,423.15,245.3,421.91,244.59z M422.73,255.04c-0.51,0.94-1.2,1.68-2.08,2.23c-0.87,0.54-1.85,0.81-2.93,0.81
					c-1.08,0-2.06-0.27-2.93-0.81c-0.87-0.54-1.57-1.28-2.09-2.23c-0.52-0.94-0.78-1.99-0.78-3.15c0-1.16,0.26-2.21,0.78-3.13
					c0.52-0.92,1.22-1.65,2.09-2.2c0.87-0.54,1.85-0.81,2.93-0.81c1.08,0,2.06,0.27,2.93,0.81c0.87,0.55,1.56,1.27,2.08,2.2
					c0.51,0.92,0.77,1.97,0.77,3.13C423.49,253.05,423.24,254.1,422.73,255.04z"/>
				<path class="st0" d="M441.6,244.59c-1.23-0.72-2.63-1.09-4.19-1.09c-1.56,0-2.96,0.37-4.2,1.1c-1.23,0.73-2.21,1.73-2.93,2.99
					c-0.72,1.26-1.08,2.7-1.08,4.3c0,1.62,0.37,3.07,1.1,4.34c0.73,1.27,1.72,2.27,2.96,3.01c1.24,0.73,2.62,1.09,4.15,1.09
					c1.5,0,2.87-0.36,4.1-1.08c1.23-0.72,2.22-1.72,2.96-2.99c0.74-1.27,1.11-2.73,1.11-4.37c0-1.63-0.36-3.07-1.07-4.33
					C443.81,246.3,442.84,245.3,441.6,244.59z M442.42,255.04c-0.51,0.94-1.2,1.68-2.08,2.23c-0.87,0.54-1.85,0.81-2.93,0.81
					c-1.08,0-2.06-0.27-2.93-0.81c-0.87-0.54-1.57-1.28-2.09-2.23c-0.52-0.94-0.78-1.99-0.78-3.15c0-1.16,0.26-2.21,0.78-3.13
					c0.52-0.92,1.22-1.65,2.09-2.2c0.87-0.54,1.85-0.81,2.93-0.81c1.08,0,2.06,0.27,2.93,0.81c0.87,0.55,1.56,1.27,2.08,2.2
					s0.77,1.97,0.77,3.13C443.18,253.05,442.93,254.1,442.42,255.04z"/>
				<path class="st0" d="M462.72,237.22v9.28c-0.59-0.83-1.26-1.58-2.2-2.1c-1.08-0.6-2.31-0.9-3.7-0.9c-1.52,0-2.88,0.37-4.07,1.1
					c-1.19,0.73-2.13,1.73-2.83,2.99c-0.69,1.26-1.04,2.7-1.04,4.33c0,1.6,0.35,3.04,1.04,4.32c0.69,1.27,1.64,2.27,2.84,3.01
					c1.2,0.73,2.56,1.09,4.06,1.09c1.38,0,2.63-0.31,3.74-0.95c0.92-0.52,1.61-1.27,2.15-2.16v2.75h2.25v-22.76H462.72z
					 M461.95,255.06c-0.51,0.93-1.2,1.67-2.07,2.21c-0.87,0.54-1.85,0.81-2.93,0.81c-1.08,0-2.05-0.27-2.9-0.81
					c-0.85-0.54-1.52-1.27-2.01-2.21c-0.49-0.93-0.74-1.98-0.74-3.14c0-1.19,0.25-2.24,0.74-3.16s1.17-1.65,2.03-2.2
					c0.86-0.54,1.83-0.81,2.89-0.81c1.08,0,2.06,0.27,2.93,0.81c0.87,0.55,1.56,1.28,2.07,2.21c0.51,0.93,0.77,1.98,0.77,3.14
					S462.47,254.13,461.95,255.06z"/>
			</g>
		</g>
	</g>
</g>
</svg>
