<?xml version="1.0" encoding="utf-8"?>
<!-- Generator: Adobe Illustrator 28.0.0, SVG Export Plug-In . SVG Version: 6.00 Build 0)  -->
<svg version="1.1" id="Layer_1" xmlns="http://www.w3.org/2000/svg" xmlns:xlink="http://www.w3.org/1999/xlink" x="0px" y="0px"
	 viewBox="0 0 245.7 80.6" style="enable-background:new 0 0 245.7 80.6;" xml:space="preserve">
<style type="text/css">
	.st0{fill:#017373;}
</style>
<g id="Aseel_Logo_00000025416820459070659970000010159681898982872197_">
	<g id="Symbol_00000122707546188849129400000017763977566958435457_">
		<polygon class="st0" points="19.8,42 35.7,42 15.9,61.8 0,61.8 		"/>
		<polygon class="st0" points="38.6,60.7 38.6,44.8 18.7,64.7 18.7,80.6 		"/>
		<polygon class="st0" points="60.7,38.6 44.8,38.6 64.7,18.7 80.6,18.7 		"/>
		<polygon class="st0" points="42,19.8 42,35.7 61.8,15.9 61.8,0 		"/>
		<polygon class="st0" points="38.6,19.8 38.6,35.7 18.7,15.9 18.7,0 		"/>
		<polygon class="st0" points="19.8,38.6 35.7,38.6 15.9,18.7 0,18.7 		"/>
		<polygon class="st0" points="42,60.7 42,44.8 61.8,64.7 61.8,80.6 		"/>
		<polygon class="st0" points="60.7,42 44.8,42 64.7,61.8 80.6,61.8 		"/>
		<rect x="38.3" y="38.3" transform="matrix(0.7071 -0.7071 0.7071 0.7071 -16.6856 40.2827)" class="st0" width="4" height="4"/>
	</g>
	<g id="Logotype_00000069370861635274648640000003673125570914133693_">
		<g>
			<g id="Aseel_00000069355795940158117770000017083066656491647896_">
				<path class="st0" d="M105.8,18.3L90.7,62.2h8.7l3.2-9.4h17l3.1,9.4h8.7l-15.1-43.9H105.8z M104.8,45.7l6.2-18.5l6.2,18.5H104.8z
					"/>
				<path class="st0" d="M147,35.1c1.6,0,3.1,0.4,4.4,1.3c1.3,0.9,2.2,2,2.8,3.5l5.9-2.8c-1-2.6-2.6-4.7-5-6.1c-2.3-1.5-5-2.2-8-2.2
					c-2.3,0-4.4,0.4-6.2,1.2c-1.8,0.8-3.2,2-4.2,3.4c-1,1.5-1.5,3.2-1.5,5.2c0,2.2,0.7,4.1,2.1,5.7s3.4,2.8,6.2,3.6l5.2,1.5
					c0.7,0.2,1.3,0.4,1.9,0.7c0.6,0.3,1,0.6,1.4,1.1s0.5,0.9,0.5,1.6c0,1-0.4,1.8-1.2,2.5c-0.8,0.6-1.9,0.9-3.4,0.9
					c-1.8,0-3.4-0.5-4.9-1.5s-2.6-2.4-3.4-4.2l-5.8,2.8c0.9,2.8,2.7,5,5.2,6.6c2.5,1.6,5.5,2.4,8.9,2.4c2.4,0,4.6-0.4,6.4-1.2
					c1.8-0.8,3.2-2,4.2-3.4c1-1.5,1.5-3.2,1.5-5.1c0-2.3-0.7-4.2-2.2-5.8c-1.4-1.6-3.5-2.7-6.1-3.5l-5.1-1.5c-0.7-0.2-1.4-0.5-2-0.8
					c-0.6-0.3-1-0.6-1.3-1.1c-0.3-0.4-0.5-0.9-0.5-1.5c0-0.9,0.4-1.7,1.1-2.3C144.7,35.4,145.7,35.1,147,35.1z"/>
				<path class="st0" d="M192,33.4c-1.3-1.5-3-2.6-4.9-3.4c-1.9-0.8-4.1-1.2-6.6-1.2c-3,0-5.7,0.7-8.1,2.2c-2.4,1.5-4.3,3.4-5.7,5.9
					s-2.1,5.4-2.1,8.6c0,3.1,0.7,5.9,2.1,8.5c1.4,2.6,3.3,4.6,5.8,6.1c2.5,1.5,5.4,2.2,8.7,2.2c2.2,0,4.2-0.3,6-1
					c1.8-0.7,3.4-1.6,4.7-2.8c1.3-1.2,2.3-2.5,2.9-4.1l-6.2-3.1c-0.7,1.3-1.7,2.3-2.9,3c-1.2,0.7-2.7,1.1-4.5,1.1s-3.3-0.4-4.7-1.2
					c-1.4-0.8-2.4-2-3.1-3.5c-0.4-0.9-0.7-1.9-0.8-3h23.1c0.2-0.4,0.3-0.9,0.3-1.5c0.1-0.6,0.1-1.2,0.1-1.7c0-2.2-0.4-4.2-1.1-6
					C194.3,36.5,193.3,34.9,192,33.4z M176.2,36.3c1.3-0.8,2.7-1.2,4.3-1.2c1.7,0,3.1,0.4,4.3,1.2c1.2,0.8,2.1,1.9,2.6,3.4
					c0.2,0.6,0.4,1.3,0.4,2.1h-15c0.1-0.7,0.3-1.3,0.5-1.9C174,38.3,174.9,37.1,176.2,36.3z"/>
				<path class="st0" d="M228,33.4c-1.3-1.5-3-2.6-4.9-3.4c-1.9-0.8-4.1-1.2-6.6-1.2c-3,0-5.7,0.7-8.1,2.2c-2.4,1.5-4.3,3.4-5.7,5.9
					s-2.1,5.4-2.1,8.6c0,3.1,0.7,5.9,2.1,8.5c1.4,2.6,3.3,4.6,5.8,6.1c2.5,1.5,5.4,2.2,8.7,2.2c2.2,0,4.2-0.3,6-1
					c1.8-0.7,3.4-1.6,4.7-2.8c1.3-1.2,2.3-2.5,2.9-4.1l-6.2-3.1c-0.7,1.3-1.7,2.3-2.9,3c-1.2,0.7-2.7,1.1-4.5,1.1
					c-1.8,0-3.3-0.4-4.7-1.2c-1.4-0.8-2.4-2-3.1-3.5c-0.4-0.9-0.7-1.9-0.8-3h23.1c0.2-0.4,0.3-0.9,0.3-1.5c0.1-0.6,0.1-1.2,0.1-1.7
					c0-2.2-0.4-4.2-1.1-6C230.4,36.5,229.4,34.9,228,33.4z M212.3,36.3c1.3-0.8,2.7-1.2,4.3-1.2c1.7,0,3.1,0.4,4.3,1.2
					c1.2,0.8,2.1,1.9,2.6,3.4c0.2,0.6,0.4,1.3,0.4,2.1h-15c0.1-0.7,0.3-1.3,0.5-1.9C210,38.3,211,37.1,212.3,36.3z"/>
				<rect x="238" y="18.3" class="st0" width="7.7" height="43.9"/>
			</g>
		</g>
	</g>
</g>
</svg>
