<?xml version="1.0" encoding="utf-8"?>
<!-- Generator: Adobe Illustrator 28.0.0, SVG Export Plug-In . SVG Version: 6.00 Build 0)  -->
<svg version="1.1" id="Layer_1" xmlns="http://www.w3.org/2000/svg" xmlns:xlink="http://www.w3.org/1999/xlink" x="0px" y="0px"
	 viewBox="0 0 384.6 99.2" style="enable-background:new 0 0 384.6 99.2;" xml:space="preserve">
<style type="text/css">
	.st0{fill:#017373;}
</style>
<g id="Aseel_Logo_00000174569775381270485220000012659509161205356440_">
	<g id="Symbol_00000112597246113302009430000003700352725803962537_">
		<polygon class="st0" points="193.3,36.2 193.3,26.7 205.2,38.6 205.2,48.1 		"/>
		<polygon class="st0" points="204.5,25.1 195,25.1 206.9,36.9 216.3,36.9 		"/>
		<polygon class="st0" points="191.2,11.8 191.2,21.3 179.4,9.5 179.4,0 		"/>
		<polygon class="st0" points="180.1,23 189.6,23 177.7,11.1 168.3,11.1 		"/>
		<polygon class="st0" points="180.1,25.1 189.6,25.1 177.7,36.9 168.3,36.9 		"/>
		<polygon class="st0" points="191.2,36.2 191.2,26.7 179.4,38.6 179.4,48.1 		"/>
		<polygon class="st0" points="204.5,23 195,23 206.8,11.2 216.3,11.2 		"/>
		<polygon class="st0" points="193.3,11.9 193.3,21.3 205.2,9.5 205.2,0 		"/>
		
			<rect x="191.1" y="22.9" transform="matrix(-0.7071 -0.7071 0.7071 -0.7071 311.2704 177.0092)" class="st0" width="2.3" height="2.3"/>
	</g>
	<g id="Aseel_Logo_00000170994421123291721140000008908316888218224550_">
		<g id="Logotype_00000067916619510121053620000000511235235749693850_">
			<g>
				<path class="st0" d="M7.6,71L0,93.1h4.4L6,88.3h8.5l1.6,4.7h4.4L12.8,71H7.6z M7.1,84.8l3.1-9.3l3.1,9.3H7.1z"/>
				<path class="st0" d="M28.3,79.8c0.8,0,1.5,0.2,2.2,0.7c0.7,0.4,1.1,1,1.4,1.7l3-1.4c-0.5-1.3-1.3-2.4-2.5-3.1
					c-1.2-0.7-2.5-1.1-4-1.1c-1.2,0-2.2,0.2-3.1,0.6c-0.9,0.4-1.6,1-2.1,1.7c-0.5,0.7-0.8,1.6-0.8,2.6c0,1.1,0.3,2.1,1,2.9
					c0.7,0.8,1.7,1.4,3.1,1.8l2.6,0.7c0.3,0.1,0.6,0.2,0.9,0.4c0.3,0.2,0.5,0.3,0.7,0.5c0.2,0.2,0.3,0.5,0.3,0.8
					c0,0.5-0.2,0.9-0.6,1.2c-0.4,0.3-1,0.5-1.7,0.5c-0.9,0-1.7-0.3-2.5-0.8c-0.7-0.5-1.3-1.2-1.7-2.1l-2.9,1.4
					c0.5,1.4,1.3,2.5,2.6,3.3c1.3,0.8,2.8,1.2,4.5,1.2c1.2,0,2.3-0.2,3.2-0.6c0.9-0.4,1.6-1,2.1-1.7c0.5-0.7,0.8-1.6,0.8-2.6
					c0-1.1-0.4-2.1-1.1-2.9c-0.7-0.8-1.7-1.4-3.1-1.8L28.1,83c-0.4-0.1-0.7-0.2-1-0.4c-0.3-0.1-0.5-0.3-0.7-0.5
					c-0.2-0.2-0.2-0.5-0.2-0.8c0-0.5,0.2-0.9,0.6-1.2C27.1,79.9,27.6,79.8,28.3,79.8z"/>
				<path class="st0" d="M50.9,78.9c-0.7-0.7-1.5-1.3-2.4-1.7c-1-0.4-2.1-0.6-3.3-0.6c-1.5,0-2.9,0.4-4.1,1.1
					c-1.2,0.7-2.2,1.7-2.9,3c-0.7,1.3-1.1,2.7-1.1,4.3c0,1.6,0.3,3,1,4.3c0.7,1.3,1.7,2.3,2.9,3c1.2,0.8,2.7,1.1,4.4,1.1
					c1.1,0,2.1-0.2,3-0.5c0.9-0.3,1.7-0.8,2.4-1.4c0.7-0.6,1.2-1.3,1.5-2l-3.1-1.5c-0.4,0.6-0.8,1.1-1.5,1.5
					c-0.6,0.4-1.4,0.6-2.3,0.6c-0.9,0-1.7-0.2-2.4-0.6c-0.7-0.4-1.2-1-1.5-1.8c-0.2-0.4-0.2-1-0.2-1.5h11.4c0.1-0.2,0.1-0.5,0.2-0.8
					c0-0.3,0-0.6,0-0.9c0-1.1-0.2-2.1-0.5-3C52.1,80.5,51.6,79.7,50.9,78.9z M43,80.4c0.6-0.4,1.4-0.6,2.2-0.6
					c0.9,0,1.6,0.2,2.2,0.6c0.6,0.4,1,1,1.3,1.7c0.1,0.3,0,0.7,0.1,1h-7.3c0.1-0.3,0-0.7,0.1-1C41.9,81.4,42.4,80.8,43,80.4z"/>
				<path class="st0" d="M69.1,78.9c-0.7-0.7-1.5-1.3-2.4-1.7c-1-0.4-2.1-0.6-3.3-0.6c-1.5,0-2.9,0.4-4.1,1.1
					c-1.2,0.7-2.2,1.7-2.9,3c-0.7,1.3-1.1,2.7-1.1,4.3c0,1.6,0.3,3,1,4.3c0.7,1.3,1.7,2.3,2.9,3c1.2,0.8,2.7,1.1,4.4,1.1
					c1.1,0,2.1-0.2,3-0.5c0.9-0.3,1.7-0.8,2.4-1.4c0.7-0.6,1.2-1.3,1.5-2l-3.1-1.5c-0.4,0.6-0.8,1.1-1.5,1.5
					c-0.6,0.4-1.4,0.6-2.3,0.6c-0.9,0-1.7-0.2-2.4-0.6c-0.7-0.4-1.2-1-1.5-1.8c-0.2-0.4-0.2-1-0.2-1.5h11.4c0.1-0.2,0.1-0.5,0.2-0.8
					c0-0.3,0-0.6,0-0.9c0-1.1-0.2-2.1-0.5-3C70.2,80.5,69.7,79.7,69.1,78.9z M61.1,80.4c0.6-0.4,1.4-0.6,2.2-0.6
					c0.9,0,1.6,0.2,2.2,0.6c0.6,0.4,1,1,1.3,1.7c0.1,0.3,0,0.7,0.1,1h-7.3c0.1-0.3,0-0.7,0.1-1C60,81.4,60.5,80.8,61.1,80.4z"/>
				<rect x="74.1" y="70.6" class="st0" width="3.9" height="22.4"/>
			</g>
			<path class="st0" d="M91.4,97.5v-31h1v31H91.4z"/>
			<g>
				<path class="st0" d="M120.1,81.8c-0.5-0.4-1-0.7-1.6-1c0.8-0.4,1.4-1,1.8-1.7c0.6-0.9,0.8-1.9,0.8-3c0-1.1-0.3-2.1-0.8-2.9
					c-0.5-0.8-1.2-1.5-2.1-1.9c-0.9-0.5-2-0.7-3.2-0.7h-9.3v22.1h9.3c2.2,0,3.9-0.6,5.1-1.7c1.3-1.2,1.9-2.7,1.9-4.7
					c0-0.9-0.2-1.7-0.5-2.4C121.2,83.1,120.8,82.4,120.1,81.8z M108.2,72.8h6.7c1.2,0,2.1,0.3,2.9,0.9c0.7,0.6,1.1,1.4,1.1,2.5
					c0,1.1-0.4,2-1.1,2.7c-0.7,0.7-1.7,1-2.9,1h-6.7V72.8z M118.5,89.4c-0.8,0.7-2,1.1-3.4,1.1h-6.9v-8.4h6.9c1.4,0,2.5,0.4,3.4,1.1
					c0.8,0.8,1.3,1.8,1.3,3.1C119.7,87.6,119.3,88.6,118.5,89.4z"/>
				<path class="st0" d="M136.2,86.3c0,0.9-0.2,1.8-0.5,2.4c-0.4,0.7-0.9,1.2-1.5,1.6c-0.6,0.4-1.4,0.5-2.2,0.5
					c-0.8,0-1.5-0.2-2.1-0.5c-0.6-0.4-1.1-0.9-1.5-1.5c-0.3-0.6-0.5-1.4-0.5-2.2v-9.7h-2.2v10c0,1.2,0.3,2.3,0.8,3.2
					c0.5,0.9,1.2,1.7,2.1,2.2c0.9,0.5,1.9,0.8,3,0.8c1.2,0,2.2-0.3,3.1-0.9c0.6-0.4,1.1-0.9,1.4-1.5v2.1h2.2V76.8h-2.2V86.3z"/>
				<path class="st0" d="M148.6,89.9l-5.2-13.1H141l6.4,15.9l-0.6,1.4c-0.5,1.1-1,1.9-1.5,2.3c-0.5,0.4-1.3,0.6-2.2,0.6
					c-0.3,0-0.6,0-0.9-0.1c-0.3-0.1-0.6-0.1-0.8-0.1v2.1c0.3,0.1,0.6,0.2,1,0.3c0.3,0,0.6,0.1,1,0.1c1,0,1.9-0.2,2.7-0.6
					c0.7-0.4,1.3-1,1.8-1.7c0.5-0.7,0.9-1.4,1.2-2.2l7.3-17.9h-2.5L148.6,89.9z"/>
				<path class="st0" d="M174.3,83.4h7.6v0.2c0,1.4-0.3,2.7-1,3.8c-0.7,1.1-1.6,2-2.7,2.6c-1.2,0.6-2.5,0.9-3.9,0.9
					c-1.6,0-3.1-0.4-4.3-1.1c-1.3-0.8-2.3-1.8-3-3.2c-0.7-1.4-1.1-3-1.1-4.8c0-1.8,0.4-3.4,1.1-4.8c0.7-1.4,1.7-2.4,3-3.2
					c1.3-0.8,2.7-1.2,4.3-1.2c1.6,0,3,0.4,4.1,1.2c1.1,0.8,2,1.8,2.5,3.2l2.1-1c-0.4-0.9-0.9-1.8-1.8-2.6c-0.8-0.8-1.8-1.5-3-2.1
					c-1.2-0.5-2.5-0.8-4-0.8c-1.6,0-3,0.3-4.3,0.8c-1.3,0.6-2.4,1.4-3.4,2.4c-1,1-1.7,2.2-2.2,3.6c-0.5,1.4-0.8,2.9-0.8,4.6
					c0,1.7,0.3,3.2,0.8,4.6c0.5,1.4,1.3,2.6,2.2,3.6c1,1,2.1,1.8,3.4,2.4c1.3,0.6,2.7,0.8,4.3,0.8c1.4,0,2.7-0.2,3.9-0.7
					c1.2-0.5,2.3-1.2,3.2-2.1c0.9-0.9,1.6-1.9,2.1-3.2c0.5-1.2,0.8-2.5,0.8-4v-1.8h-10V83.4z"/>
				<path class="st0" d="M199.8,77.5c-1.2-0.7-2.6-1.1-4.1-1.1c-1.5,0-2.9,0.4-4.1,1.1c-1.2,0.7-2.2,1.7-2.9,3s-1.1,2.7-1.1,4.2
					c0,1.6,0.4,3,1.1,4.3c0.7,1.3,1.7,2.2,2.9,3c1.2,0.7,2.6,1.1,4.1,1.1c1.5,0,2.8-0.4,4-1.1c1.2-0.7,2.2-1.7,2.9-2.9
					c0.7-1.3,1.1-2.7,1.1-4.3c0-1.6-0.4-3-1.1-4.3C202,79.2,201,78.2,199.8,77.5z M200.6,87.8c-0.5,0.9-1.2,1.7-2,2.2
					c-0.9,0.5-1.8,0.8-2.9,0.8c-1.1,0-2-0.3-2.9-0.8c-0.9-0.5-1.5-1.3-2.1-2.2c-0.5-0.9-0.8-2-0.8-3.1c0-1.1,0.3-2.2,0.8-3.1
					c0.5-0.9,1.2-1.6,2.1-2.2c0.9-0.5,1.8-0.8,2.9-0.8c1.1,0,2,0.3,2.9,0.8c0.9,0.5,1.5,1.3,2,2.2c0.5,0.9,0.8,1.9,0.8,3.1
					C201.3,85.9,201.1,86.9,200.6,87.8z"/>
				<path class="st0" d="M219.2,77.5c-1.2-0.7-2.6-1.1-4.1-1.1c-1.5,0-2.9,0.4-4.1,1.1c-1.2,0.7-2.2,1.7-2.9,3s-1.1,2.7-1.1,4.2
					c0,1.6,0.4,3,1.1,4.3c0.7,1.3,1.7,2.2,2.9,3c1.2,0.7,2.6,1.1,4.1,1.1c1.5,0,2.8-0.4,4-1.1c1.2-0.7,2.2-1.7,2.9-2.9
					c0.7-1.3,1.1-2.7,1.1-4.3c0-1.6-0.3-3-1.1-4.3C221.4,79.2,220.4,78.2,219.2,77.5z M220,87.8c-0.5,0.9-1.2,1.7-2,2.2
					c-0.9,0.5-1.8,0.8-2.9,0.8c-1.1,0-2-0.3-2.9-0.8c-0.9-0.5-1.5-1.3-2.1-2.2c-0.5-0.9-0.8-2-0.8-3.1c0-1.1,0.3-2.2,0.8-3.1
					c0.5-0.9,1.2-1.6,2.1-2.2c0.9-0.5,1.8-0.8,2.9-0.8c1.1,0,2,0.3,2.9,0.8c0.9,0.5,1.5,1.3,2,2.2c0.5,0.9,0.8,1.9,0.8,3.1
					C220.7,85.9,220.5,86.9,220,87.8z"/>
				<path class="st0" d="M240,79.4c-0.6-0.8-1.2-1.6-2.2-2.1c-1.1-0.6-2.3-0.9-3.6-0.9c-1.5,0-2.8,0.4-4,1.1c-1.2,0.7-2.1,1.7-2.8,3
					c-0.7,1.2-1,2.7-1,4.3c0,1.6,0.3,3,1,4.3c0.7,1.3,1.6,2.2,2.8,3c1.2,0.7,2.5,1.1,4,1.1c1.4,0,2.6-0.3,3.7-0.9
					c0.9-0.5,1.6-1.3,2.1-2.1v2.7h2.2V70.3H240V79.4z M239.2,87.9c-0.5,0.9-1.2,1.6-2,2.2c-0.9,0.5-1.8,0.8-2.9,0.8
					c-1.1,0-2-0.3-2.9-0.8c-0.8-0.5-1.5-1.3-2-2.2c-0.5-0.9-0.7-1.9-0.7-3.1c0-1.2,0.2-2.2,0.7-3.1s1.2-1.6,2-2.2
					c0.9-0.5,1.8-0.8,2.8-0.8c1.1,0,2,0.3,2.9,0.8c0.9,0.5,1.5,1.3,2,2.2c0.5,0.9,0.8,1.9,0.8,3.1S239.8,86.9,239.2,87.9z"/>
				<path class="st0" d="M247.5,92.7h1.1c0,0.8-0.1,1.4-0.4,1.9c-0.3,0.5-0.7,0.8-1.3,0.9v1c1-0.2,1.7-0.7,2.2-1.5
					c0.5-0.8,0.7-1.8,0.7-3.1v-2.5h-2.4V92.7z"/>
				<path class="st0" d="M273.1,72c-1.6-0.9-3.5-1.3-5.7-1.3h-7.3v22.1h7.3c2.2,0,4.1-0.5,5.7-1.4c1.6-0.9,2.9-2.2,3.8-3.8
					c0.9-1.7,1.3-3.6,1.3-5.8c0-2.3-0.4-4.2-1.3-5.9C276,74.1,274.7,72.9,273.1,72z M274.7,86.3c-0.7,1.3-1.6,2.3-2.9,3.1
					c-1.2,0.7-2.7,1.1-4.4,1.1h-4.9V72.8h4.9c1.7,0,3.1,0.4,4.4,1.1c1.2,0.7,2.2,1.7,2.9,3.1s1,2.9,1,4.7
					C275.7,83.4,275.4,85,274.7,86.3z"/>
				<path class="st0" d="M293.4,77.5c-1.2-0.7-2.6-1.1-4.1-1.1c-1.5,0-2.9,0.4-4.1,1.1c-1.2,0.7-2.2,1.7-2.9,3
					c-0.7,1.2-1.1,2.7-1.1,4.2c0,1.6,0.4,3,1.1,4.3c0.7,1.3,1.7,2.2,2.9,3c1.2,0.7,2.6,1.1,4.1,1.1c1.5,0,2.8-0.4,4-1.1
					c1.2-0.7,2.2-1.7,2.9-2.9c0.7-1.3,1.1-2.7,1.1-4.3c0-1.6-0.4-3-1.1-4.3C295.6,79.2,294.6,78.2,293.4,77.5z M294.2,87.8
					c-0.5,0.9-1.2,1.7-2,2.2c-0.9,0.5-1.8,0.8-2.9,0.8c-1.1,0-2-0.3-2.9-0.8c-0.9-0.5-1.5-1.3-2.1-2.2c-0.5-0.9-0.8-2-0.8-3.1
					c0-1.1,0.3-2.2,0.8-3.1c0.5-0.9,1.2-1.6,2.1-2.2c0.9-0.5,1.8-0.8,2.9-0.8c1.1,0,2,0.3,2.9,0.8c0.9,0.5,1.5,1.3,2,2.2
					s0.8,1.9,0.8,3.1C294.9,85.9,294.7,86.9,294.2,87.8z"/>
				<path class="st0" d="M316.7,83.4h7.6v0.2c0,1.4-0.3,2.7-1,3.8c-0.7,1.1-1.6,2-2.7,2.6c-1.2,0.6-2.5,0.9-3.9,0.9
					c-1.6,0-3.1-0.4-4.3-1.1c-1.3-0.8-2.3-1.8-3-3.2c-0.7-1.4-1.1-3-1.1-4.8c0-1.8,0.4-3.4,1.1-4.8c0.7-1.4,1.7-2.4,3-3.2
					c1.3-0.8,2.7-1.2,4.3-1.2c1.6,0,3,0.4,4.1,1.2c1.1,0.8,2,1.8,2.5,3.2l2.1-1c-0.4-0.9-0.9-1.8-1.8-2.6c-0.8-0.8-1.8-1.5-3-2.1
					c-1.2-0.5-2.5-0.8-4-0.8c-1.6,0-3,0.3-4.3,0.8c-1.3,0.6-2.4,1.4-3.4,2.4c-1,1-1.7,2.2-2.2,3.6c-0.5,1.4-0.8,2.9-0.8,4.6
					c0,1.7,0.3,3.2,0.8,4.6c0.5,1.4,1.3,2.6,2.2,3.6c1,1,2.1,1.8,3.4,2.4c1.3,0.6,2.7,0.8,4.3,0.8c1.4,0,2.7-0.2,3.9-0.7
					c1.2-0.5,2.3-1.2,3.2-2.1c0.9-0.9,1.6-1.9,2.1-3.2c0.5-1.2,0.8-2.5,0.8-4v-1.8h-10V83.4z"/>
				<path class="st0" d="M342.1,77.5c-1.2-0.7-2.6-1.1-4.1-1.1c-1.5,0-2.9,0.4-4.1,1.1c-1.2,0.7-2.2,1.7-2.9,3s-1.1,2.7-1.1,4.2
					c0,1.6,0.4,3,1.1,4.3c0.7,1.3,1.7,2.2,2.9,3c1.2,0.7,2.6,1.1,4.1,1.1c1.5,0,2.8-0.4,4-1.1c1.2-0.7,2.2-1.7,2.9-2.9
					c0.7-1.3,1.1-2.7,1.1-4.3c0-1.6-0.3-3-1.1-4.3C344.3,79.2,343.4,78.2,342.1,77.5z M342.9,87.8c-0.5,0.9-1.2,1.7-2,2.2
					c-0.9,0.5-1.8,0.8-2.9,0.8c-1.1,0-2-0.3-2.9-0.8c-0.9-0.5-1.5-1.3-2.1-2.2c-0.5-0.9-0.8-2-0.8-3.1c0-1.1,0.3-2.2,0.8-3.1
					c0.5-0.9,1.2-1.6,2.1-2.2c0.9-0.5,1.8-0.8,2.9-0.8c1.1,0,2,0.3,2.9,0.8c0.9,0.5,1.5,1.3,2,2.2s0.8,1.9,0.8,3.1
					C343.7,85.9,343.4,86.9,342.9,87.8z"/>
				<path class="st0" d="M361.6,77.5c-1.2-0.7-2.6-1.1-4.1-1.1c-1.5,0-2.9,0.4-4.1,1.1c-1.2,0.7-2.2,1.7-2.9,3s-1.1,2.7-1.1,4.2
					c0,1.6,0.4,3,1.1,4.3c0.7,1.3,1.7,2.2,2.9,3c1.2,0.7,2.6,1.1,4.1,1.1c1.5,0,2.8-0.4,4-1.1c1.2-0.7,2.2-1.7,2.9-2.9
					c0.7-1.3,1.1-2.7,1.1-4.3c0-1.6-0.4-3-1.1-4.3C363.7,79.2,362.8,78.2,361.6,77.5z M362.4,87.8c-0.5,0.9-1.2,1.7-2,2.2
					c-0.9,0.5-1.8,0.8-2.9,0.8c-1.1,0-2-0.3-2.9-0.8c-0.9-0.5-1.5-1.3-2.1-2.2c-0.5-0.9-0.8-2-0.8-3.1c0-1.1,0.3-2.2,0.8-3.1
					c0.5-0.9,1.2-1.6,2.1-2.2c0.9-0.5,1.8-0.8,2.9-0.8c1.1,0,2,0.3,2.9,0.8c0.9,0.5,1.5,1.3,2,2.2c0.5,0.9,0.8,1.9,0.8,3.1
					C363.1,85.9,362.9,86.9,362.4,87.8z"/>
				<path class="st0" d="M382.4,70.3v9.1c-0.6-0.8-1.2-1.6-2.2-2.1c-1.1-0.6-2.3-0.9-3.6-0.9c-1.5,0-2.8,0.4-4,1.1
					c-1.2,0.7-2.1,1.7-2.8,3c-0.7,1.2-1,2.7-1,4.3c0,1.6,0.3,3,1,4.3c0.7,1.3,1.6,2.2,2.8,3c1.2,0.7,2.5,1.1,4,1.1
					c1.4,0,2.6-0.3,3.7-0.9c0.9-0.5,1.6-1.3,2.1-2.1v2.7h2.2V70.3H382.4z M381.6,87.9c-0.5,0.9-1.2,1.6-2,2.2
					c-0.9,0.5-1.8,0.8-2.9,0.8c-1.1,0-2-0.3-2.9-0.8c-0.8-0.5-1.5-1.3-2-2.2c-0.5-0.9-0.7-1.9-0.7-3.1c0-1.2,0.2-2.2,0.7-3.1
					s1.2-1.6,2-2.2c0.9-0.5,1.8-0.8,2.8-0.8c1.1,0,2,0.3,2.9,0.8c0.9,0.5,1.5,1.3,2,2.2c0.5,0.9,0.8,1.9,0.8,3.1
					S382.1,86.9,381.6,87.9z"/>
			</g>
		</g>
	</g>
</g>
</svg>
