<?xml version="1.0" encoding="utf-8"?>
<!-- Generator: Adobe Illustrator 27.4.1, SVG Export Plug-In . SVG Version: 6.00 Build 0)  -->
<svg version="1.1" id="Layer_1" xmlns="http://www.w3.org/2000/svg" xmlns:xlink="http://www.w3.org/1999/xlink" x="0px" y="0px"
	 viewBox="0 0 500 500" style="enable-background:new 0 0 500 500;" xml:space="preserve">
<style type="text/css">
	.st0{fill:#126090;}
	.st1{fill:#017373;}
	.st2{fill:#116090;}
</style>
<g id="Aseel_Logo_00000119816509137473320640000014051070009905924251_">
	<g id="Symbol_00000032626610470596603860000014772363626652128170_">
		<polygon class="st1" points="90.38,261.13 90.38,253.02 100.52,263.15 100.52,271.26 		"/>
		<polygon class="st1" points="99.91,251.6 91.8,251.6 101.93,261.73 110.04,261.73 		"/>
		<polygon class="st1" points="88.58,240.27 88.58,248.38 78.44,238.24 78.44,230.14 		"/>
		<polygon class="st1" points="79.05,249.8 87.16,249.8 77.03,239.66 68.92,239.66 		"/>
		<polygon class="st1" points="79.06,251.6 87.17,251.6 77.03,261.73 68.92,261.73 		"/>
		<polygon class="st1" points="88.58,261.12 88.58,253.02 78.45,263.15 78.45,271.26 		"/>
		<polygon class="st1" points="99.89,249.81 91.79,249.81 101.92,239.68 110.03,239.68 		"/>
		<polygon class="st1" points="90.37,240.29 90.37,248.39 100.5,238.26 100.5,230.15 		"/>
		
			<rect x="88.48" y="249.7" transform="matrix(-0.7071 -0.7071 0.7071 -0.7071 -24.518 491.244)" class="st1" width="2.01" height="2.01"/>
	</g>
	<g id="Aseel_Logo_00000021837851540047838590000012638017348408883083_">
		<g id="Logotype_00000148647846656231407510000010899565151420219807_">
			<g>
				<path class="st1" d="M131.75,234.75l-10.23,29.64h5.85l2.15-6.37h11.46l2.11,6.37h5.89l-10.23-29.64H131.75z M131.07,253.24
					l4.18-12.5l4.18,12.5H131.07z"/>
				<path class="st1" d="M159.53,246.52c1.09,0,2.07,0.3,2.95,0.88c0.87,0.58,1.5,1.37,1.87,2.35l3.98-1.87
					c-0.66-1.77-1.78-3.16-3.34-4.14c-1.57-0.99-3.37-1.48-5.41-1.48c-1.57,0-2.95,0.28-4.16,0.84c-1.21,0.55-2.15,1.33-2.83,2.32
					c-0.68,1-1.01,2.16-1.01,3.48c0,1.49,0.47,2.77,1.41,3.86c0.94,1.09,2.33,1.9,4.16,2.43l3.54,0.99c0.45,0.13,0.87,0.3,1.25,0.5
					c0.38,0.2,0.69,0.44,0.92,0.71c0.23,0.28,0.34,0.64,0.34,1.06c0,0.69-0.28,1.25-0.84,1.67c-0.56,0.43-1.31,0.64-2.27,0.64
					c-1.22,0-2.33-0.34-3.32-1.03c-1-0.69-1.77-1.65-2.33-2.87l-3.9,1.87c0.64,1.88,1.81,3.37,3.52,4.48
					c1.71,1.1,3.72,1.65,6.03,1.65c1.65,0,3.08-0.27,4.3-0.83c1.22-0.56,2.18-1.34,2.87-2.33c0.69-1,1.03-2.14,1.03-3.44
					c0-1.54-0.49-2.84-1.45-3.9c-0.97-1.06-2.34-1.86-4.12-2.39l-3.46-1.04c-0.5-0.15-0.95-0.33-1.33-0.51
					c-0.38-0.19-0.68-0.43-0.89-0.71c-0.21-0.3-0.32-0.64-0.32-1.03c0-0.64,0.25-1.16,0.75-1.55
					C157.96,246.72,158.65,246.52,159.53,246.52z"/>
				<path class="st1" d="M189.93,245.41c-0.9-0.98-2-1.76-3.28-2.31c-1.29-0.56-2.78-0.84-4.48-0.84c-2.02,0-3.84,0.49-5.47,1.48
					c-1.63,0.98-2.92,2.32-3.86,4c-0.94,1.69-1.41,3.61-1.41,5.79c0,2.1,0.47,4.01,1.4,5.74c0.93,1.72,2.23,3.09,3.9,4.1
					c1.67,1.01,3.62,1.51,5.85,1.51c1.48,0,2.85-0.23,4.08-0.68c1.24-0.45,2.3-1.07,3.2-1.87c0.9-0.8,1.57-1.71,1.99-2.75
					l-4.22-2.07c-0.48,0.85-1.14,1.53-1.97,2.03c-0.84,0.51-1.85,0.76-3.04,0.76c-1.19,0-2.25-0.28-3.16-0.84
					c-0.92-0.56-1.6-1.34-2.07-2.37c-0.27-0.59-0.23-1.35-0.31-2.04h15.37c0.1-0.29,0.18-0.64,0.22-1.03
					c0.04-0.41,0.06-0.79,0.06-1.16c0-1.45-0.24-2.82-0.72-4.08C191.52,247.51,190.83,246.39,189.93,245.41z M179.27,247.38
					c0.85-0.55,1.81-0.82,2.9-0.82c1.14,0,2.11,0.28,2.93,0.84c0.81,0.55,1.39,1.32,1.75,2.27c0.15,0.41,0.03,0.94,0.08,1.39h-9.76
					c0.09-0.41,0.02-0.94,0.17-1.3C177.77,248.72,178.41,247.92,179.27,247.38z"/>
				<path class="st1" d="M214.29,245.41c-0.9-0.98-2-1.76-3.28-2.31c-1.29-0.56-2.78-0.84-4.48-0.84c-2.02,0-3.84,0.49-5.47,1.48
					c-1.63,0.98-2.92,2.32-3.86,4c-0.94,1.69-1.41,3.61-1.41,5.79c0,2.1,0.47,4.01,1.4,5.74c0.93,1.72,2.23,3.09,3.9,4.1
					c1.67,1.01,3.62,1.51,5.85,1.51c1.48,0,2.84-0.23,4.08-0.68c1.24-0.45,2.3-1.07,3.2-1.87c0.9-0.8,1.57-1.71,1.99-2.75
					l-4.22-2.07c-0.48,0.85-1.13,1.53-1.97,2.03c-0.84,0.51-1.85,0.76-3.04,0.76s-2.25-0.28-3.16-0.84
					c-0.92-0.56-1.6-1.34-2.07-2.37c-0.27-0.59-0.23-1.35-0.31-2.04h15.37c0.1-0.29,0.18-0.64,0.22-1.03
					c0.04-0.41,0.06-0.79,0.06-1.16c0-1.45-0.24-2.82-0.72-4.08C215.88,247.51,215.19,246.39,214.29,245.41z M203.62,247.38
					c0.85-0.55,1.81-0.82,2.9-0.82c1.14,0,2.11,0.28,2.93,0.84c0.81,0.55,1.39,1.32,1.75,2.27c0.15,0.41,0.03,0.94,0.08,1.39h-9.76
					c0.09-0.41,0.02-0.94,0.17-1.3C202.13,248.72,202.77,247.92,203.62,247.38z"/>
				<rect x="221.01" y="234.26" class="st1" width="5.21" height="30.13"/>
			</g>
			<path class="st1" d="M244.23,270.39v-41.65h1.39v41.65H244.23z"/>
			<path class="st1" d="M281.36,236.07c-2.18-1.21-4.73-1.81-7.68-1.81h-9.75v29.64h9.75c2.95,0,5.5-0.61,7.68-1.83
				c2.18-1.21,3.86-2.94,5.06-5.17c1.19-2.23,1.79-4.84,1.79-7.84c0-3.02-0.6-5.64-1.79-7.86
				C285.23,238.99,283.54,237.28,281.36,236.07z M283.49,255.35c-0.91,1.78-2.21,3.16-3.88,4.12c-1.67,0.97-3.65,1.45-5.93,1.45
				h-6.57v-23.67h6.57c2.25,0,4.22,0.48,5.89,1.45c1.67,0.97,2.97,2.34,3.9,4.1c0.93,1.76,1.39,3.86,1.39,6.27
				C284.86,251.48,284.41,253.58,283.49,255.35z"/>
			<path class="st1" d="M308.57,243.54c-1.63-0.96-3.48-1.44-5.55-1.44c-2.07,0-3.92,0.49-5.55,1.45c-1.63,0.97-2.92,2.29-3.88,3.96
				c-0.96,1.67-1.43,3.57-1.43,5.69c0,2.14,0.49,4.06,1.45,5.75c0.97,1.68,2.27,3.01,3.92,3.98c1.64,0.96,3.47,1.45,5.49,1.45
				c1.99,0,3.8-0.48,5.43-1.43c1.63-0.95,2.94-2.28,3.92-3.96c0.98-1.69,1.47-3.61,1.47-5.79c0-2.16-0.47-4.07-1.41-5.74
				C311.49,245.8,310.2,244.48,308.57,243.54z M309.64,257.38c-0.68,1.25-1.59,2.23-2.75,2.95c-1.15,0.71-2.45,1.07-3.88,1.07
				c-1.43,0-2.73-0.36-3.88-1.07c-1.15-0.72-2.08-1.7-2.76-2.95c-0.69-1.24-1.04-2.64-1.04-4.17c0-1.54,0.35-2.92,1.04-4.14
				c0.69-1.22,1.61-2.18,2.76-2.91c1.15-0.71,2.45-1.07,3.88-1.07c1.43,0,2.72,0.36,3.88,1.07c1.15,0.72,2.07,1.69,2.75,2.91
				c0.68,1.22,1.01,2.6,1.01,4.14C310.66,254.74,310.32,256.13,309.64,257.38z"/>
			<path class="st1" d="M339.83,251.37h10.27v0.2c0,1.91-0.45,3.6-1.36,5.07c-0.9,1.47-2.13,2.63-3.68,3.48
				c-1.55,0.85-3.3,1.27-5.23,1.27c-2.18,0-4.12-0.51-5.81-1.53c-1.7-1.02-3.03-2.46-3.98-4.31c-0.96-1.86-1.43-4.01-1.43-6.45
				c0-2.46,0.48-4.62,1.43-6.47c0.95-1.84,2.28-3.28,3.98-4.31c1.69-1.03,3.63-1.55,5.81-1.55c2.17,0,4.03,0.52,5.57,1.55
				c1.54,1.03,2.68,2.46,3.42,4.26l2.86-1.4c-0.48-1.24-1.27-2.43-2.37-3.56c-1.1-1.13-2.46-2.05-4.06-2.77
				c-1.61-0.71-3.42-1.07-5.43-1.07c-2.1,0-4.02,0.38-5.77,1.13c-1.75,0.75-3.27,1.83-4.56,3.2c-1.29,1.38-2.29,3-3,4.86
				c-0.72,1.86-1.07,3.9-1.07,6.12c0,2.23,0.36,4.28,1.07,6.13c0.72,1.86,1.72,3.47,3,4.83s2.81,2.42,4.56,3.19
				c1.75,0.75,3.67,1.13,5.77,1.13c1.88,0,3.64-0.32,5.27-0.97c1.63-0.65,3.05-1.57,4.28-2.77c1.22-1.19,2.18-2.6,2.87-4.24
				c0.69-1.63,1.03-3.42,1.03-5.36v-2.46h-13.45V251.37z"/>
			<path class="st1" d="M374.07,243.54c-1.63-0.96-3.48-1.44-5.55-1.44c-2.07,0-3.92,0.49-5.55,1.45c-1.63,0.97-2.92,2.29-3.88,3.96
				c-0.96,1.67-1.43,3.57-1.43,5.69c0,2.14,0.49,4.06,1.45,5.75c0.97,1.68,2.27,3.01,3.92,3.98c1.64,0.96,3.47,1.45,5.49,1.45
				c1.99,0,3.8-0.48,5.43-1.43c1.63-0.95,2.94-2.28,3.92-3.96c0.98-1.69,1.47-3.61,1.47-5.79c0-2.16-0.47-4.07-1.41-5.74
				C376.99,245.8,375.71,244.48,374.07,243.54z M375.15,257.38c-0.68,1.25-1.59,2.23-2.75,2.95c-1.15,0.71-2.45,1.07-3.88,1.07
				c-1.43,0-2.73-0.36-3.88-1.07c-1.15-0.72-2.08-1.7-2.76-2.95c-0.69-1.24-1.04-2.64-1.04-4.17c0-1.54,0.35-2.92,1.04-4.14
				c0.69-1.22,1.61-2.18,2.76-2.91c1.15-0.71,2.45-1.07,3.88-1.07c1.43,0,2.72,0.36,3.88,1.07c1.15,0.72,2.07,1.69,2.75,2.91
				c0.68,1.22,1.01,2.6,1.01,4.14C376.16,254.74,375.83,256.13,375.15,257.38z"/>
			<path class="st1" d="M400.14,243.54c-1.63-0.96-3.48-1.44-5.55-1.44c-2.07,0-3.92,0.49-5.55,1.45c-1.63,0.97-2.92,2.29-3.88,3.96
				s-1.43,3.57-1.43,5.69c0,2.14,0.49,4.06,1.45,5.75c0.97,1.68,2.27,3.01,3.92,3.98c1.64,0.96,3.47,1.45,5.49,1.45
				c1.99,0,3.8-0.48,5.43-1.43c1.63-0.95,2.94-2.28,3.92-3.96c0.98-1.69,1.47-3.61,1.47-5.79c0-2.16-0.47-4.07-1.41-5.74
				C403.06,245.8,401.77,244.48,400.14,243.54z M401.22,257.38c-0.68,1.25-1.59,2.23-2.75,2.95c-1.15,0.71-2.45,1.07-3.88,1.07
				c-1.43,0-2.73-0.36-3.88-1.07c-1.15-0.72-2.08-1.7-2.76-2.95c-0.69-1.24-1.04-2.64-1.04-4.17c0-1.54,0.35-2.92,1.04-4.14
				c0.69-1.22,1.61-2.18,2.76-2.91c1.15-0.71,2.45-1.07,3.88-1.07c1.43,0,2.72,0.36,3.88,1.07c1.15,0.72,2.07,1.69,2.75,2.91
				c0.68,1.22,1.01,2.6,1.01,4.14C402.23,254.74,401.89,256.13,401.22,257.38z"/>
			<path class="st1" d="M428.1,233.78v12.29c-0.78-1.1-1.67-2.09-2.91-2.77c-1.43-0.8-3.06-1.2-4.89-1.2
				c-2.02,0-3.82,0.49-5.39,1.45c-1.58,0.97-2.83,2.29-3.74,3.96c-0.91,1.67-1.37,3.58-1.37,5.73c0,2.12,0.46,4.03,1.37,5.71
				c0.92,1.68,2.17,3.01,3.76,3.98c1.59,0.96,3.38,1.45,5.37,1.45c1.83,0,3.48-0.41,4.95-1.25c1.22-0.69,2.13-1.68,2.85-2.86v3.64
				h2.98v-30.13H428.1z M427.08,257.4c-0.68,1.24-1.59,2.21-2.74,2.92c-1.15,0.71-2.45,1.07-3.88,1.07c-1.43,0-2.72-0.36-3.84-1.07
				c-1.13-0.72-2.02-1.69-2.67-2.92c-0.65-1.23-0.98-2.62-0.98-4.16c0-1.57,0.33-2.96,0.98-4.18c0.65-1.22,1.55-2.18,2.69-2.91
				c1.14-0.71,2.42-1.07,3.82-1.07c1.43,0,2.72,0.36,3.88,1.07c1.15,0.72,2.07,1.69,2.74,2.93c0.68,1.24,1.02,2.62,1.02,4.16
				S427.76,256.17,427.08,257.4z"/>
		</g>
	</g>
</g>
</svg>
