<?xml version="1.0" encoding="utf-8"?>
<!-- Generator: Adobe Illustrator 27.4.1, SVG Export Plug-In . SVG Version: 6.00 Build 0)  -->
<svg version="1.1" id="Layer_1" xmlns="http://www.w3.org/2000/svg" xmlns:xlink="http://www.w3.org/1999/xlink" x="0px" y="0px"
	 viewBox="0 0 500 500" style="enable-background:new 0 0 500 500;" xml:space="preserve">
<style type="text/css">
	.st0{fill:#126090;}
	.st1{fill:#017373;}
	.st2{fill:#116090;}
</style>
<g id="Aseel_Logo_00000173877042057680495990000002252750390779229595_">
	<g id="Symbol_00000049186709779783819960000004483013751488949911_">
		<polygon class="st0" points="143.36,251.71 159.24,251.71 139.39,271.56 123.51,271.56 		"/>
		<polygon class="st0" points="162.09,270.43 162.09,254.56 142.24,274.4 142.24,290.28 		"/>
		<polygon class="st0" points="184.23,248.29 168.35,248.29 188.2,228.44 204.08,228.44 		"/>
		<polygon class="st0" points="165.5,229.57 165.5,245.44 185.35,225.6 185.35,209.72 		"/>
		<polygon class="st0" points="162.09,229.57 162.09,245.44 142.24,225.6 142.24,209.72 		"/>
		<polygon class="st0" points="143.36,248.29 159.24,248.29 139.39,228.44 123.51,228.44 		"/>
		<polygon class="st0" points="165.5,270.43 165.5,254.56 185.35,274.4 185.35,290.28 		"/>
		<polygon class="st0" points="184.23,251.71 168.35,251.71 188.2,271.56 204.08,271.56 		"/>
		
			<rect x="161.78" y="247.99" transform="matrix(0.7071 -0.7071 0.7071 0.7071 -128.8021 189.0442)" class="st0" width="4.03" height="4.03"/>
	</g>
	<g id="Logotype_00000097478759981086063220000016123954370779028152_">
		<g id="Aseel_00000011753374324814314140000012516110782699768254_">
			<path class="st0" d="M230.46,214.84l-15.81,45.82h9.04l3.32-9.84h17.72l3.26,9.84h9.1l-15.81-45.82H230.46z M229.42,243.44
				l6.46-19.32l6.46,19.32H229.42z"/>
			<path class="st0" d="M273.4,232.31c1.68,0,3.2,0.45,4.55,1.35c1.35,0.9,2.32,2.11,2.89,3.63l6.15-2.89
				c-1.03-2.74-2.75-4.88-5.17-6.4c-2.42-1.52-5.21-2.28-8.36-2.28c-2.42,0-4.56,0.43-6.43,1.29c-1.86,0.86-3.32,2.06-4.36,3.6
				c-1.05,1.54-1.57,3.33-1.57,5.38c0,2.3,0.73,4.29,2.19,5.97c1.46,1.68,3.6,2.93,6.43,3.75l5.48,1.54
				c0.7,0.21,1.34,0.46,1.94,0.77c0.59,0.31,1.07,0.68,1.41,1.11c0.35,0.43,0.52,0.97,0.52,1.63c0,1.07-0.43,1.93-1.29,2.58
				c-0.86,0.66-2.03,0.98-3.5,0.98c-1.89,0-3.6-0.53-5.14-1.6c-1.54-1.07-2.74-2.54-3.6-4.43l-6.03,2.89
				c0.98,2.91,2.8,5.22,5.44,6.92c2.64,1.7,5.75,2.55,9.32,2.55c2.54,0,4.75-0.43,6.64-1.29c1.88-0.86,3.36-2.06,4.43-3.6
				c1.07-1.54,1.6-3.31,1.6-5.32c0-2.38-0.75-4.39-2.25-6.03c-1.5-1.64-3.62-2.87-6.37-3.69l-5.35-1.6
				c-0.78-0.25-1.46-0.51-2.06-0.8c-0.59-0.29-1.06-0.66-1.38-1.11c-0.33-0.45-0.49-0.98-0.49-1.6c0-0.98,0.39-1.78,1.17-2.4
				C270.98,232.62,272.04,232.31,273.4,232.31z"/>
			<path class="st0" d="M320.39,230.58c-1.39-1.52-3.08-2.71-5.07-3.57c-1.99-0.86-4.3-1.29-6.92-1.29c-3.11,0-5.94,0.76-8.46,2.28
				c-2.52,1.52-4.51,3.58-5.97,6.18c-1.46,2.6-2.18,5.59-2.18,8.95c0,3.24,0.72,6.19,2.15,8.86s3.45,4.78,6.03,6.34
				c2.58,1.56,5.6,2.34,9.04,2.34c2.29,0,4.4-0.35,6.3-1.04c1.91-0.7,3.56-1.66,4.95-2.89c1.4-1.23,2.42-2.64,3.08-4.24l-6.52-3.2
				c-0.74,1.31-1.75,2.36-3.04,3.14c-1.29,0.78-2.86,1.17-4.71,1.17c-1.85,0-3.47-0.43-4.89-1.29s-2.48-2.08-3.2-3.66
				c-0.44-0.96-0.69-2.03-0.8-3.17h24.08c0.16-0.45,0.28-0.98,0.34-1.6c0.06-0.61,0.09-1.21,0.09-1.78c0-2.26-0.37-4.36-1.11-6.31
				C322.85,233.84,321.78,232.1,320.39,230.58z M303.9,233.63c1.31-0.84,2.81-1.26,4.49-1.26c1.76,0,3.27,0.43,4.52,1.29
				c1.25,0.86,2.15,2.03,2.71,3.51c0.25,0.67,0.39,1.39,0.46,2.15H300.4c0.14-0.7,0.27-1.4,0.52-2
				C301.6,235.7,302.59,234.47,303.9,233.63z"/>
			<path class="st0" d="M358.03,230.58c-1.39-1.52-3.08-2.71-5.07-3.57c-1.99-0.86-4.3-1.29-6.92-1.29c-3.11,0-5.94,0.76-8.46,2.28
				c-2.52,1.52-4.51,3.58-5.97,6.18c-1.46,2.6-2.18,5.59-2.18,8.95c0,3.24,0.72,6.19,2.15,8.86c1.44,2.66,3.45,4.78,6.03,6.34
				c2.58,1.56,5.6,2.34,9.04,2.34c2.29,0,4.4-0.35,6.3-1.04c1.91-0.7,3.56-1.66,4.95-2.89c1.4-1.23,2.42-2.64,3.08-4.24l-6.52-3.2
				c-0.74,1.31-1.75,2.36-3.04,3.14c-1.29,0.78-2.86,1.17-4.71,1.17c-1.85,0-3.47-0.43-4.89-1.29s-2.48-2.08-3.2-3.66
				c-0.44-0.96-0.69-2.03-0.8-3.17h24.08c0.16-0.45,0.28-0.98,0.34-1.6c0.06-0.61,0.09-1.21,0.09-1.78c0-2.26-0.37-4.36-1.11-6.31
				C360.5,233.84,359.43,232.1,358.03,230.58z M341.55,233.63c1.31-0.84,2.81-1.26,4.49-1.26c1.76,0,3.27,0.43,4.52,1.29
				c1.25,0.86,2.15,2.03,2.71,3.51c0.25,0.67,0.39,1.39,0.46,2.15h-15.68c0.14-0.7,0.27-1.4,0.52-2
				C339.24,235.7,340.24,234.47,341.55,233.63z"/>
			<rect x="368.43" y="214.84" class="st0" width="8.06" height="45.82"/>
		</g>
		<g id="Slogan_00000163038769538682221090000002125099099501979069_">
			<path class="st0" d="M214.65,284.91V272.1h5.38c0.72,0,1.35,0.13,1.88,0.4c0.53,0.27,0.95,0.64,1.24,1.13
				c0.29,0.48,0.44,1.04,0.44,1.69c0,0.67-0.16,1.25-0.49,1.76c-0.33,0.51-0.79,0.9-1.4,1.16l-0.02-0.41
				c0.5,0.18,0.94,0.44,1.3,0.77c0.36,0.33,0.64,0.72,0.83,1.16c0.2,0.44,0.29,0.92,0.29,1.42c0,1.15-0.36,2.06-1.09,2.73
				c-0.73,0.67-1.72,1.01-2.96,1.01H214.65z M216.03,277.52h3.9c0.69,0,1.24-0.2,1.66-0.6c0.42-0.4,0.63-0.92,0.63-1.55
				c0-0.64-0.21-1.13-0.63-1.47c-0.42-0.34-0.97-0.51-1.66-0.51h-3.9V277.52z M216.03,283.62h4.03c0.81,0,1.46-0.21,1.95-0.64
				c0.49-0.43,0.73-1.03,0.73-1.78c0-0.75-0.24-1.34-0.73-1.78c-0.49-0.44-1.14-0.66-1.95-0.66h-4.03V283.62z"/>
			<path class="st0" d="M229.65,285.12c-0.64,0-1.23-0.15-1.76-0.46c-0.53-0.31-0.94-0.73-1.25-1.27c-0.3-0.54-0.46-1.17-0.46-1.88
				v-5.81h1.29v5.66c0,0.49,0.1,0.93,0.3,1.3c0.2,0.37,0.48,0.66,0.84,0.87c0.36,0.21,0.78,0.31,1.25,0.31
				c0.47,0,0.89-0.1,1.26-0.32c0.37-0.21,0.65-0.52,0.86-0.91c0.21-0.39,0.31-0.87,0.31-1.42v-5.49h1.29v9.22h-1.29v-1.79l0.29,0.07
				c-0.22,0.6-0.59,1.07-1.12,1.41C230.95,284.95,230.34,285.12,229.65,285.12z"/>
			<path class="st0" d="M236.43,288.7c-0.18,0-0.37-0.01-0.56-0.04s-0.38-0.08-0.56-0.15v-1.2c0.11,0.01,0.26,0.03,0.44,0.06
				s0.36,0.04,0.54,0.04c0.56,0,0.99-0.12,1.29-0.35c0.3-0.24,0.59-0.69,0.88-1.35l0.59-1.38l-0.03,1.14l-3.9-9.77h1.39l3.2,8.07
				h-0.36l3.18-8.07h1.43l-4.21,10.39c-0.18,0.45-0.41,0.87-0.7,1.27c-0.28,0.4-0.63,0.72-1.06,0.97
				C237.55,288.57,237.03,288.7,236.43,288.7z"/>
			<path class="st0" d="M254.41,285.12c-0.91,0-1.74-0.16-2.49-0.49c-0.76-0.33-1.41-0.78-1.97-1.37c-0.55-0.59-0.99-1.29-1.3-2.09
				c-0.31-0.8-0.47-1.69-0.47-2.65c0-0.96,0.16-1.85,0.47-2.65c0.31-0.8,0.74-1.5,1.3-2.1c0.56-0.6,1.21-1.06,1.97-1.39
				c0.76-0.33,1.59-0.49,2.49-0.49c0.87,0,1.65,0.16,2.35,0.47c0.69,0.31,1.28,0.71,1.76,1.19c0.47,0.49,0.82,1,1.02,1.54l-1.24,0.6
				c-0.32-0.78-0.82-1.39-1.48-1.84c-0.67-0.45-1.47-0.67-2.41-0.67s-1.78,0.23-2.51,0.67c-0.73,0.45-1.31,1.07-1.72,1.87
				c-0.41,0.8-0.62,1.73-0.62,2.8c0,1.05,0.21,1.98,0.62,2.79c0.41,0.8,0.99,1.42,1.72,1.87c0.74,0.44,1.57,0.66,2.51,0.66
				c0.84,0,1.59-0.18,2.26-0.55c0.67-0.37,1.2-0.87,1.59-1.5c0.39-0.64,0.59-1.37,0.59-2.19v-0.71l0.62,0.62h-5.06v-1.2h5.81v1.07
				c0,0.84-0.15,1.61-0.45,2.31c-0.3,0.7-0.71,1.32-1.24,1.83c-0.53,0.52-1.14,0.91-1.85,1.2
				C255.99,284.98,255.23,285.12,254.41,285.12z"/>
			<path class="st0" d="M266.82,285.12c-0.87,0-1.66-0.21-2.37-0.63c-0.71-0.42-1.28-0.99-1.69-1.72c-0.42-0.73-0.63-1.56-0.63-2.49
				c0-0.92,0.21-1.74,0.62-2.46c0.41-0.72,0.97-1.29,1.67-1.71c0.71-0.42,1.51-0.63,2.4-0.63s1.69,0.2,2.4,0.62
				c0.7,0.41,1.26,0.98,1.67,1.7c0.41,0.72,0.61,1.55,0.61,2.48c0,0.94-0.21,1.77-0.64,2.5c-0.42,0.73-0.99,1.3-1.69,1.71
				C268.46,284.91,267.67,285.12,266.82,285.12z M266.82,283.83c0.62,0,1.18-0.15,1.68-0.46c0.5-0.31,0.89-0.73,1.19-1.27
				c0.29-0.54,0.44-1.14,0.44-1.81s-0.14-1.26-0.44-1.79c-0.29-0.53-0.69-0.94-1.19-1.26c-0.5-0.31-1.06-0.46-1.68-0.46
				s-1.18,0.16-1.68,0.46c-0.5,0.31-0.9,0.73-1.19,1.26c-0.3,0.53-0.45,1.12-0.45,1.79s0.15,1.27,0.45,1.81
				c0.3,0.54,0.7,0.96,1.19,1.27C265.64,283.68,266.2,283.83,266.82,283.83z"/>
			<path class="st0" d="M278.08,285.12c-0.87,0-1.66-0.21-2.37-0.63c-0.71-0.42-1.28-0.99-1.69-1.72c-0.42-0.73-0.63-1.56-0.63-2.49
				c0-0.92,0.21-1.74,0.62-2.46c0.41-0.72,0.97-1.29,1.67-1.71c0.71-0.42,1.51-0.63,2.4-0.63s1.69,0.2,2.4,0.62
				c0.7,0.41,1.26,0.98,1.67,1.7c0.41,0.72,0.61,1.55,0.61,2.48c0,0.94-0.21,1.77-0.64,2.5c-0.42,0.73-0.99,1.3-1.69,1.71
				C279.72,284.91,278.94,285.12,278.08,285.12z M278.08,283.83c0.62,0,1.18-0.15,1.68-0.46c0.5-0.31,0.89-0.73,1.19-1.27
				c0.29-0.54,0.44-1.14,0.44-1.81s-0.14-1.26-0.44-1.79c-0.29-0.53-0.69-0.94-1.19-1.26c-0.5-0.31-1.06-0.46-1.68-0.46
				c-0.62,0-1.18,0.16-1.68,0.46c-0.5,0.31-0.9,0.73-1.19,1.26c-0.3,0.53-0.45,1.12-0.45,1.79s0.15,1.27,0.45,1.81
				c0.3,0.54,0.7,0.96,1.19,1.27C276.9,283.68,277.46,283.83,278.08,283.83z"/>
			<path class="st0" d="M289.19,285.12c-0.86,0-1.63-0.21-2.32-0.63c-0.69-0.42-1.23-0.99-1.62-1.72c-0.4-0.73-0.6-1.55-0.6-2.47
				c0-0.93,0.2-1.76,0.6-2.48c0.39-0.72,0.93-1.29,1.62-1.71c0.68-0.42,1.46-0.63,2.33-0.63c0.79,0,1.5,0.17,2.12,0.52
				c0.62,0.34,1.11,0.81,1.46,1.39l-0.21,0.36v-5.86h1.29v13.02h-1.29v-2.06l0.21,0.19c-0.32,0.67-0.8,1.18-1.44,1.54
				C290.69,284.94,289.98,285.12,289.19,285.12z M289.26,283.83c0.62,0,1.18-0.15,1.68-0.46c0.5-0.31,0.9-0.73,1.19-1.26
				c0.29-0.53,0.44-1.13,0.44-1.8s-0.14-1.27-0.44-1.8s-0.69-0.95-1.19-1.26c-0.5-0.31-1.06-0.46-1.68-0.46
				c-0.61,0-1.16,0.16-1.65,0.46c-0.49,0.31-0.88,0.73-1.16,1.26c-0.28,0.53-0.42,1.13-0.42,1.81c0,0.67,0.14,1.26,0.42,1.8
				c0.28,0.53,0.66,0.96,1.15,1.26C288.09,283.68,288.64,283.83,289.26,283.83z"/>
			<path class="st0" d="M296.55,287.15v-0.6c0.34-0.09,0.6-0.27,0.76-0.53c0.16-0.26,0.24-0.63,0.24-1.1h-0.65v-1.89h1.38v1.44
				c0,0.75-0.14,1.34-0.43,1.8C297.56,286.71,297.13,287.01,296.55,287.15z"/>
			<path class="st0" d="M304.26,284.91V272.1h4.21c1.27,0,2.38,0.26,3.32,0.78c0.94,0.52,1.67,1.26,2.18,2.22
				c0.52,0.96,0.77,2.09,0.77,3.4c0,1.3-0.26,2.43-0.77,3.39c-0.52,0.96-1.25,1.71-2.18,2.23c-0.94,0.53-2.05,0.79-3.32,0.79H304.26
				z M305.63,283.62h2.84c0.99,0,1.84-0.21,2.56-0.63c0.72-0.42,1.28-1.01,1.68-1.78c0.39-0.77,0.59-1.67,0.59-2.72
				c0-1.04-0.2-1.95-0.6-2.71c-0.4-0.76-0.96-1.35-1.69-1.77c-0.72-0.42-1.57-0.63-2.54-0.63h-2.84V283.62z"/>
			<path class="st0" d="M321.15,285.12c-0.87,0-1.66-0.21-2.37-0.63c-0.71-0.42-1.28-0.99-1.69-1.72c-0.42-0.73-0.63-1.56-0.63-2.49
				c0-0.92,0.21-1.74,0.62-2.46c0.41-0.72,0.97-1.29,1.67-1.71c0.71-0.42,1.51-0.63,2.4-0.63s1.69,0.2,2.4,0.62
				c0.7,0.41,1.26,0.98,1.67,1.7s0.61,1.55,0.61,2.48c0,0.94-0.21,1.77-0.64,2.5c-0.42,0.73-0.99,1.3-1.69,1.71
				C322.79,284.91,322,285.12,321.15,285.12z M321.15,283.83c0.62,0,1.18-0.15,1.68-0.46c0.5-0.31,0.89-0.73,1.19-1.27
				c0.29-0.54,0.44-1.14,0.44-1.81s-0.14-1.26-0.44-1.79c-0.29-0.53-0.69-0.94-1.19-1.26c-0.5-0.31-1.06-0.46-1.68-0.46
				s-1.18,0.16-1.68,0.46c-0.5,0.31-0.9,0.73-1.19,1.26c-0.3,0.53-0.45,1.12-0.45,1.79s0.15,1.27,0.45,1.81
				c0.3,0.54,0.7,0.96,1.19,1.27C319.97,283.68,320.53,283.83,321.15,283.83z"/>
			<path class="st0" d="M337.05,285.12c-0.91,0-1.74-0.16-2.49-0.49c-0.76-0.33-1.41-0.78-1.97-1.37c-0.55-0.59-0.99-1.29-1.3-2.09
				c-0.31-0.8-0.47-1.69-0.47-2.65c0-0.96,0.16-1.85,0.47-2.65c0.31-0.8,0.74-1.5,1.3-2.1c0.56-0.6,1.21-1.06,1.97-1.39
				c0.76-0.33,1.59-0.49,2.49-0.49c0.87,0,1.65,0.16,2.35,0.47c0.69,0.31,1.28,0.71,1.76,1.19c0.47,0.49,0.82,1,1.02,1.54l-1.24,0.6
				c-0.32-0.78-0.82-1.39-1.48-1.84c-0.67-0.45-1.47-0.67-2.41-0.67s-1.78,0.23-2.51,0.67c-0.73,0.45-1.31,1.07-1.72,1.87
				c-0.41,0.8-0.62,1.73-0.62,2.8c0,1.05,0.21,1.98,0.62,2.79c0.41,0.8,0.99,1.42,1.72,1.87c0.74,0.44,1.57,0.66,2.51,0.66
				c0.84,0,1.59-0.18,2.26-0.55c0.67-0.37,1.2-0.87,1.59-1.5c0.39-0.64,0.59-1.37,0.59-2.19v-0.71l0.62,0.62h-5.06v-1.2h5.81v1.07
				c0,0.84-0.15,1.61-0.45,2.31c-0.3,0.7-0.71,1.32-1.24,1.83c-0.53,0.52-1.14,0.91-1.85,1.2
				C338.63,284.98,337.87,285.12,337.05,285.12z"/>
			<path class="st0" d="M349.45,285.12c-0.87,0-1.66-0.21-2.37-0.63c-0.71-0.42-1.28-0.99-1.69-1.72c-0.42-0.73-0.63-1.56-0.63-2.49
				c0-0.92,0.21-1.74,0.62-2.46c0.41-0.72,0.97-1.29,1.68-1.71c0.71-0.42,1.51-0.63,2.4-0.63s1.69,0.2,2.4,0.62
				c0.7,0.41,1.26,0.98,1.67,1.7c0.41,0.72,0.61,1.55,0.61,2.48c0,0.94-0.21,1.77-0.64,2.5c-0.42,0.73-0.99,1.3-1.69,1.71
				C351.1,284.91,350.31,285.12,349.45,285.12z M349.45,283.83c0.62,0,1.18-0.15,1.68-0.46c0.5-0.31,0.89-0.73,1.19-1.27
				c0.29-0.54,0.44-1.14,0.44-1.81s-0.14-1.26-0.44-1.79c-0.29-0.53-0.69-0.94-1.19-1.26c-0.5-0.31-1.06-0.46-1.68-0.46
				s-1.18,0.16-1.68,0.46c-0.5,0.31-0.9,0.73-1.19,1.26c-0.3,0.53-0.45,1.12-0.45,1.79s0.15,1.27,0.45,1.81
				c0.3,0.54,0.7,0.96,1.19,1.27C348.28,283.68,348.84,283.83,349.45,283.83z"/>
			<path class="st0" d="M360.72,285.12c-0.87,0-1.66-0.21-2.37-0.63c-0.71-0.42-1.28-0.99-1.69-1.72c-0.42-0.73-0.63-1.56-0.63-2.49
				c0-0.92,0.21-1.74,0.62-2.46c0.41-0.72,0.97-1.29,1.67-1.71c0.71-0.42,1.51-0.63,2.4-0.63s1.69,0.2,2.4,0.62
				c0.7,0.41,1.26,0.98,1.67,1.7c0.41,0.72,0.61,1.55,0.61,2.48c0,0.94-0.21,1.77-0.64,2.5c-0.42,0.73-0.99,1.3-1.69,1.71
				C362.36,284.91,361.58,285.12,360.72,285.12z M360.72,283.83c0.62,0,1.18-0.15,1.68-0.46c0.5-0.31,0.89-0.73,1.19-1.27
				c0.29-0.54,0.44-1.14,0.44-1.81s-0.14-1.26-0.44-1.79c-0.29-0.53-0.69-0.94-1.19-1.26c-0.5-0.31-1.06-0.46-1.68-0.46
				c-0.62,0-1.18,0.16-1.68,0.46c-0.5,0.31-0.9,0.73-1.19,1.26c-0.3,0.53-0.45,1.12-0.45,1.79s0.15,1.27,0.45,1.81
				c0.3,0.54,0.7,0.96,1.19,1.27C359.54,283.68,360.1,283.83,360.72,283.83z"/>
			<path class="st0" d="M371.83,285.12c-0.86,0-1.63-0.21-2.32-0.63c-0.69-0.42-1.23-0.99-1.62-1.72c-0.4-0.73-0.6-1.55-0.6-2.47
				c0-0.93,0.2-1.76,0.6-2.48c0.39-0.72,0.93-1.29,1.62-1.71c0.68-0.42,1.46-0.63,2.33-0.63c0.79,0,1.5,0.17,2.12,0.52
				c0.62,0.34,1.11,0.81,1.46,1.39l-0.21,0.36v-5.86h1.29v13.02h-1.29v-2.06l0.21,0.19c-0.32,0.67-0.8,1.18-1.44,1.54
				C373.33,284.94,372.62,285.12,371.83,285.12z M371.9,283.83c0.62,0,1.18-0.15,1.67-0.46c0.5-0.31,0.9-0.73,1.19-1.26
				c0.29-0.53,0.44-1.13,0.44-1.8s-0.14-1.27-0.44-1.8s-0.69-0.95-1.19-1.26c-0.5-0.31-1.06-0.46-1.67-0.46
				c-0.61,0-1.16,0.16-1.65,0.46c-0.49,0.31-0.88,0.73-1.16,1.26c-0.28,0.53-0.42,1.13-0.42,1.81c0,0.67,0.14,1.26,0.42,1.8
				c0.28,0.53,0.66,0.96,1.15,1.26C370.72,283.68,371.28,283.83,371.9,283.83z"/>
		</g>
	</g>
</g>
</svg>
