<?xml version="1.0" encoding="utf-8"?>
<!-- Generator: Adobe Illustrator 27.4.1, SVG Export Plug-In . SVG Version: 6.00 Build 0)  -->
<svg version="1.1" id="Layer_1" xmlns="http://www.w3.org/2000/svg" xmlns:xlink="http://www.w3.org/1999/xlink" x="0px" y="0px"
	 viewBox="0 0 500 500" style="enable-background:new 0 0 500 500;" xml:space="preserve">
<style type="text/css">
	.st0{fill:#126090;}
	.st1{fill:#017373;}
	.st2{fill:#116090;}
</style>
<g id="Aseel_Logo_00000025416820459070659970000010159681898982872197_">
	<g>
		<g id="Symbol_00000001661635658042969090000015628482436632013462_">
			<polygon class="st0" points="146.98,251.71 162.86,251.71 143.01,271.56 127.14,271.56 			"/>
			<polygon class="st0" points="165.71,270.43 165.71,254.56 145.86,274.4 145.86,290.28 			"/>
			<polygon class="st0" points="187.85,248.29 171.97,248.29 191.82,228.44 207.7,228.44 			"/>
			<polygon class="st0" points="169.13,229.57 169.13,245.44 188.97,225.6 188.97,209.72 			"/>
			<polygon class="st0" points="165.71,229.57 165.71,245.44 145.86,225.6 145.86,209.72 			"/>
			<polygon class="st0" points="146.98,248.29 162.86,248.29 143.01,228.44 127.14,228.44 			"/>
			<polygon class="st0" points="169.13,270.43 169.13,254.56 188.97,274.4 188.97,290.28 			"/>
			<polygon class="st0" points="187.85,251.71 171.97,251.71 191.82,271.56 207.7,271.56 			"/>
			
				<rect x="165.4" y="247.99" transform="matrix(0.7071 -0.7071 0.7071 0.7071 -127.741 191.606)" class="st0" width="4.03" height="4.03"/>
		</g>
		<g id="Logotype_00000054252314050801799780000015483124191953499280_">
			<g>
				<g id="Aseel_00000061451224876284926980000003984227166282115223_">
					<path class="st0" d="M232.98,228.05l-15.14,43.9h8.66l3.18-9.43h16.97l3.12,9.43h8.72l-15.14-43.9H232.98z M231.97,255.45
						l6.19-18.51l6.19,18.51H231.97z"/>
					<path class="st0" d="M274.11,244.79c1.61,0,3.06,0.43,4.36,1.29c1.29,0.86,2.22,2.02,2.77,3.48l5.89-2.77
						c-0.98-2.63-2.63-4.67-4.95-6.13c-2.32-1.45-4.99-2.18-8.01-2.18c-2.32,0-4.37,0.41-6.16,1.24c-1.79,0.82-3.18,1.98-4.18,3.45
						c-1,1.47-1.5,3.19-1.5,5.16c0,2.2,0.7,4.11,2.09,5.72c1.39,1.61,3.45,2.81,6.16,3.59l5.24,1.47c0.67,0.2,1.29,0.44,1.86,0.74
						c0.57,0.29,1.02,0.65,1.36,1.06s0.5,0.93,0.5,1.56c0,1.02-0.41,1.85-1.24,2.47c-0.82,0.63-1.94,0.94-3.36,0.94
						c-1.81,0-3.45-0.51-4.92-1.53c-1.47-1.02-2.62-2.43-3.45-4.24l-5.78,2.77c0.94,2.79,2.68,5,5.22,6.63
						c2.53,1.63,5.51,2.45,8.93,2.45c2.43,0,4.55-0.41,6.36-1.24c1.8-0.82,3.22-1.97,4.24-3.45c1.02-1.47,1.53-3.17,1.53-5.1
						c0-2.28-0.72-4.2-2.15-5.78c-1.43-1.57-3.47-2.75-6.1-3.54l-5.13-1.53c-0.75-0.24-1.4-0.49-1.97-0.77
						c-0.57-0.27-1.01-0.63-1.33-1.06c-0.32-0.43-0.47-0.94-0.47-1.53c0-0.94,0.37-1.71,1.12-2.3
						C271.79,245.08,272.81,244.79,274.11,244.79z"/>
					<path class="st0" d="M319.12,243.13c-1.33-1.45-2.95-2.59-4.86-3.42c-1.9-0.82-4.12-1.24-6.63-1.24c-2.98,0-5.69,0.73-8.1,2.18
						c-2.42,1.46-4.32,3.43-5.72,5.92c-1.39,2.5-2.09,5.35-2.09,8.57c0,3.1,0.69,5.93,2.06,8.49c1.38,2.55,3.3,4.58,5.78,6.07
						c2.47,1.49,5.36,2.24,8.66,2.24c2.2,0,4.21-0.33,6.04-1c1.83-0.67,3.41-1.59,4.74-2.77c1.34-1.18,2.32-2.53,2.95-4.07
						l-6.25-3.06c-0.71,1.26-1.68,2.26-2.92,3c-1.24,0.75-2.74,1.12-4.51,1.12c-1.77,0-3.33-0.41-4.68-1.24
						c-1.36-0.82-2.38-1.99-3.07-3.51c-0.42-0.92-0.66-1.94-0.77-3.03h23.07c0.15-0.43,0.27-0.94,0.32-1.53
						c0.06-0.59,0.09-1.16,0.09-1.71c0-2.16-0.35-4.17-1.06-6.04C321.48,246.25,320.46,244.59,319.12,243.13z M303.33,246.05
						c1.26-0.8,2.69-1.21,4.3-1.21c1.69,0,3.13,0.41,4.33,1.24c1.2,0.82,2.06,1.95,2.59,3.36c0.24,0.64,0.38,1.33,0.44,2.06h-15.02
						c0.13-0.67,0.26-1.34,0.5-1.91C301.12,248.04,302.07,246.86,303.33,246.05z"/>
					<path class="st0" d="M355.19,243.13c-1.33-1.45-2.95-2.59-4.86-3.42c-1.9-0.82-4.12-1.24-6.63-1.24c-2.98,0-5.69,0.73-8.1,2.18
						c-2.42,1.46-4.32,3.43-5.72,5.92c-1.39,2.5-2.09,5.35-2.09,8.57c0,3.1,0.69,5.93,2.06,8.49c1.38,2.55,3.3,4.58,5.78,6.07
						c2.47,1.49,5.36,2.24,8.66,2.24c2.2,0,4.21-0.33,6.04-1c1.83-0.67,3.41-1.59,4.74-2.77c1.34-1.18,2.32-2.53,2.95-4.07
						l-6.25-3.06c-0.71,1.26-1.68,2.26-2.92,3c-1.24,0.75-2.74,1.12-4.51,1.12c-1.77,0-3.33-0.41-4.68-1.24
						c-1.36-0.82-2.38-1.99-3.07-3.51c-0.42-0.92-0.66-1.94-0.77-3.03h23.07c0.15-0.43,0.27-0.94,0.32-1.53
						c0.06-0.59,0.09-1.16,0.09-1.71c0-2.16-0.35-4.17-1.06-6.04C357.54,246.25,356.52,244.59,355.19,243.13z M339.4,246.05
						c1.26-0.8,2.69-1.21,4.3-1.21c1.69,0,3.13,0.41,4.33,1.24c1.2,0.82,2.06,1.95,2.59,3.36c0.24,0.64,0.38,1.33,0.44,2.06h-15.02
						c0.13-0.67,0.26-1.34,0.5-1.91C337.18,248.04,338.14,246.86,339.4,246.05z"/>
					<rect x="365.15" y="228.05" class="st0" width="7.72" height="43.9"/>
				</g>
			</g>
		</g>
	</g>
</g>
</svg>
