<?xml version="1.0" encoding="utf-8"?>
<!-- Generator: Adobe Illustrator 28.0.0, SVG Export Plug-In . SVG Version: 6.00 Build 0)  -->
<svg version="1.1" id="Layer_1" xmlns="http://www.w3.org/2000/svg" xmlns:xlink="http://www.w3.org/1999/xlink" x="0px" y="0px"
	 viewBox="0 0 430 33.2" style="enable-background:new 0 0 430 33.2;" xml:space="preserve">
<style type="text/css">
	.st0{fill:#017373;}
</style>
<g id="Aseel_Logo_00000168093636355068846810000004403591852026269370_">
	<g id="Symbol_00000026162474415886954790000016098140241973428380_">
		<polygon class="st0" points="16.2,24.5 16.2,18.3 23.9,26 23.9,32.1 		"/>
		<polygon class="st0" points="23.4,17.3 17.3,17.3 24.9,24.9 31.1,24.9 		"/>
		<polygon class="st0" points="14.9,8.7 14.9,14.8 7.2,7.2 7.2,1.1 		"/>
		<polygon class="st0" points="7.7,15.9 13.8,15.9 6.1,8.3 0,8.3 		"/>
		<polygon class="st0" points="7.7,17.3 13.8,17.3 6.1,24.9 0,24.9 		"/>
		<polygon class="st0" points="14.9,24.5 14.9,18.3 7.2,26 7.2,32.1 		"/>
		<polygon class="st0" points="23.4,15.9 17.3,15.9 24.9,8.3 31.1,8.3 		"/>
		<polygon class="st0" points="16.2,8.7 16.2,14.8 23.9,7.2 23.9,1.1 		"/>
		<rect x="14.8" y="15.8" transform="matrix(-0.7071 -0.7071 0.7071 -0.7071 14.7865 39.3)" class="st0" width="1.5" height="1.5"/>
	</g>
	<g id="Aseel_Logo_00000019655136771913624990000005005139072739496371_">
		<g id="Logotype_00000029039398117425861450000016323374072055515583_">
			<g>
				<path class="st0" d="M47.5,4.5l-7.7,22.4h4.4l1.6-4.8h8.7l1.6,4.8h4.4L52.8,4.5H47.5z M46.9,18.5l3.2-9.4l3.2,9.4H46.9z"/>
				<path class="st0" d="M68.4,13.4c0.8,0,1.6,0.2,2.2,0.7c0.7,0.4,1.1,1,1.4,1.8l3-1.4c-0.5-1.3-1.3-2.4-2.5-3.1
					c-1.2-0.7-2.5-1.1-4.1-1.1c-1.2,0-2.2,0.2-3.1,0.6c-0.9,0.4-1.6,1-2.1,1.8c-0.5,0.8-0.8,1.6-0.8,2.6c0,1.1,0.4,2.1,1.1,2.9
					c0.7,0.8,1.8,1.4,3.1,1.8l2.7,0.8c0.3,0.1,0.7,0.2,0.9,0.4c0.3,0.2,0.5,0.3,0.7,0.5c0.2,0.2,0.3,0.5,0.3,0.8
					c0,0.5-0.2,0.9-0.6,1.3c-0.4,0.3-1,0.5-1.7,0.5c-0.9,0-1.8-0.3-2.5-0.8s-1.3-1.2-1.8-2.2l-2.9,1.4c0.5,1.4,1.4,2.5,2.7,3.4
					c1.3,0.8,2.8,1.2,4.6,1.2c1.2,0,2.3-0.2,3.2-0.6c0.9-0.4,1.6-1,2.2-1.8c0.5-0.8,0.8-1.6,0.8-2.6c0-1.2-0.4-2.1-1.1-2.9
					c-0.7-0.8-1.8-1.4-3.1-1.8l-2.6-0.8c-0.4-0.1-0.7-0.2-1-0.4c-0.3-0.1-0.5-0.3-0.7-0.5c-0.2-0.2-0.2-0.5-0.2-0.8
					c0-0.5,0.2-0.9,0.6-1.2C67.3,13.6,67.8,13.4,68.4,13.4z"/>
				<path class="st0" d="M91.4,12.6c-0.7-0.7-1.5-1.3-2.5-1.7c-1-0.4-2.1-0.6-3.4-0.6c-1.5,0-2.9,0.4-4.1,1.1
					c-1.2,0.7-2.2,1.7-2.9,3c-0.7,1.3-1.1,2.7-1.1,4.4c0,1.6,0.4,3,1.1,4.3c0.7,1.3,1.7,2.3,2.9,3.1c1.3,0.8,2.7,1.1,4.4,1.1
					c1.1,0,2.1-0.2,3.1-0.5c0.9-0.3,1.7-0.8,2.4-1.4c0.7-0.6,1.2-1.3,1.5-2.1l-3.2-1.6c-0.4,0.6-0.9,1.2-1.5,1.5
					c-0.6,0.4-1.4,0.6-2.3,0.6c-0.9,0-1.7-0.2-2.4-0.6c-0.7-0.4-1.2-1-1.6-1.8c-0.2-0.4-0.2-1-0.2-1.5h11.6c0.1-0.2,0.1-0.5,0.2-0.8
					c0-0.3,0-0.6,0-0.9c0-1.1-0.2-2.1-0.5-3.1C92.6,14.2,92.1,13.3,91.4,12.6z M83.4,14.1c0.6-0.4,1.4-0.6,2.2-0.6
					c0.9,0,1.6,0.2,2.2,0.6c0.6,0.4,1.1,1,1.3,1.7c0.1,0.3,0,0.7,0.1,1.1h-7.4c0.1-0.3,0-0.7,0.1-1C82.2,15.1,82.7,14.5,83.4,14.1z"
					/>
				<path class="st0" d="M109.8,12.6c-0.7-0.7-1.5-1.3-2.5-1.7c-1-0.4-2.1-0.6-3.4-0.6c-1.5,0-2.9,0.4-4.1,1.1
					c-1.2,0.7-2.2,1.7-2.9,3c-0.7,1.3-1.1,2.7-1.1,4.4c0,1.6,0.4,3,1.1,4.3c0.7,1.3,1.7,2.3,2.9,3.1c1.3,0.8,2.7,1.1,4.4,1.1
					c1.1,0,2.1-0.2,3.1-0.5c0.9-0.3,1.7-0.8,2.4-1.4c0.7-0.6,1.2-1.3,1.5-2.1l-3.2-1.6c-0.4,0.6-0.9,1.2-1.5,1.5
					c-0.6,0.4-1.4,0.6-2.3,0.6c-0.9,0-1.7-0.2-2.4-0.6c-0.7-0.4-1.2-1-1.6-1.8c-0.2-0.4-0.2-1-0.2-1.5h11.6c0.1-0.2,0.1-0.5,0.2-0.8
					c0-0.3,0-0.6,0-0.9c0-1.1-0.2-2.1-0.5-3.1C111,14.2,110.5,13.3,109.8,12.6z M101.8,14.1c0.6-0.4,1.4-0.6,2.2-0.6
					c0.9,0,1.6,0.2,2.2,0.6c0.6,0.4,1.1,1,1.3,1.7c0.1,0.3,0,0.7,0.1,1.1h-7.4c0.1-0.3,0-0.7,0.1-1
					C100.6,15.1,101.1,14.5,101.8,14.1z"/>
				<rect x="114.9" y="4.2" class="st0" width="3.9" height="22.8"/>
			</g>
			<path class="st0" d="M132.4,31.5V0h1v31.5H132.4z"/>
			<g>
				<path class="st0" d="M161.6,15.5c-0.5-0.4-1.1-0.7-1.7-1c0.8-0.4,1.4-1,1.9-1.7c0.6-0.9,0.9-1.9,0.9-3.1c0-1.1-0.3-2.1-0.8-2.9
					c-0.5-0.8-1.2-1.5-2.2-2c-0.9-0.5-2-0.7-3.3-0.7h-9.4v22.4h9.4c2.2,0,3.9-0.6,5.2-1.8c1.3-1.2,1.9-2.8,1.9-4.8
					c0-0.9-0.2-1.7-0.5-2.5C162.8,16.8,162.3,16.1,161.6,15.5z M149.5,6.4h6.8c1.2,0,2.2,0.3,2.9,0.9c0.7,0.6,1.1,1.4,1.1,2.6
					c0,1.1-0.4,2-1.1,2.7c-0.7,0.7-1.7,1.1-2.9,1.1h-6.8V6.4z M159.9,23.2c-0.9,0.8-2,1.1-3.4,1.1h-7v-8.5h7c1.4,0,2.6,0.4,3.4,1.2
					c0.9,0.8,1.3,1.8,1.3,3.1C161.2,21.4,160.8,22.4,159.9,23.2z"/>
				<path class="st0" d="M177.9,20c0,1-0.2,1.8-0.5,2.5c-0.4,0.7-0.9,1.2-1.5,1.6c-0.6,0.4-1.4,0.6-2.2,0.6c-0.8,0-1.5-0.2-2.2-0.5
					c-0.6-0.4-1.1-0.9-1.5-1.5c-0.3-0.7-0.5-1.4-0.5-2.3v-9.9h-2.3v10.2c0,1.2,0.3,2.3,0.8,3.3c0.5,1,1.3,1.7,2.2,2.2
					c0.9,0.5,1.9,0.8,3.1,0.8c1.2,0,2.3-0.3,3.2-0.9c0.6-0.4,1.1-0.9,1.4-1.5v2.1h2.3V10.5h-2.3V20z"/>
				<path class="st0" d="M190.5,23.8l-5.3-13.3h-2.4l6.4,16.1l-0.6,1.4c-0.5,1.2-1,1.9-1.5,2.4c-0.5,0.4-1.3,0.6-2.3,0.6
					c-0.3,0-0.6,0-0.9-0.1c-0.3-0.1-0.6-0.1-0.8-0.1v2.1c0.3,0.1,0.6,0.2,1,0.3c0.3,0,0.7,0.1,1,0.1c1.1,0,2-0.2,2.7-0.6
					c0.7-0.4,1.4-1,1.8-1.7c0.5-0.7,0.9-1.4,1.2-2.2l7.4-18.2h-2.5L190.5,23.8z"/>
				<path class="st0" d="M216.6,17.1h7.8v0.2c0,1.4-0.3,2.7-1,3.8c-0.7,1.1-1.6,2-2.8,2.6c-1.2,0.6-2.5,1-4,1
					c-1.6,0-3.1-0.4-4.4-1.2c-1.3-0.8-2.3-1.9-3-3.3c-0.7-1.4-1.1-3-1.1-4.9c0-1.9,0.4-3.5,1.1-4.9c0.7-1.4,1.7-2.5,3-3.3
					c1.3-0.8,2.7-1.2,4.4-1.2c1.6,0,3,0.4,4.2,1.2c1.2,0.8,2,1.9,2.6,3.2l2.2-1.1c-0.4-0.9-1-1.8-1.8-2.7c-0.8-0.9-1.9-1.5-3.1-2.1
					c-1.2-0.5-2.6-0.8-4.1-0.8c-1.6,0-3,0.3-4.4,0.9c-1.3,0.6-2.5,1.4-3.4,2.4c-1,1-1.7,2.3-2.3,3.7c-0.5,1.4-0.8,2.9-0.8,4.6
					c0,1.7,0.3,3.2,0.8,4.6c0.5,1.4,1.3,2.6,2.3,3.7c1,1,2.1,1.8,3.4,2.4c1.3,0.6,2.8,0.9,4.4,0.9c1.4,0,2.8-0.2,4-0.7
					c1.2-0.5,2.3-1.2,3.2-2.1c0.9-0.9,1.6-2,2.2-3.2c0.5-1.2,0.8-2.6,0.8-4V15h-10.2V17.1z"/>
				<path class="st0" d="M242.4,11.2c-1.2-0.7-2.6-1.1-4.2-1.1c-1.6,0-3,0.4-4.2,1.1c-1.2,0.7-2.2,1.7-2.9,3
					c-0.7,1.3-1.1,2.7-1.1,4.3c0,1.6,0.4,3.1,1.1,4.3c0.7,1.3,1.7,2.3,3,3c1.2,0.7,2.6,1.1,4.1,1.1c1.5,0,2.9-0.4,4.1-1.1
					c1.2-0.7,2.2-1.7,3-3c0.7-1.3,1.1-2.7,1.1-4.4c0-1.6-0.4-3.1-1.1-4.3C244.7,12.9,243.7,11.9,242.4,11.2z M243.3,21.6
					c-0.5,0.9-1.2,1.7-2.1,2.2c-0.9,0.5-1.8,0.8-2.9,0.8c-1.1,0-2.1-0.3-2.9-0.8c-0.9-0.5-1.6-1.3-2.1-2.2c-0.5-0.9-0.8-2-0.8-3.2
					c0-1.2,0.3-2.2,0.8-3.1c0.5-0.9,1.2-1.7,2.1-2.2c0.9-0.5,1.8-0.8,2.9-0.8c1.1,0,2.1,0.3,2.9,0.8c0.9,0.5,1.6,1.3,2.1,2.2
					c0.5,0.9,0.8,2,0.8,3.1C244,19.6,243.8,20.7,243.3,21.6z"/>
				<path class="st0" d="M262.1,11.2c-1.2-0.7-2.6-1.1-4.2-1.1c-1.6,0-3,0.4-4.2,1.1c-1.2,0.7-2.2,1.7-2.9,3s-1.1,2.7-1.1,4.3
					c0,1.6,0.4,3.1,1.1,4.3c0.7,1.3,1.7,2.3,3,3c1.2,0.7,2.6,1.1,4.1,1.1c1.5,0,2.9-0.4,4.1-1.1c1.2-0.7,2.2-1.7,3-3
					c0.7-1.3,1.1-2.7,1.1-4.4c0-1.6-0.4-3.1-1.1-4.3C264.3,12.9,263.4,11.9,262.1,11.2z M263,21.6c-0.5,0.9-1.2,1.7-2.1,2.2
					c-0.9,0.5-1.8,0.8-2.9,0.8c-1.1,0-2.1-0.3-2.9-0.8c-0.9-0.5-1.6-1.3-2.1-2.2c-0.5-0.9-0.8-2-0.8-3.2c0-1.2,0.3-2.2,0.8-3.1
					c0.5-0.9,1.2-1.7,2.1-2.2c0.9-0.5,1.8-0.8,2.9-0.8c1.1,0,2.1,0.3,2.9,0.8c0.9,0.5,1.6,1.3,2.1,2.2s0.8,2,0.8,3.1
					C263.7,19.6,263.5,20.7,263,21.6z"/>
				<path class="st0" d="M283.3,13.1c-0.6-0.8-1.3-1.6-2.2-2.1c-1.1-0.6-2.3-0.9-3.7-0.9c-1.5,0-2.9,0.4-4.1,1.1
					c-1.2,0.7-2.1,1.7-2.8,3c-0.7,1.3-1,2.7-1,4.3c0,1.6,0.3,3,1,4.3c0.7,1.3,1.6,2.3,2.8,3c1.2,0.7,2.6,1.1,4.1,1.1
					c1.4,0,2.6-0.3,3.7-0.9c0.9-0.5,1.6-1.3,2.2-2.2v2.7h2.3V3.8h-2.3V13.1z M282.5,21.6c-0.5,0.9-1.2,1.7-2.1,2.2
					c-0.9,0.5-1.8,0.8-2.9,0.8c-1.1,0-2.1-0.3-2.9-0.8c-0.9-0.5-1.5-1.3-2-2.2c-0.5-0.9-0.7-2-0.7-3.1c0-1.2,0.2-2.2,0.7-3.2
					c0.5-0.9,1.2-1.7,2-2.2c0.9-0.5,1.8-0.8,2.9-0.8c1.1,0,2.1,0.3,2.9,0.8c0.9,0.5,1.6,1.3,2.1,2.2c0.5,0.9,0.8,2,0.8,3.1
					C283.3,19.7,283,20.7,282.5,21.6z"/>
				<path class="st0" d="M290.8,26.6h1.1c0,0.8-0.1,1.5-0.4,1.9c-0.3,0.5-0.7,0.8-1.3,0.9v1.1c1-0.2,1.8-0.8,2.3-1.6
					c0.5-0.8,0.8-1.8,0.8-3.1v-2.5h-2.4V26.6z"/>
				<path class="st0" d="M316.9,5.5c-1.6-0.9-3.6-1.4-5.8-1.4h-7.4v22.4h7.4c2.2,0,4.2-0.5,5.8-1.4c1.6-0.9,2.9-2.2,3.8-3.9
					c0.9-1.7,1.4-3.7,1.4-5.9c0-2.3-0.5-4.3-1.4-5.9C319.8,7.7,318.5,6.4,316.9,5.5z M318.5,20.1c-0.7,1.3-1.7,2.4-2.9,3.1
					c-1.3,0.7-2.8,1.1-4.5,1.1h-5V6.4h5c1.7,0,3.2,0.4,4.4,1.1c1.3,0.7,2.2,1.8,2.9,3.1c0.7,1.3,1.1,2.9,1.1,4.7
					C319.5,17.2,319.2,18.8,318.5,20.1z"/>
				<path class="st0" d="M337.4,11.2c-1.2-0.7-2.6-1.1-4.2-1.1c-1.6,0-3,0.4-4.2,1.1c-1.2,0.7-2.2,1.7-2.9,3
					c-0.7,1.3-1.1,2.7-1.1,4.3c0,1.6,0.4,3.1,1.1,4.3c0.7,1.3,1.7,2.3,3,3c1.2,0.7,2.6,1.1,4.1,1.1c1.5,0,2.9-0.4,4.1-1.1
					c1.2-0.7,2.2-1.7,3-3c0.7-1.3,1.1-2.7,1.1-4.4c0-1.6-0.4-3.1-1.1-4.3C339.6,12.9,338.6,11.9,337.4,11.2z M338.2,21.6
					c-0.5,0.9-1.2,1.7-2.1,2.2c-0.9,0.5-1.8,0.8-2.9,0.8c-1.1,0-2.1-0.3-2.9-0.8c-0.9-0.5-1.6-1.3-2.1-2.2c-0.5-0.9-0.8-2-0.8-3.2
					c0-1.2,0.3-2.2,0.8-3.1c0.5-0.9,1.2-1.7,2.1-2.2c0.9-0.5,1.8-0.8,2.9-0.8c1.1,0,2.1,0.3,2.9,0.8c0.9,0.5,1.6,1.3,2.1,2.2
					s0.8,2,0.8,3.1C339,19.6,338.7,20.7,338.2,21.6z"/>
				<path class="st0" d="M361,17.1h7.8v0.2c0,1.4-0.3,2.7-1,3.8c-0.7,1.1-1.6,2-2.8,2.6c-1.2,0.6-2.5,1-4,1c-1.6,0-3.1-0.4-4.4-1.2
					c-1.3-0.8-2.3-1.9-3-3.3c-0.7-1.4-1.1-3-1.1-4.9c0-1.9,0.4-3.5,1.1-4.9c0.7-1.4,1.7-2.5,3-3.3c1.3-0.8,2.7-1.2,4.4-1.2
					c1.6,0,3,0.4,4.2,1.2c1.2,0.8,2,1.9,2.6,3.2l2.2-1.1c-0.4-0.9-1-1.8-1.8-2.7c-0.8-0.9-1.9-1.5-3.1-2.1c-1.2-0.5-2.6-0.8-4.1-0.8
					c-1.6,0-3,0.3-4.4,0.9c-1.3,0.6-2.5,1.4-3.4,2.4c-1,1-1.7,2.3-2.3,3.7c-0.5,1.4-0.8,2.9-0.8,4.6c0,1.7,0.3,3.2,0.8,4.6
					c0.5,1.4,1.3,2.6,2.3,3.7c1,1,2.1,1.8,3.4,2.4c1.3,0.6,2.8,0.9,4.4,0.9c1.4,0,2.8-0.2,4-0.7c1.2-0.5,2.3-1.2,3.2-2.1
					c0.9-0.9,1.6-2,2.2-3.2c0.5-1.2,0.8-2.6,0.8-4V15H361V17.1z"/>
				<path class="st0" d="M386.9,11.2c-1.2-0.7-2.6-1.1-4.2-1.1c-1.6,0-3,0.4-4.2,1.1c-1.2,0.7-2.2,1.7-2.9,3
					c-0.7,1.3-1.1,2.7-1.1,4.3c0,1.6,0.4,3.1,1.1,4.3c0.7,1.3,1.7,2.3,3,3c1.2,0.7,2.6,1.1,4.1,1.1c1.5,0,2.9-0.4,4.1-1.1
					c1.2-0.7,2.2-1.7,3-3c0.7-1.3,1.1-2.7,1.1-4.4c0-1.6-0.4-3.1-1.1-4.3C389.1,12.9,388.1,11.9,386.9,11.2z M387.7,21.6
					c-0.5,0.9-1.2,1.7-2.1,2.2c-0.9,0.5-1.8,0.8-2.9,0.8c-1.1,0-2.1-0.3-2.9-0.8c-0.9-0.5-1.6-1.3-2.1-2.2c-0.5-0.9-0.8-2-0.8-3.2
					c0-1.2,0.3-2.2,0.8-3.1c0.5-0.9,1.2-1.7,2.1-2.2c0.9-0.5,1.8-0.8,2.9-0.8c1.1,0,2.1,0.3,2.9,0.8c0.9,0.5,1.6,1.3,2.1,2.2
					s0.8,2,0.8,3.1C388.5,19.6,388.2,20.7,387.7,21.6z"/>
				<path class="st0" d="M406.6,11.2c-1.2-0.7-2.6-1.1-4.2-1.1c-1.6,0-3,0.4-4.2,1.1c-1.2,0.7-2.2,1.7-2.9,3s-1.1,2.7-1.1,4.3
					c0,1.6,0.4,3.1,1.1,4.3c0.7,1.3,1.7,2.3,3,3c1.2,0.7,2.6,1.1,4.1,1.1c1.5,0,2.9-0.4,4.1-1.1c1.2-0.7,2.2-1.7,3-3
					c0.7-1.3,1.1-2.7,1.1-4.4c0-1.6-0.4-3.1-1.1-4.3C408.8,12.9,407.8,11.9,406.6,11.2z M407.4,21.6c-0.5,0.9-1.2,1.7-2.1,2.2
					c-0.9,0.5-1.8,0.8-2.9,0.8c-1.1,0-2.1-0.3-2.9-0.8c-0.9-0.5-1.6-1.3-2.1-2.2c-0.5-0.9-0.8-2-0.8-3.2c0-1.2,0.3-2.2,0.8-3.1
					c0.5-0.9,1.2-1.7,2.1-2.2c0.9-0.5,1.8-0.8,2.9-0.8c1.1,0,2.1,0.3,2.9,0.8c0.9,0.5,1.6,1.3,2.1,2.2s0.8,2,0.8,3.1
					C408.2,19.6,407.9,20.7,407.4,21.6z"/>
				<path class="st0" d="M427.7,3.8v9.3c-0.6-0.8-1.3-1.6-2.2-2.1c-1.1-0.6-2.3-0.9-3.7-0.9c-1.5,0-2.9,0.4-4.1,1.1
					c-1.2,0.7-2.1,1.7-2.8,3c-0.7,1.3-1,2.7-1,4.3c0,1.6,0.3,3,1,4.3c0.7,1.3,1.6,2.3,2.8,3c1.2,0.7,2.6,1.1,4.1,1.1
					c1.4,0,2.6-0.3,3.7-0.9c0.9-0.5,1.6-1.3,2.2-2.2v2.7h2.3V3.8H427.7z M426.9,21.6c-0.5,0.9-1.2,1.7-2.1,2.2
					c-0.9,0.5-1.8,0.8-2.9,0.8c-1.1,0-2.1-0.3-2.9-0.8c-0.9-0.5-1.5-1.3-2-2.2c-0.5-0.9-0.7-2-0.7-3.1c0-1.2,0.2-2.2,0.7-3.2
					c0.5-0.9,1.2-1.7,2-2.2c0.9-0.5,1.8-0.8,2.9-0.8c1.1,0,2.1,0.3,2.9,0.8c0.9,0.5,1.6,1.3,2.1,2.2c0.5,0.9,0.8,2,0.8,3.1
					C427.7,19.7,427.4,20.7,426.9,21.6z"/>
			</g>
		</g>
	</g>
</g>
</svg>
