<?xml version="1.0" encoding="utf-8"?>
<!-- Generator: Adobe Illustrator 27.4.1, SVG Export Plug-In . SVG Version: 6.00 Build 0)  -->
<svg version="1.1" id="Layer_1" xmlns="http://www.w3.org/2000/svg" xmlns:xlink="http://www.w3.org/1999/xlink" x="0px" y="0px"
	 viewBox="0 0 500 500" style="enable-background:new 0 0 500 500;" xml:space="preserve">
<style type="text/css">
	.st0{fill:#126090;}
	.st1{fill:#017373;}
	.st2{fill:#116090;}
</style>
<g id="Aseel_Logo_00000089567378704702598690000014327085768306567859_">
	<g>
		<g id="Aseel_Logo_00000062884464504097648700000000366739161682429326_">
			<g id="Logotype_00000005267877695223115310000007923432670610883258_">
				<g>
					<path class="st0" d="M123.53,273.82l-8.48,24.59h4.85l1.78-5.28h9.51l1.75,5.28h4.88l-8.48-24.59H123.53z M122.96,289.17
						l3.47-10.37l3.47,10.37H122.96z"/>
					<path class="st0" d="M146.57,283.59c0.9,0,1.72,0.25,2.44,0.73c0.73,0.49,1.24,1.14,1.55,1.95l3.3-1.55
						c-0.55-1.47-1.47-2.62-2.77-3.43c-1.3-0.82-2.79-1.23-4.49-1.23c-1.3,0-2.45,0.23-3.45,0.7c-1,0.46-1.78,1.1-2.34,1.93
						c-0.56,0.83-0.84,1.79-0.84,2.89c0,1.24,0.39,2.3,1.17,3.2c0.78,0.9,1.93,1.57,3.45,2.01l2.94,0.82
						c0.37,0.11,0.72,0.25,1.04,0.41c0.32,0.17,0.57,0.37,0.76,0.59c0.19,0.23,0.28,0.53,0.28,0.88c0,0.57-0.23,1.04-0.69,1.39
						c-0.46,0.36-1.09,0.53-1.88,0.53c-1.01,0-1.93-0.28-2.76-0.86c-0.83-0.57-1.47-1.37-1.93-2.38l-3.23,1.55
						c0.53,1.56,1.5,2.8,2.92,3.71c1.42,0.92,3.09,1.37,5,1.37c1.37,0,2.55-0.23,3.57-0.69c1.01-0.46,1.81-1.11,2.38-1.93
						c0.57-0.83,0.86-1.77,0.86-2.85c0-1.28-0.4-2.36-1.21-3.24c-0.8-0.88-1.94-1.54-3.42-1.98l-2.87-0.86
						c-0.42-0.13-0.79-0.27-1.11-0.43c-0.32-0.15-0.57-0.35-0.74-0.59c-0.18-0.25-0.26-0.53-0.26-0.86c0-0.53,0.21-0.96,0.63-1.29
						C145.27,283.76,145.85,283.59,146.57,283.59z"/>
					<path class="st0" d="M171.79,282.67c-0.75-0.81-1.66-1.46-2.72-1.92c-1.07-0.46-2.31-0.7-3.71-0.7c-1.67,0-3.19,0.41-4.54,1.23
						c-1.35,0.81-2.42,1.92-3.2,3.31c-0.78,1.4-1.17,3-1.17,4.8c0,1.74,0.39,3.33,1.16,4.76c0.77,1.42,1.85,2.56,3.23,3.4
						c1.39,0.84,3,1.25,4.86,1.25c1.23,0,2.36-0.19,3.38-0.56c1.03-0.37,1.91-0.89,2.66-1.55c0.75-0.66,1.3-1.42,1.65-2.28
						l-3.5-1.72c-0.4,0.71-0.94,1.27-1.63,1.68c-0.69,0.42-1.53,0.63-2.52,0.63c-0.99,0-1.87-0.23-2.62-0.7
						c-0.76-0.46-1.33-1.12-1.72-1.97c-0.22-0.49-0.19-1.12-0.26-1.7h12.75c0.09-0.24,0.15-0.53,0.18-0.86
						c0.04-0.34,0.05-0.65,0.05-0.96c0-1.21-0.2-2.34-0.6-3.39C173.11,284.41,172.54,283.48,171.79,282.67z M162.94,284.3
						c0.7-0.45,1.51-0.68,2.41-0.68c0.95,0,1.75,0.23,2.43,0.69c0.67,0.46,1.15,1.09,1.45,1.88c0.13,0.34,0.03,0.78,0.06,1.16h-8.09
						c0.07-0.34,0.02-0.78,0.14-1.08C161.71,285.42,162.24,284.75,162.94,284.3z"/>
					<path class="st0" d="M192,282.67c-0.75-0.81-1.66-1.46-2.72-1.92c-1.07-0.46-2.31-0.7-3.71-0.7c-1.67,0-3.19,0.41-4.54,1.23
						c-1.35,0.81-2.42,1.92-3.2,3.31c-0.78,1.4-1.17,3-1.17,4.8c0,1.74,0.39,3.33,1.16,4.76c0.77,1.42,1.85,2.56,3.23,3.4
						c1.39,0.84,3,1.25,4.86,1.25c1.23,0,2.36-0.19,3.38-0.56c1.03-0.37,1.91-0.89,2.66-1.55c0.75-0.66,1.3-1.42,1.65-2.28
						l-3.5-1.72c-0.4,0.71-0.94,1.27-1.63,1.68c-0.69,0.42-1.53,0.63-2.52,0.63c-0.99,0-1.87-0.23-2.62-0.7
						c-0.76-0.46-1.33-1.12-1.72-1.97c-0.22-0.49-0.19-1.12-0.26-1.7h12.75c0.09-0.24,0.15-0.53,0.18-0.86
						c0.04-0.34,0.05-0.65,0.05-0.96c0-1.21-0.2-2.34-0.6-3.39C193.32,284.41,192.74,283.48,192,282.67z M183.15,284.3
						c0.7-0.45,1.51-0.68,2.41-0.68c0.95,0,1.75,0.23,2.43,0.69c0.67,0.46,1.15,1.09,1.45,1.88c0.13,0.34,0.03,0.78,0.06,1.16h-8.09
						c0.07-0.34,0.02-0.78,0.14-1.08C181.91,285.42,182.44,284.75,183.15,284.3z"/>
					<rect x="197.58" y="273.42" class="st0" width="4.32" height="24.99"/>
				</g>
				<path class="st0" d="M216.84,303.39v-34.55h1.15v34.55H216.84z"/>
				<g>
					<path class="st0" d="M248.92,285.9c-0.51-0.47-1.17-0.77-1.82-1.08c0.84-0.48,1.55-1.06,2.05-1.84
						c0.63-0.98,0.94-2.11,0.94-3.39c0-1.23-0.28-2.31-0.84-3.24c-0.56-0.92-1.35-1.64-2.38-2.16c-1.03-0.52-2.23-0.77-3.62-0.77
						h-10.33v24.59h10.37c2.4,0,4.3-0.64,5.7-1.93c1.4-1.28,2.1-3.03,2.1-5.23c0-0.97-0.19-1.88-0.56-2.72
						C250.15,287.28,249.62,286.54,248.92,285.9z M235.57,275.9h7.5c1.32,0,2.38,0.32,3.19,0.97c0.8,0.64,1.21,1.59,1.21,2.82
						c0,1.21-0.4,2.21-1.21,2.97c-0.8,0.77-1.87,1.15-3.19,1.15h-7.5V275.9z M247.04,294.3c-0.94,0.82-2.19,1.24-3.75,1.24h-7.72
						v-9.34h7.72c1.56,0,2.81,0.43,3.75,1.27c0.94,0.85,1.4,1.99,1.4,3.42C248.45,292.34,247.98,293.48,247.04,294.3z"/>
					<path class="st0" d="M266.8,290.85c0,1.06-0.2,1.97-0.59,2.72c-0.4,0.76-0.95,1.35-1.65,1.75c-0.71,0.41-1.51,0.61-2.41,0.61
						s-1.7-0.19-2.39-0.59c-0.69-0.39-1.23-0.95-1.62-1.66c-0.38-0.72-0.58-1.55-0.58-2.5v-10.86h-2.48v11.15
						c0,1.37,0.29,2.57,0.87,3.62c0.58,1.04,1.38,1.86,2.4,2.44c1.01,0.58,2.13,0.87,3.37,0.87c1.32,0,2.49-0.33,3.5-0.99
						c0.68-0.45,1.17-1.04,1.58-1.7v2.29h2.48v-17.69h-2.48V290.85z"/>
					<path class="st0" d="M280.65,294.93l-5.79-14.6h-2.67l7.08,17.71l-0.64,1.51c-0.55,1.27-1.11,2.13-1.68,2.58
						c-0.57,0.45-1.4,0.68-2.48,0.68c-0.35,0-0.7-0.03-1.04-0.08c-0.34-0.06-0.62-0.1-0.84-0.12v2.31c0.35,0.14,0.71,0.23,1.07,0.28
						c0.36,0.05,0.72,0.08,1.07,0.08c1.17,0,2.16-0.23,2.97-0.71c0.81-0.47,1.49-1.1,2.03-1.86c0.54-0.77,0.99-1.59,1.34-2.44
						l8.09-19.94h-2.74L280.65,294.93z"/>
					<path class="st0" d="M309.26,287.61h8.52v0.17c0,1.59-0.38,2.99-1.12,4.21c-0.75,1.22-1.76,2.18-3.05,2.89
						c-1.29,0.7-2.73,1.05-4.34,1.05c-1.81,0-3.41-0.42-4.82-1.27c-1.41-0.84-2.51-2.04-3.3-3.58c-0.79-1.54-1.19-3.33-1.19-5.35
						c0-2.04,0.4-3.83,1.19-5.36c0.79-1.53,1.89-2.72,3.3-3.58c1.41-0.86,3.01-1.29,4.82-1.29c1.8,0,3.34,0.43,4.62,1.29
						c1.28,0.86,2.22,2.04,2.84,3.53l2.38-1.16c-0.4-1.03-1.05-2.02-1.96-2.95c-0.91-0.94-2.04-1.7-3.37-2.3
						c-1.33-0.59-2.83-0.89-4.5-0.89c-1.74,0-3.34,0.32-4.79,0.94c-1.45,0.63-2.71,1.52-3.78,2.66c-1.07,1.15-1.9,2.49-2.49,4.03
						c-0.59,1.54-0.89,3.24-0.89,5.08c0,1.85,0.3,3.55,0.89,5.09c0.6,1.54,1.42,2.88,2.49,4.01c1.07,1.13,2.33,2.01,3.78,2.64
						c1.45,0.63,3.05,0.94,4.79,0.94c1.56,0,3.02-0.27,4.37-0.81c1.35-0.54,2.53-1.3,3.55-2.3c1.01-0.99,1.81-2.16,2.38-3.51
						c0.57-1.35,0.86-2.84,0.86-4.44v-2.04h-11.16V287.61z"/>
					<path class="st0" d="M337.66,281.12c-1.35-0.79-2.89-1.19-4.6-1.19c-1.72,0-3.25,0.41-4.61,1.21c-1.35,0.81-2.42,1.9-3.22,3.29
						c-0.79,1.39-1.19,2.96-1.19,4.72c0,1.78,0.4,3.37,1.21,4.77c0.8,1.39,1.89,2.49,3.25,3.3c1.36,0.8,2.88,1.2,4.56,1.2
						c1.65,0,3.15-0.39,4.5-1.19c1.35-0.79,2.44-1.89,3.25-3.28c0.82-1.4,1.22-3,1.22-4.8c0-1.79-0.39-3.37-1.17-4.76
						C340.08,282.99,339.02,281.9,337.66,281.12z M338.55,292.6c-0.56,1.04-1.32,1.85-2.28,2.44c-0.96,0.59-2.03,0.89-3.22,0.89
						c-1.19,0-2.26-0.3-3.22-0.89c-0.96-0.59-1.72-1.41-2.29-2.44c-0.57-1.03-0.86-2.19-0.86-3.46c0-1.28,0.29-2.43,0.86-3.44
						c0.57-1.01,1.33-1.81,2.29-2.41c0.96-0.59,2.03-0.89,3.22-0.89c1.19,0,2.26,0.3,3.22,0.89c0.96,0.6,1.72,1.4,2.28,2.41
						c0.56,1.01,0.84,2.16,0.84,3.44C339.4,290.41,339.11,291.57,338.55,292.6z"/>
					<path class="st0" d="M359.29,281.12c-1.35-0.79-2.89-1.19-4.6-1.19c-1.72,0-3.25,0.41-4.61,1.21c-1.35,0.81-2.42,1.9-3.22,3.29
						c-0.79,1.39-1.19,2.96-1.19,4.72c0,1.78,0.4,3.37,1.21,4.77c0.8,1.39,1.89,2.49,3.25,3.3c1.36,0.8,2.88,1.2,4.56,1.2
						c1.65,0,3.15-0.39,4.5-1.19c1.35-0.79,2.44-1.89,3.25-3.28c0.82-1.4,1.22-3,1.22-4.8c0-1.79-0.39-3.37-1.17-4.76
						C361.71,282.99,360.64,281.9,359.29,281.12z M360.18,292.6c-0.56,1.04-1.32,1.85-2.28,2.44c-0.96,0.59-2.03,0.89-3.22,0.89
						c-1.19,0-2.26-0.3-3.22-0.89c-0.96-0.59-1.72-1.41-2.29-2.44c-0.57-1.03-0.86-2.19-0.86-3.46c0-1.28,0.29-2.43,0.86-3.44
						c0.57-1.01,1.33-1.81,2.29-2.41c0.96-0.59,2.03-0.89,3.22-0.89c1.19,0,2.26,0.3,3.22,0.89c0.96,0.6,1.72,1.4,2.28,2.41
						c0.56,1.01,0.84,2.16,0.84,3.44C361.02,290.41,360.74,291.57,360.18,292.6z"/>
					<path class="st0" d="M382.48,283.22c-0.65-0.91-1.39-1.73-2.41-2.3c-1.19-0.66-2.54-0.99-4.06-0.99
						c-1.67,0-3.17,0.41-4.48,1.21c-1.31,0.81-2.34,1.9-3.1,3.29c-0.76,1.39-1.14,2.97-1.14,4.75c0,1.76,0.38,3.34,1.14,4.74
						c0.76,1.39,1.8,2.49,3.12,3.3c1.32,0.8,2.81,1.2,4.46,1.2c1.52,0,2.89-0.34,4.11-1.04c1.01-0.57,1.77-1.4,2.36-2.37v3.02h2.48
						v-24.99h-2.48V283.22z M381.64,292.62c-0.56,1.03-1.32,1.83-2.28,2.43c-0.96,0.59-2.03,0.89-3.22,0.89
						c-1.19,0-2.25-0.3-3.19-0.89c-0.93-0.59-1.67-1.4-2.21-2.43c-0.54-1.02-0.81-2.17-0.81-3.45c0-1.3,0.27-2.46,0.81-3.47
						c0.54-1.01,1.28-1.81,2.23-2.41c0.95-0.59,2-0.89,3.17-0.89c1.19,0,2.26,0.3,3.22,0.89c0.96,0.6,1.72,1.41,2.28,2.43
						c0.56,1.03,0.84,2.17,0.84,3.45C382.48,290.45,382.2,291.59,381.64,292.62z"/>
				</g>
			</g>
		</g>
		<g id="Symbol_00000166661493822464919320000016593132067808008578_">
			<polygon class="st2" points="251.17,235.09 251.17,224.53 264.38,237.73 264.38,248.29 			"/>
			<polygon class="st2" points="263.58,222.68 253.02,222.68 266.22,235.88 276.78,235.88 			"/>
			<polygon class="st2" points="248.83,207.92 248.83,218.49 235.62,205.28 235.62,194.72 			"/>
			<polygon class="st2" points="236.42,220.33 246.98,220.33 233.78,207.13 223.22,207.13 			"/>
			<polygon class="st2" points="236.43,222.68 246.99,222.68 233.79,235.88 223.22,235.88 			"/>
			<polygon class="st2" points="248.83,235.09 248.83,224.53 235.63,237.73 235.63,248.29 			"/>
			<polygon class="st2" points="263.57,220.35 253.01,220.35 266.21,207.15 276.77,207.15 			"/>
			<polygon class="st2" points="251.16,207.95 251.16,218.51 264.36,205.31 264.36,194.74 			"/>
			
				<rect x="248.7" y="220.2" transform="matrix(0.7071 -0.7071 0.7071 0.7071 -83.4074 241.6569)" class="st2" width="2.61" height="2.61"/>
		</g>
	</g>
</g>
</svg>
