<?xml version="1.0" encoding="utf-8"?>
<!-- Generator: Adobe Illustrator 28.0.0, SVG Export Plug-In . SVG Version: 6.00 Build 0)  -->
<svg version="1.1" id="Layer_1" xmlns="http://www.w3.org/2000/svg" xmlns:xlink="http://www.w3.org/1999/xlink" x="0px" y="0px"
	 viewBox="0 0 219 80.6" style="enable-background:new 0 0 219 80.6;" xml:space="preserve">
<style type="text/css">
	.st0{fill:#017373;}
</style>
<g id="Aseel_Logo_00000011013575354667958420000009107988896948895616_">
	<g>
		<g id="Logotype_00000096019860256706472080000017688575673420726661_">
			<g id="Aseel_00000100354411712157422740000015891030162711644347_">
				<path class="st0" d="M109.6,7.8L97.7,42.1h6.8l2.5-7.4h13.3l2.4,7.4h6.8L117.7,7.8H109.6z M108.8,29.2l4.8-14.5l4.8,14.5H108.8z
					"/>
				<path class="st0" d="M141.8,20.9c1.3,0,2.4,0.3,3.4,1c1,0.7,1.7,1.6,2.2,2.7l4.6-2.2c-0.8-2.1-2.1-3.7-3.9-4.8
					c-1.8-1.1-3.9-1.7-6.3-1.7c-1.8,0-3.4,0.3-4.8,1s-2.5,1.6-3.3,2.7c-0.8,1.1-1.2,2.5-1.2,4c0,1.7,0.5,3.2,1.6,4.5
					c1.1,1.3,2.7,2.2,4.8,2.8l4.1,1.1c0.5,0.1,1,0.4,1.5,0.6s0.8,0.5,1.1,0.8s0.4,0.7,0.4,1.2c0,0.8-0.3,1.4-1,1.9s-1.5,0.7-2.6,0.7
					c-1.4,0-2.7-0.4-3.9-1.2s-2-1.9-2.7-3.3l-4.5,2.2c0.7,2.2,2.1,3.9,4.1,5.2c2,1.3,4.3,1.9,7,1.9c1.9,0,3.6-0.3,5-1
					c1.4-0.6,2.5-1.5,3.3-2.7c0.8-1.1,1.2-2.5,1.2-4c0-1.8-0.6-3.3-1.7-4.5c-1.1-1.2-2.7-2.1-4.8-2.8l-4-1.2
					c-0.6-0.2-1.1-0.4-1.5-0.6c-0.5-0.2-0.8-0.5-1-0.8s-0.4-0.7-0.4-1.2c0-0.7,0.3-1.3,0.9-1.8C139.9,21.1,140.7,20.9,141.8,20.9z"
					/>
				<path class="st0" d="M177,19.6c-1-1.1-2.3-2-3.8-2.7c-1.5-0.6-3.2-1-5.2-1c-2.3,0-4.5,0.6-6.3,1.7c-1.9,1.1-3.4,2.7-4.5,4.6
					s-1.6,4.2-1.6,6.7c0,2.4,0.5,4.6,1.6,6.6c1.1,2,2.6,3.6,4.5,4.8s4.2,1.8,6.8,1.8c1.7,0,3.3-0.3,4.7-0.8c1.4-0.5,2.7-1.2,3.7-2.2
					c1-0.9,1.8-2,2.3-3.2l-4.9-2.4c-0.5,1-1.3,1.8-2.3,2.4s-2.1,0.9-3.5,0.9s-2.6-0.3-3.7-1c-1.1-0.6-1.9-1.6-2.4-2.7
					c-0.3-0.7-0.5-1.5-0.6-2.4h18.1c0.1-0.3,0.2-0.7,0.2-1.2c0-0.5,0.1-0.9,0.1-1.3c0-1.7-0.3-3.3-0.8-4.7
					C178.8,22,178,20.7,177,19.6z M164.6,21.9c1-0.6,2.1-0.9,3.4-0.9c1.3,0,2.5,0.3,3.4,1s1.6,1.5,2,2.6c0.2,0.5,0.3,1,0.3,1.6H162
					c0.1-0.5,0.2-1.1,0.4-1.5C162.9,23.4,163.6,22.5,164.6,21.9z"/>
				<path class="st0" d="M205.2,19.6c-1-1.1-2.3-2-3.8-2.7c-1.5-0.6-3.2-1-5.2-1c-2.3,0-4.5,0.6-6.3,1.7c-1.9,1.1-3.4,2.7-4.5,4.6
					s-1.6,4.2-1.6,6.7c0,2.4,0.5,4.6,1.6,6.6c1.1,2,2.6,3.6,4.5,4.8s4.2,1.8,6.8,1.8c1.7,0,3.3-0.3,4.7-0.8c1.4-0.5,2.7-1.2,3.7-2.2
					c1-0.9,1.8-2,2.3-3.2l-4.9-2.4c-0.5,1-1.3,1.8-2.3,2.4s-2.1,0.9-3.5,0.9s-2.6-0.3-3.7-1c-1.1-0.6-1.9-1.6-2.4-2.7
					c-0.3-0.7-0.5-1.5-0.6-2.4h18.1c0.1-0.3,0.2-0.7,0.2-1.2c0-0.5,0.1-0.9,0.1-1.3c0-1.7-0.3-3.3-0.8-4.7
					C207.1,22,206.3,20.7,205.2,19.6z M192.8,21.9c1-0.6,2.1-0.9,3.4-0.9c1.3,0,2.5,0.3,3.4,1s1.6,1.5,2,2.6c0.2,0.5,0.3,1,0.3,1.6
					h-11.8c0.1-0.5,0.2-1.1,0.4-1.5C191.1,23.4,191.9,22.5,192.8,21.9z"/>
				<rect x="213" y="7.8" class="st0" width="6" height="34.4"/>
			</g>
			<g id="Slogan_00000131331339018200121980000015700096077952134312_">
				<path class="st0" d="M97.7,72.4V50.9h7.1c2.1,0,4,0.4,5.6,1.3c1.6,0.9,2.8,2.1,3.7,3.7c0.9,1.6,1.3,3.5,1.3,5.7
					c0,2.2-0.4,4.1-1.3,5.7c-0.9,1.6-2.1,2.9-3.7,3.8c-1.6,0.9-3.4,1.3-5.6,1.3H97.7z M100,70.3h4.8c1.7,0,3.1-0.4,4.3-1.1
					c1.2-0.7,2.1-1.7,2.8-3c0.7-1.3,1-2.8,1-4.6s-0.3-3.3-1-4.5s-1.6-2.3-2.8-3s-2.6-1.1-4.3-1.1H100L100,70.3L100,70.3z"/>
				<path class="st0" d="M126.1,72.8c-1.5,0-2.8-0.4-4-1.1c-1.2-0.7-2.1-1.7-2.8-2.9c-0.7-1.2-1.1-2.6-1.1-4.2c0-1.5,0.4-2.9,1-4.1
					s1.6-2.2,2.8-2.9c1.2-0.7,2.5-1,4-1s2.8,0.3,4,1c1.2,0.7,2.1,1.6,2.8,2.9c0.7,1.2,1,2.6,1,4.2c0,1.6-0.4,3-1.1,4.2
					c-0.7,1.2-1.7,2.2-2.8,2.9C128.8,72.4,127.5,72.8,126.1,72.8z M126.1,70.6c1,0,2-0.3,2.8-0.8c0.8-0.5,1.5-1.2,2-2.1
					s0.7-1.9,0.7-3s-0.2-2.1-0.7-3s-1.2-1.6-2-2.1c-0.8-0.5-1.8-0.8-2.8-0.8s-2,0.3-2.8,0.8s-1.5,1.2-2,2.1c-0.5,0.9-0.8,1.9-0.8,3
					s0.2,2.1,0.8,3c0.5,0.9,1.2,1.6,2,2.1C124.1,70.4,125,70.6,126.1,70.6z"/>
				<path class="st0" d="M152.8,72.8c-1.5,0-2.9-0.3-4.2-0.8c-1.3-0.5-2.4-1.3-3.3-2.3c-0.9-1-1.7-2.2-2.2-3.5s-0.8-2.8-0.8-4.5
					c0-1.6,0.3-3.1,0.8-4.5s1.2-2.5,2.2-3.5c0.9-1,2-1.8,3.3-2.3c1.3-0.5,2.7-0.8,4.2-0.8c1.5,0,2.8,0.3,3.9,0.8
					c1.2,0.5,2.1,1.2,3,2c0.8,0.8,1.4,1.7,1.7,2.6l-2.1,1c-0.5-1.3-1.4-2.3-2.5-3.1s-2.5-1.1-4-1.1c-1.6,0-3,0.4-4.2,1.1
					c-1.2,0.8-2.2,1.8-2.9,3.1c-0.7,1.3-1,2.9-1,4.7c0,1.8,0.4,3.3,1,4.7s1.7,2.4,2.9,3.1c1.2,0.7,2.6,1.1,4.2,1.1
					c1.4,0,2.7-0.3,3.8-0.9c1.1-0.6,2-1.5,2.7-2.5c0.7-1.1,1-2.3,1-3.7v-1.2l1,1h-8.5v-2h9.8v1.8c0,1.4-0.2,2.7-0.8,3.9
					c-0.5,1.2-1.2,2.2-2.1,3.1c-0.9,0.9-1.9,1.5-3.1,2C155.4,72.5,154.2,72.8,152.8,72.8z"/>
				<path class="st0" d="M173.6,72.8c-1.5,0-2.8-0.4-4-1.1c-1.2-0.7-2.1-1.7-2.8-2.9c-0.7-1.2-1.1-2.6-1.1-4.2c0-1.5,0.4-2.9,1-4.1
					s1.6-2.2,2.8-2.9c1.2-0.7,2.5-1,4-1s2.8,0.3,4,1c1.2,0.7,2.1,1.6,2.8,2.9c0.7,1.2,1,2.6,1,4.2c0,1.6-0.4,3-1.1,4.2
					c-0.7,1.2-1.7,2.2-2.8,2.9C176.4,72.4,175.1,72.8,173.6,72.8z M173.6,70.6c1,0,2-0.3,2.8-0.8c0.8-0.5,1.5-1.2,2-2.1
					s0.7-1.9,0.7-3s-0.2-2.1-0.7-3s-1.2-1.6-2-2.1c-0.8-0.5-1.8-0.8-2.8-0.8s-2,0.3-2.8,0.8s-1.5,1.2-2,2.1c-0.5,0.9-0.8,1.9-0.8,3
					s0.2,2.1,0.8,3c0.5,0.9,1.2,1.6,2,2.1C171.7,70.4,172.6,70.6,173.6,70.6z"/>
				<path class="st0" d="M192.6,72.8c-1.5,0-2.8-0.4-4-1.1c-1.2-0.7-2.1-1.7-2.8-2.9c-0.7-1.2-1.1-2.6-1.1-4.2c0-1.5,0.4-2.9,1-4.1
					s1.6-2.2,2.8-2.9c1.2-0.7,2.5-1,4-1s2.8,0.3,4,1c1.2,0.7,2.1,1.6,2.8,2.9c0.7,1.2,1,2.6,1,4.2c0,1.6-0.4,3-1.1,4.2
					c-0.7,1.2-1.7,2.2-2.8,2.9C195.3,72.4,194,72.8,192.6,72.8z M192.6,70.6c1,0,2-0.3,2.8-0.8s1.5-1.2,2-2.1s0.7-1.9,0.7-3
					s-0.2-2.1-0.7-3c-0.5-0.9-1.2-1.6-2-2.1c-0.8-0.5-1.8-0.8-2.8-0.8s-2,0.3-2.8,0.8c-0.8,0.5-1.5,1.2-2,2.1
					c-0.5,0.9-0.8,1.9-0.8,3s0.2,2.1,0.8,3c0.5,0.9,1.2,1.6,2,2.1C190.6,70.4,191.5,70.6,192.6,70.6z"/>
				<path class="st0" d="M211.2,72.8c-1.4,0-2.7-0.4-3.9-1.1c-1.1-0.7-2.1-1.7-2.7-2.9c-0.7-1.2-1-2.6-1-4.1c0-1.6,0.3-3,1-4.2
					c0.7-1.2,1.6-2.2,2.7-2.9c1.1-0.7,2.5-1,3.9-1c1.3,0,2.5,0.3,3.5,0.9c1,0.6,1.9,1.4,2.5,2.3l-0.4,0.6v-9.9h2.2v21.9h-2.2V69
					l0.4,0.3c-0.5,1.1-1.3,2-2.4,2.6C213.7,72.5,212.6,72.8,211.2,72.8z M211.3,70.6c1,0,2-0.3,2.8-0.8c0.8-0.5,1.5-1.2,2-2.1
					c0.5-0.9,0.7-1.9,0.7-3s-0.2-2.1-0.7-3c-0.5-0.9-1.2-1.6-2-2.1c-0.8-0.5-1.8-0.8-2.8-0.8c-1,0-2,0.3-2.8,0.8
					c-0.8,0.5-1.5,1.2-2,2.1c-0.5,0.9-0.7,1.9-0.7,3c0,1.1,0.2,2.1,0.7,3c0.5,0.9,1.1,1.6,1.9,2.1C209.4,70.4,210.3,70.6,211.3,70.6
					z"/>
			</g>
		</g>
		<g id="Symbol_00000057128699715621734880000000294888448626959288_">
			<polygon class="st0" points="19.8,42 35.7,42 15.9,61.8 0,61.8 			"/>
			<polygon class="st0" points="38.6,60.7 38.6,44.8 18.7,64.7 18.7,80.6 			"/>
			<polygon class="st0" points="60.7,38.6 44.8,38.6 64.7,18.7 80.6,18.7 			"/>
			<polygon class="st0" points="42,19.9 42,35.7 61.8,15.9 61.8,0 			"/>
			<polygon class="st0" points="38.6,19.9 38.6,35.7 18.7,15.9 18.7,0 			"/>
			<polygon class="st0" points="19.8,38.6 35.7,38.6 15.9,18.7 0,18.7 			"/>
			<polygon class="st0" points="42,60.7 42,44.8 61.8,64.7 61.8,80.6 			"/>
			<polygon class="st0" points="60.7,42 44.8,42 64.7,61.8 80.6,61.8 			"/>
			<rect x="38.3" y="38.3" transform="matrix(0.7071 -0.7071 0.7071 0.7071 -16.6893 40.2791)" class="st0" width="4" height="4"/>
		</g>
	</g>
</g>
</svg>
