<?xml version="1.0" encoding="utf-8"?>
<!-- Generator: Adobe Illustrator 27.4.1, SVG Export Plug-In . SVG Version: 6.00 Build 0)  -->
<svg version="1.1" id="Layer_1" xmlns="http://www.w3.org/2000/svg" xmlns:xlink="http://www.w3.org/1999/xlink" x="0px" y="0px"
	 viewBox="0 0 500 500" style="enable-background:new 0 0 500 500;" xml:space="preserve">
<style type="text/css">
	.st0{fill:#126090;}
	.st1{fill:#017373;}
	.st2{fill:#116090;}
</style>
<g id="Aseel_Logo_00000142139406529460340200000011972200145554174123_">
	<g id="Logotype_00000183941372410259618290000013033152925769713324_">
		<g id="Aseel_00000152240477662269658920000011251210509129241275_">
			<path class="st0" d="M250.41,215.77l-11.84,34.33h6.77l2.49-7.37h13.27l2.44,7.37h6.82l-11.84-34.33H250.41z M249.63,237.2
				l4.84-14.48l4.84,14.48H249.63z"/>
			<path class="st0" d="M282.57,228.86c1.26,0,2.39,0.34,3.41,1.01c1.01,0.68,1.74,1.58,2.16,2.72l4.61-2.17
				c-0.77-2.06-2.06-3.65-3.87-4.79c-1.81-1.14-3.9-1.7-6.27-1.7c-1.81,0-3.42,0.32-4.82,0.97c-1.4,0.64-2.49,1.54-3.27,2.7
				c-0.78,1.15-1.18,2.5-1.18,4.03c0,1.72,0.55,3.21,1.64,4.47c1.09,1.26,2.69,2.2,4.81,2.81l4.1,1.15
				c0.52,0.15,1.01,0.35,1.45,0.58c0.44,0.23,0.8,0.51,1.06,0.83c0.26,0.32,0.39,0.73,0.39,1.22c0,0.8-0.32,1.44-0.97,1.93
				c-0.64,0.49-1.52,0.74-2.62,0.74c-1.42,0-2.7-0.4-3.85-1.2c-1.15-0.8-2.05-1.9-2.69-3.32l-4.52,2.16
				c0.74,2.18,2.1,3.91,4.08,5.18c1.98,1.28,4.31,1.91,6.98,1.91c1.9,0,3.56-0.32,4.98-0.97c1.41-0.64,2.52-1.54,3.32-2.69
				c0.8-1.15,1.2-2.48,1.2-3.99c0-1.78-0.56-3.29-1.68-4.52c-1.12-1.23-2.71-2.15-4.77-2.76l-4.01-1.2c-0.58-0.18-1.1-0.38-1.54-0.6
				c-0.45-0.21-0.79-0.49-1.04-0.83c-0.25-0.34-0.37-0.74-0.37-1.2c0-0.74,0.29-1.34,0.87-1.8
				C280.76,229.09,281.56,228.86,282.57,228.86z"/>
			<path class="st0" d="M317.77,227.56c-1.04-1.14-2.31-2.03-3.8-2.67c-1.49-0.64-3.22-0.97-5.18-0.97c-2.33,0-4.45,0.57-6.33,1.7
				c-1.89,1.14-3.38,2.68-4.47,4.63c-1.09,1.95-1.63,4.19-1.63,6.7c0,2.43,0.54,4.64,1.61,6.64c1.08,2,2.58,3.58,4.52,4.75
				c1.93,1.17,4.19,1.75,6.77,1.75c1.72,0,3.29-0.26,4.72-0.78c1.43-0.52,2.67-1.24,3.71-2.17c1.05-0.92,1.81-1.98,2.3-3.18
				l-4.88-2.39c-0.55,0.98-1.31,1.77-2.28,2.35c-0.97,0.58-2.14,0.87-3.53,0.87c-1.38,0-2.6-0.32-3.66-0.97s-1.86-1.56-2.4-2.74
				c-0.33-0.72-0.52-1.52-0.6-2.37h18.04c0.12-0.34,0.21-0.74,0.25-1.2c0.05-0.46,0.07-0.91,0.07-1.34c0-1.69-0.28-3.26-0.83-4.72
				C319.62,230,318.82,228.7,317.77,227.56z M305.43,229.85c0.98-0.63,2.1-0.94,3.36-0.94c1.32,0,2.45,0.32,3.39,0.97
				c0.94,0.64,1.61,1.52,2.03,2.63c0.19,0.5,0.3,1.04,0.34,1.61H302.8c0.1-0.52,0.2-1.05,0.39-1.5
				C303.7,231.4,304.44,230.48,305.43,229.85z"/>
			<path class="st0" d="M345.98,227.56c-1.04-1.14-2.31-2.03-3.8-2.67c-1.49-0.64-3.22-0.97-5.18-0.97c-2.33,0-4.45,0.57-6.33,1.7
				c-1.89,1.14-3.38,2.68-4.47,4.63c-1.09,1.95-1.63,4.19-1.63,6.7c0,2.43,0.54,4.64,1.61,6.64c1.08,2,2.58,3.58,4.52,4.75
				c1.93,1.17,4.19,1.75,6.77,1.75c1.72,0,3.29-0.26,4.72-0.78c1.43-0.52,2.67-1.24,3.71-2.17c1.05-0.92,1.81-1.98,2.3-3.18
				l-4.88-2.39c-0.55,0.98-1.31,1.77-2.28,2.35c-0.97,0.58-2.14,0.87-3.53,0.87c-1.38,0-2.6-0.32-3.66-0.97s-1.86-1.56-2.4-2.74
				c-0.33-0.72-0.52-1.52-0.6-2.37h18.04c0.12-0.34,0.21-0.74,0.25-1.2c0.05-0.46,0.07-0.91,0.07-1.34c0-1.69-0.28-3.26-0.83-4.72
				C347.82,230,347.02,228.7,345.98,227.56z M333.63,229.85c0.98-0.63,2.1-0.94,3.36-0.94c1.32,0,2.45,0.32,3.39,0.97
				c0.94,0.64,1.61,1.52,2.03,2.63c0.19,0.5,0.3,1.04,0.34,1.61H331c0.1-0.52,0.2-1.05,0.39-1.5
				C331.9,231.4,332.64,230.48,333.63,229.85z"/>
			<rect x="353.76" y="215.77" class="st0" width="6.04" height="34.33"/>
		</g>
		<g id="Slogan_00000069380961722133503850000002341723840106268819_">
			<path class="st0" d="M238.57,278.44v-19.61h8.24c1.11,0,2.06,0.21,2.88,0.62c0.82,0.41,1.45,0.99,1.9,1.72
				c0.45,0.74,0.67,1.6,0.67,2.58c0,1.02-0.25,1.92-0.75,2.7c-0.5,0.78-1.22,1.38-2.15,1.78l-0.02-0.63
				c0.77,0.28,1.43,0.68,1.99,1.18c0.55,0.51,0.98,1.1,1.28,1.78c0.3,0.68,0.45,1.4,0.45,2.17c0,1.76-0.55,3.15-1.67,4.17
				c-1.11,1.03-2.63,1.54-4.54,1.54H238.57z M240.67,267.12h5.98c1.05,0,1.9-0.31,2.54-0.92c0.64-0.61,0.96-1.4,0.96-2.37
				c0-0.98-0.32-1.73-0.96-2.25c-0.64-0.52-1.49-0.78-2.54-0.78h-5.98V267.12z M240.67,276.47h6.16c1.24,0,2.24-0.33,2.99-0.99
				c0.75-0.66,1.12-1.57,1.12-2.73c0-1.14-0.37-2.05-1.12-2.72c-0.75-0.68-1.74-1.01-2.99-1.01h-6.16V276.47z"/>
			<path class="st0" d="M261.53,278.76c-0.98,0-1.88-0.23-2.69-0.7c-0.81-0.47-1.44-1.12-1.91-1.95c-0.46-0.83-0.7-1.8-0.7-2.88
				v-8.9h1.98v8.66c0,0.75,0.15,1.42,0.46,1.99c0.31,0.57,0.74,1.01,1.29,1.33c0.55,0.32,1.19,0.47,1.91,0.47
				c0.72,0,1.36-0.16,1.92-0.48c0.56-0.32,1-0.79,1.32-1.4c0.32-0.6,0.48-1.33,0.48-2.17v-8.4h1.97v14.11h-1.97v-2.74l0.45,0.11
				c-0.33,0.91-0.9,1.63-1.71,2.16C263.51,278.49,262.58,278.76,261.53,278.76z"/>
			<path class="st0" d="M271.9,284.23c-0.28,0-0.57-0.02-0.86-0.06c-0.29-0.04-0.57-0.12-0.86-0.23v-1.84
				c0.17,0.02,0.4,0.05,0.67,0.1c0.27,0.04,0.55,0.06,0.83,0.06c0.86,0,1.52-0.18,1.98-0.54c0.46-0.36,0.9-1.05,1.34-2.06l0.9-2.11
				l-0.05,1.74l-5.98-14.96H272l4.9,12.35h-0.55l4.87-12.35h2.19l-6.45,15.9c-0.28,0.68-0.63,1.33-1.07,1.95s-0.97,1.11-1.62,1.49
				C273.62,284.04,272.82,284.23,271.9,284.23z"/>
			<path class="st0" d="M299.43,278.76c-1.39,0-2.66-0.25-3.82-0.75c-1.16-0.5-2.16-1.2-3.02-2.1c-0.85-0.9-1.51-1.97-1.99-3.2
				c-0.48-1.23-0.71-2.58-0.71-4.05s0.24-2.83,0.71-4.05c0.47-1.23,1.14-2.3,1.99-3.21c0.85-0.91,1.86-1.62,3.02-2.12
				c1.16-0.5,2.43-0.75,3.82-0.75c1.34,0,2.53,0.24,3.59,0.71c1.06,0.47,1.96,1.08,2.69,1.83c0.73,0.75,1.25,1.53,1.57,2.36
				l-1.89,0.92c-0.49-1.19-1.25-2.13-2.27-2.82c-1.02-0.68-2.25-1.03-3.69-1.03c-1.44,0-2.72,0.34-3.84,1.03
				c-1.12,0.69-2,1.64-2.63,2.86c-0.63,1.22-0.95,2.65-0.95,4.28c0,1.61,0.32,3.04,0.95,4.26c0.63,1.23,1.51,2.18,2.63,2.86
				c1.13,0.67,2.41,1.01,3.84,1.01c1.28,0,2.44-0.28,3.46-0.84s1.84-1.33,2.43-2.3c0.6-0.97,0.9-2.1,0.9-3.36v-1.08l0.95,0.95h-7.74
				v-1.84h8.9v1.63c0,1.28-0.23,2.46-0.69,3.54c-0.46,1.08-1.09,2.01-1.89,2.8c-0.81,0.79-1.75,1.4-2.83,1.83
				C301.84,278.54,300.68,278.76,299.43,278.76z"/>
			<path class="st0" d="M318.41,278.76c-1.34,0-2.54-0.32-3.63-0.96c-1.09-0.64-1.95-1.52-2.59-2.63c-0.64-1.11-0.96-2.38-0.96-3.8
				c0-1.4,0.32-2.66,0.95-3.76c0.63-1.11,1.49-1.98,2.56-2.62c1.08-0.64,2.31-0.96,3.67-0.96s2.59,0.31,3.67,0.95
				c1.08,0.63,1.93,1.5,2.55,2.6s0.94,2.37,0.94,3.79c0,1.44-0.32,2.71-0.97,3.83c-0.65,1.11-1.51,1.99-2.59,2.62
				C320.93,278.44,319.73,278.76,318.41,278.76z M318.41,276.78c0.95,0,1.8-0.23,2.57-0.71c0.76-0.47,1.37-1.12,1.82-1.95
				c0.45-0.83,0.67-1.75,0.67-2.77c0-1.02-0.22-1.93-0.67-2.74c-0.45-0.81-1.05-1.45-1.82-1.92c-0.76-0.47-1.62-0.71-2.57-0.71
				c-0.95,0-1.8,0.24-2.57,0.71c-0.76,0.48-1.37,1.11-1.83,1.92c-0.46,0.81-0.69,1.72-0.69,2.74c0,1.02,0.23,1.94,0.69,2.77
				c0.46,0.82,1.07,1.47,1.83,1.95C316.61,276.55,317.47,276.78,318.41,276.78z"/>
			<path class="st0" d="M335.66,278.76c-1.34,0-2.54-0.32-3.63-0.96c-1.09-0.64-1.95-1.52-2.59-2.63c-0.64-1.11-0.96-2.38-0.96-3.8
				c0-1.4,0.32-2.66,0.95-3.76c0.63-1.11,1.49-1.98,2.56-2.62c1.08-0.64,2.31-0.96,3.67-0.96c1.37,0,2.59,0.31,3.67,0.95
				c1.08,0.63,1.93,1.5,2.55,2.6s0.94,2.37,0.94,3.79c0,1.44-0.32,2.71-0.97,3.83c-0.65,1.11-1.51,1.99-2.59,2.62
				C338.17,278.44,336.98,278.76,335.66,278.76z M335.66,276.78c0.95,0,1.8-0.23,2.57-0.71c0.76-0.47,1.37-1.12,1.82-1.95
				c0.45-0.83,0.67-1.75,0.67-2.77c0-1.02-0.22-1.93-0.67-2.74c-0.45-0.81-1.05-1.45-1.82-1.92c-0.76-0.47-1.62-0.71-2.57-0.71
				c-0.95,0-1.8,0.24-2.57,0.71c-0.76,0.48-1.37,1.11-1.83,1.92c-0.46,0.81-0.69,1.72-0.69,2.74c0,1.02,0.23,1.94,0.69,2.77
				c0.46,0.82,1.07,1.47,1.83,1.95C333.86,276.55,334.71,276.78,335.66,276.78z"/>
			<path class="st0" d="M352.67,278.76c-1.32,0-2.5-0.32-3.55-0.96c-1.05-0.64-1.88-1.52-2.48-2.63c-0.61-1.11-0.91-2.37-0.91-3.78
				c0-1.42,0.31-2.69,0.91-3.79c0.6-1.11,1.43-1.98,2.47-2.62c1.04-0.64,2.24-0.96,3.57-0.96c1.21,0,2.29,0.26,3.24,0.79
				c0.95,0.53,1.7,1.24,2.24,2.13l-0.32,0.55v-8.98h1.97v19.93h-1.97v-3.16l0.32,0.29c-0.49,1.02-1.22,1.8-2.2,2.35
				C354.97,278.48,353.88,278.76,352.67,278.76z M352.77,276.78c0.95,0,1.8-0.23,2.56-0.71c0.76-0.47,1.37-1.12,1.82-1.93
				c0.45-0.82,0.67-1.73,0.67-2.75c0-1.02-0.22-1.94-0.67-2.75c-0.45-0.82-1.05-1.46-1.82-1.93c-0.76-0.47-1.62-0.71-2.56-0.71
				c-0.93,0-1.78,0.24-2.53,0.71c-0.75,0.48-1.35,1.11-1.78,1.92c-0.43,0.81-0.65,1.73-0.65,2.77c0,1.02,0.21,1.93,0.65,2.75
				c0.43,0.82,1.01,1.46,1.76,1.93C350.98,276.55,351.83,276.78,352.77,276.78z"/>
		</g>
	</g>
	<g id="Symbol_00000150825412165540940650000013739287268296285343_">
		<polygon class="st0" points="160.05,251.71 175.93,251.71 156.08,271.56 140.2,271.56 		"/>
		<polygon class="st0" points="178.77,270.43 178.77,254.56 158.93,274.4 158.93,290.28 		"/>
		<polygon class="st0" points="200.92,248.29 185.04,248.29 204.89,228.44 220.77,228.44 		"/>
		<polygon class="st0" points="182.19,229.57 182.19,245.44 202.04,225.6 202.04,209.72 		"/>
		<polygon class="st0" points="178.77,229.57 178.77,245.44 158.93,225.6 158.93,209.72 		"/>
		<polygon class="st0" points="160.05,248.29 175.93,248.29 156.08,228.44 140.2,228.44 		"/>
		<polygon class="st0" points="182.19,270.43 182.19,254.56 202.04,274.4 202.04,290.28 		"/>
		<polygon class="st0" points="200.92,251.71 185.04,251.71 204.89,271.56 220.77,271.56 		"/>
		
			<rect x="178.47" y="247.99" transform="matrix(0.7071 -0.7071 0.7071 0.7071 -123.9146 200.8438)" class="st0" width="4.03" height="4.03"/>
	</g>
</g>
</svg>
